<svg id="Layer_1" data-name="Layer 1" xmlns="http://www.w3.org/2000/svg" viewBox="0 0 1000 1000"><defs><style>.cls-1{fill:#feab77;}.cls-2{fill:#f06942;}.cls-3{fill:#fff;}.cls-4{fill:#ed2d44;}</style></defs><title>CANVA Familly-Education_Bima 1</title><path class="cls-1" d="M357.86,104.91s-1.47,28.68,4.07,41.38,23.25,28.51,52.34,28.35c28.31-.15,48.94-16.89,52.42-34.1,3.39-16.82,2.33-38.88,2.33-38.88s4.67-41.38-5.43-54.42-81.13-18.89-90.9-10.42S357.39,80.89,357.86,104.91Z"/><path class="cls-1" d="M467.83,100s2.69-9.62,10.75-5.62,6.11,23.7-1,30.38-9.45-.41-9.77-.65S467.83,100,467.83,100Z"/><path class="cls-2" d="M470.1,106.79s2-7.63,6.69-7.58,3,12.11,3,12.11-.59-9.83-2.71-10-4.29,4.62-4.62,9.5,2.88.71,4.29,1.31.87,6.51-2.06,7.22-4.14-.54-4.57-4.18A48.89,48.89,0,0,1,470.1,106.79Z"/><path class="cls-1" d="M358.57,100s-2.69-9.62-10.75-5.62-6.11,23.7,1,30.38,9.44-.41,9.77-.65S358.57,100,358.57,100Z"/><path class="cls-2" d="M356.3,106.79s-2-7.63-6.69-7.58-3,12.11-3,12.11.6-9.83,2.72-10,4.29,4.62,4.61,9.5-2.87.71-4.29,1.31-.86,6.51,2.07,7.22,4.14-.54,4.57-4.18A50,50,0,0,0,356.3,106.79Z"/><circle class="cls-3" cx="440.21" cy="95.14" r="8.47"/><path d="M444.37,95.9a5.65,5.65,0,1,1-5.65-5.65A5.65,5.65,0,0,1,444.37,95.9Z"/><path class="cls-3" d="M443.09,94.46A1.44,1.44,0,1,1,441.65,93,1.43,1.43,0,0,1,443.09,94.46Z"/><path d="M357.86,104.91S357.37,51.7,378,38.66c0,0,48.27,24.06,82.16,17.22,0,0,8,5.37,8.85,45.78,0,0,11.51-27.86,5.65-48.88,0,0,11.73-2.82,11.29-20.42,0,0-4.12,6.57-13.73,8.86,0,0,8.74-29.49-21.24-36.44s-82.11,11.94-79.93,28.45c0,0-24.11-1.52-27.81,18S351.83,97.75,357.86,104.91Z"/><path d="M429.25,74.54c.64-.33,1.08-.51,1.61-.73s1-.39,1.54-.55a28.16,28.16,0,0,1,3.12-.84,25,25,0,0,1,6.48-.5,20.4,20.4,0,0,1,6.44,1.34,22.13,22.13,0,0,1,5.69,3.22,2.55,2.55,0,0,1-2.84,4.23l-.23-.14a16.68,16.68,0,0,0-4.41-2.15,15,15,0,0,0-4.81-.69,19.2,19.2,0,0,0-4.91.69,22,22,0,0,0-2.37.8c-.39.15-.77.32-1.14.49s-.77.39-1,.51h0A3.26,3.26,0,0,1,429,74.66Z"/><circle class="cls-3" cx="390.73" cy="95.14" r="8.47"/><path d="M386.58,95.9a5.65,5.65,0,1,0,5.65-5.65A5.65,5.65,0,0,0,386.58,95.9Z"/><path class="cls-3" d="M394.06,94.46A1.44,1.44,0,1,0,395.5,93,1.43,1.43,0,0,0,394.06,94.46Z"/><path d="M401.7,74.54c-.64-.33-1.09-.51-1.62-.73s-1-.39-1.53-.55a28.16,28.16,0,0,0-3.12-.84,25,25,0,0,0-6.48-.5,20.34,20.34,0,0,0-6.44,1.34,22.13,22.13,0,0,0-5.69,3.22,2.55,2.55,0,0,0,2.84,4.23l.23-.14a16.68,16.68,0,0,1,4.41-2.15,15,15,0,0,1,4.81-.69,19.12,19.12,0,0,1,4.9.69,21.45,21.45,0,0,1,2.38.8c.39.15.77.32,1.14.49s.77.39,1,.51h0a3.26,3.26,0,1,0,3.39-5.57Z"/><path d="M436.76,138.11c-1.78,4.7-6.64,12.75-19.44,13.88-13.16,1.19-19.71-7.22-22.35-12a2,2,0,0,1,1.87-3l1,0c7.69.22,24.16.43,35.93-1.5l.78-.13A2.06,2.06,0,0,1,436.76,138.11Z"/><path class="cls-3" d="M416.42,141.16c-13.89.55-17.67-2.24-18.63-4.16,7.69.22,24.16.43,35.93-1.5C433.78,137.17,432,140.56,416.42,141.16Z"/><path class="cls-2" d="M407.79,109.38a53,53,0,0,0-1,5.41c-.21,1.76-.25,3.69.64,4.55a2.24,2.24,0,0,0,1.74.44,15.31,15.31,0,0,1,3,0,5.1,5.1,0,0,1,1.68.55,13.91,13.91,0,0,1,1.23.79,4,4,0,0,0,2,.34,3.9,3.9,0,0,0,2-.47,8.65,8.65,0,0,0,1-.73,3.72,3.72,0,0,1,.9-.54,2.56,2.56,0,0,1,1.31-.12c1.23.27,1.91.64,2.67.75a2,2,0,0,0,1.68-.32,1.17,1.17,0,0,0,.32-.69,6.14,6.14,0,0,0,.12-1.19,15.88,15.88,0,0,0-.21-2.63,23.24,23.24,0,0,0-1.34-5.31,16.24,16.24,0,0,1,2.59,5,17.18,17.18,0,0,1,.67,2.83,6.89,6.89,0,0,1,0,1.58,3.32,3.32,0,0,1-.19.88,3.08,3.08,0,0,1-.19.47c-.11.16-.22.32-.35.48a3.7,3.7,0,0,1-1.62,1,4.54,4.54,0,0,1-1.81.14c-1.08-.11-2.12-.51-2.71-.57-.13,0-.05,0-.05,0a1.51,1.51,0,0,0-.27.19,9.75,9.75,0,0,1-1.23.93,6.36,6.36,0,0,1-3.3.89,9.07,9.07,0,0,1-1.6-.13,4.72,4.72,0,0,1-1.75-.64c-.54-.36-.8-.6-1.07-.74a3.65,3.65,0,0,0-.94-.35,13.74,13.74,0,0,0-2.55-.12,6,6,0,0,1-1.69-.28,3.49,3.49,0,0,1-1.59-1.12,4.76,4.76,0,0,1-.88-3.24,13.33,13.33,0,0,1,.55-2.89A24.5,24.5,0,0,1,407.79,109.38Z"/><path class="cls-1" d="M560.58,301.39S574.52,425.15,566.47,521c0,0,8,23.11,5.35,38.91s-8.14,24.11-14.66,25.25-4.4-6.84-5.54-21.83-4.56-19.71-6.84-19.06,2.44,15,0,17.6-8-5.87-9.61-17.6,6.19-19.85,6.19-21.33-31.38-173-30.51-216.68S557.11,263.78,560.58,301.39Z"/><path class="cls-4" d="M500,194.24s32.76,4.3,44.71,17.76,22.37,92.54,21.72,93-61,11.51-67.77,10.86S459.43,194.28,500,194.24Z"/><path class="cls-1" d="M267.44,301.39S253.5,425.15,261.56,521c0,0-8,23.11-5.36,38.91s8.15,24.11,14.67,25.25,4.39-6.84,5.53-21.83,4.57-19.71,6.85-19.06-2.45,15,0,17.6,8-5.87,9.61-17.6-6.19-19.85-6.19-21.33,31.37-173,30.51-216.68S270.92,263.78,267.44,301.39Z"/><path class="cls-4" d="M328,194.24s-32.75,4.3-44.7,17.76-22.37,92.54-21.72,93,61,11.51,67.77,10.86S368.59,194.28,328,194.24Z"/><path class="cls-1" d="M414.93,243.4l68.43-49.64s-40.62-6.52-42.14-9.34-.87-20.2-.87-20.2H388.48s.65,17.37-.87,20.2-42.14,9.34-42.14,9.34l68.42,49.64v.75l.52-.38.52.38Z"/><path class="cls-4" d="M504.22,486.56l-182.36,1.85s-5.54-282.49-4.56-289.66c.91-6.66,34.21-2.61,61.73-12.69,0,0,0,1.2,1.32,4.92,2.5,7.12,9.1,17.89,26.18,20.31a51.24,51.24,0,0,0,7.37.5,56.42,56.42,0,0,0,8.45-.62c24.86-3.79,28.1-24,28.2-24.6a65.34,65.34,0,0,0,8.05,1.65c12.59,1.84,48.43,4.45,51.69,10.75S508.56,400.54,504.22,486.56Z"/><path d="M322.1,959.72s.25,4-1.46,5.95-33.81,12.79-30.39,27.12,75.59.33,76.08-5.54,0-24,0-24Z"/><path d="M475.53,959.72s-.25,4,1.46,5.95,33.81,12.79,30.39,27.12-75.59.33-76.08-5.54,0-24,0-24Z"/><polygon class="cls-3" points="501.17 486.59 499.84 513.48 499.46 521.02 477.71 961.41 426.02 967.48 410.81 557.38 369.53 967.48 320.23 960.53 324.84 522.96 324.91 516.13 325.22 486.78 341.38 486.77 347.92 486.76 477.92 486.61 484.39 486.6 501.17 486.59"/><path class="cls-1" d="M736.72,610.38s11.52-7.82,15.21-10.86,22.11-29,23.15-35.84-4.34-15-2.06-20.2,9,8.83,11.4,8.58,8.15-20.15,6-28.62,12.49-1.63,13.79,12.92-4.27,18.16-7.82,28.92c-3.27,9.9-13.16,47.92-19.24,53.79s-22.38,16.72-28.46,19.77S731.51,643,728,632.75,731.08,612.34,736.72,610.38Z"/><path class="cls-1" d="M574.72,612.07s-10.33-9.34-13.57-12.86-9-30.07-9.09-37,8.32-18.79,6.78-24.27-9.68,7.28-12,6.7-2.13-21,1.19-29-14.75-1.18-18,13,.68,18.78-.11,29.18-1.57,50.64,3.64,57.29,19.85,19.65,25.46,23.5,16.42,6.46,21.27-3.18S580,614.78,574.72,612.07Z"/><path class="cls-1" d="M739.89,990.94c.33,5.66-7.71,5.87-18.79,4.89s-28.56-4.45-31-6.84c-1.7-1.7-1-8.42-.9-15.92a70.07,70.07,0,0,0-.41-9.28c0-.35-.1-.75-.17-1.21-1.91-13.21-13.07-70-13.07-70s-9.34-30.08,14.12-32,24.76,23.78,24.76,23.78l2.07,75.8.31,11.3.37.2C724.24,975.44,739.57,985.39,739.89,990.94Z"/><path class="cls-3" d="M739.89,990.94c.33,5.66-7.71,5.87-18.79,4.89s-28.56-4.45-31-6.84c-1.7-1.7-1-8.42-.9-15.92a70.07,70.07,0,0,0-.41-9.28c0-.35-.1-.75-.17-1.21,7,.64,17.62.76,27.88-2.49l.31,11.3.37.2C724.24,975.44,739.57,985.39,739.89,990.94Z"/><path d="M739.89,990.94c.33,5.66-7.71,5.87-18.79,4.89s-28.56-4.45-31-6.84c-1.7-1.7-1-8.42-.9-15.92,4.49,2.64,15,8.11,20.51,5.46a15.62,15.62,0,0,0,7.47-6.94C724.24,975.44,739.57,985.39,739.89,990.94Z"/><path class="cls-1" d="M555.17,990.94c-.32,5.66,7.72,5.87,18.8,4.89s28.55-4.45,30.95-6.84c1.69-1.7,1-8.42.9-15.92a68.41,68.41,0,0,1,.4-9.28c0-.35.11-.75.17-1.21,1.92-13.21,13.07-70,13.07-70s9.35-30.08-14.11-32-24.76,23.78-24.76,23.78l-2.08,75.8-.31,11.3-.36.2C570.82,975.44,555.5,985.39,555.17,990.94Z"/><path class="cls-3" d="M555.17,990.94c-.32,5.66,7.72,5.87,18.8,4.89s28.55-4.45,30.95-6.84c1.69-1.7,1-8.42.9-15.92a68.41,68.41,0,0,1,.4-9.28c0-.35.11-.75.17-1.21-7,.64-17.62.76-27.88-2.49l-.31,11.3-.36.2C570.82,975.44,555.5,985.39,555.17,990.94Z"/><path d="M555.17,990.94c-.32,5.66,7.72,5.87,18.8,4.89s28.55-4.45,30.95-6.84c1.69-1.7,1-8.42.9-15.92-4.5,2.64-15,8.11-20.52,5.46a15.64,15.64,0,0,1-7.46-6.94C570.82,975.44,555.5,985.39,555.17,990.94Z"/><path class="cls-3" d="M718.37,777.17l17,108-73,11.51-13.69-71-14.55,71L561.5,884.45l18.74-111.16S684.46,746.29,718.37,777.17Z"/><path class="cls-1" d="M650.83,648.78l26.89-16A22.09,22.09,0,0,1,668,621V603.59l-18.15,1.54-18.15-1.54V621a22.09,22.09,0,0,1-9.77,11.73l26.89,16V650l1-.62,1.05.62Z"/><path class="cls-4" d="M712.41,663.38l43.77-20.85-19.78-43C687,621,668,619.94,668,619.94c-4.81,12.69-18.13,13-18.15,13s-13.34-.34-18.15-13c0,0-19,1.08-68.45-20.42l-19.78,43,43.77,20.85L573.75,775.14s29,9.45,76,9.45h0c47,0,76.05-9.45,76.05-9.45Z"/><path class="cls-1" d="M700.68,550.79s2.69-7.88,10.76-4.61,6.11,19.45-1,24.93-9.45-.34-9.78-.54S700.68,550.79,700.68,550.79Z"/><path class="cls-2" d="M703,556.41s2-6.26,6.68-6.22,3,9.94,3,9.94-.6-8.07-2.71-8.2-4.29,3.79-4.62,7.79,2.88.58,4.29,1.07.87,5.35-2.06,5.93-4.15-.45-4.57-3.43A32.89,32.89,0,0,1,703,556.41Z"/><path class="cls-1" d="M601.74,550.79s-2.69-7.88-10.75-4.61-6.11,19.45,1,24.93,9.44-.34,9.77-.54S601.74,550.79,601.74,550.79Z"/><path class="cls-2" d="M599.47,556.41s-2-6.26-6.69-6.22-3,9.94-3,9.94.6-8.07,2.72-8.2,4.29,3.79,4.61,7.79-2.87.58-4.29,1.07-.86,5.35,2.07,5.93,4.14-.45,4.57-3.43A33.67,33.67,0,0,0,599.47,556.41Z"/><path class="cls-1" d="M598.7,557.16s1.74,52.13,53.22,52.13,50.75-52.13,50.75-52.13,1.38-30.63-4.81-47.89-77.22-21.84-85-15S593.05,529.79,598.7,557.16Z"/><path d="M689.72,504.38s-35.19,17.81-76-6.74c0,0-19.12,28-15,59.52,0,0-20.42-34.75-5.65-59.52,0,0-8.74-2.47-10.86-11.26,0,0,7.6,4.86,16.08,3.12s11.83-12.17,35.51-19.44,35.19-18.25,52.89-8.91,11.84,30.3,11.84,30.3,9.94,1,12.87,15.91-8.71,49.8-8.71,49.8S703,526.75,689.72,504.38Z"/><path class="cls-2" d="M649,551.51A63.29,63.29,0,0,1,647.6,560a31.63,31.63,0,0,1-1.23,4.18,10.09,10.09,0,0,1-1,2,2.78,2.78,0,0,0-.65,1.48c0,.21.53.57,1.18.8s1.35.51,2,.86,1.3.72,1.9,1.11a3,3,0,0,0,.81.4l.46.1a.83.83,0,0,0,.35,0,18.68,18.68,0,0,0,3.66-1.91,6.66,6.66,0,0,1,1-.47,2.21,2.21,0,0,1,.59-.14c.13,0,.24,0,.29-.13a1.31,1.31,0,0,0-.1-.93,6,6,0,0,0-.43-1,7,7,0,0,1,.61.89,1.56,1.56,0,0,1,.24,1.15.73.73,0,0,1-.57.41,1.73,1.73,0,0,0-.44.17,8.49,8.49,0,0,0-.87.56l-1.74,1.25a7.76,7.76,0,0,1-2,1.1,1.85,1.85,0,0,1-.71.07c-.19,0-.39,0-.59-.08a4.08,4.08,0,0,1-1.14-.48c-.62-.36-1.22-.68-1.86-1s-1.25-.52-1.94-.78a6.29,6.29,0,0,1-1.09-.52,1.9,1.9,0,0,1-.91-1.27,2.53,2.53,0,0,1,.29-1.41,7.16,7.16,0,0,1,.62-1,10.91,10.91,0,0,0,.92-1.77c.55-1.28,1-2.64,1.41-4s.81-2.73,1.18-4.11Z"/><path d="M668.86,580.74c-1.67,5.24-6.06,13.42-17.16,13.34s-16.1-8.21-18.16-13.39a2.63,2.63,0,0,1,2.82-3.56l.17,0c6.41.85,18.91,2.05,29.36.21H666A2.63,2.63,0,0,1,668.86,580.74Z"/><path class="cls-3" d="M666,577.35c-.42,1.47-2.79,4.38-14.79,4.63s-14.25-3.07-14.65-4.83c6.41.85,18.91,2.05,29.36.21Z"/><path class="cls-3" d="M678.79,549.19a7,7,0,1,1-7-7.05A7,7,0,0,1,678.79,549.19Z"/><path d="M675.2,549.82a4.7,4.7,0,1,1-4.7-4.7A4.7,4.7,0,0,1,675.2,549.82Z"/><circle class="cls-3" cx="672.94" cy="548.62" r="1.2"/><circle class="cls-3" cx="628.71" cy="549.19" r="7.04"/><path d="M625.26,549.82a4.7,4.7,0,1,0,4.7-4.7A4.7,4.7,0,0,0,625.26,549.82Z"/><circle class="cls-3" cx="632.68" cy="548.62" r="1.2"/><path d="M614.54,534a13.8,13.8,0,0,1,1.84-2,15.85,15.85,0,0,1,2.1-1.62,15.08,15.08,0,0,1,4.94-2.07,16.76,16.76,0,0,1,5.37-.27,20.93,20.93,0,0,1,2.63.45c.85.21,1.67.5,2.51.76a2.58,2.58,0,0,1-1.51,4.93l-.19-.07L632,534c-.63-.25-1.26-.54-1.9-.78a16.32,16.32,0,0,0-1.94-.52,12,12,0,0,0-3.92-.19,11.09,11.09,0,0,0-3.77,1.17,12.89,12.89,0,0,0-1.71,1.08,11.51,11.51,0,0,0-1.42,1.28l-.13.14a1.69,1.69,0,0,1-2.62-2.13Z"/><path d="M685.64,534a13.77,13.77,0,0,0-1.83-2,16.53,16.53,0,0,0-2.1-1.62,15,15,0,0,0-5-2.07,16.73,16.73,0,0,0-5.37-.27,21.09,21.09,0,0,0-2.62.45c-.85.21-1.67.5-2.51.76a2.58,2.58,0,0,0,1.51,4.93l.19-.07.28-.11c.63-.25,1.26-.54,1.89-.78a17.42,17.42,0,0,1,1.94-.52,12.11,12.11,0,0,1,3.93-.19,11,11,0,0,1,3.76,1.17A11.83,11.83,0,0,1,682.9,536l.13.14a1.69,1.69,0,0,0,2.61-2.13Z"/></svg>