<svg viewBox="93.27500000000009 65.27372262773724 946.0749999999999 639.4160583941606" fill="none" xmlns="http://www.w3.org/2000/svg" xmlns:xlink="http://www.w3.org/1999/xlink" overflow="visible" width="946.0749999999999px" height="639.4160583941606px"><g id="Master/Spot Illustration/Staying Home"><g id="Background" transform="translate(53 31) scale(1.3333333333333333 1.3891891891891892)"><g id="Background/Party"><g id="Group 9"><g id="Group 3"><path id="Fill 1" fill-rule="evenodd" clip-rule="evenodd" d="M172.115 108.862C172.226 98.9372 172.266 88.6522 168.217 79.5912C164.168 70.5282 154.809 63.0332 144.986 64.4532C133.874 66.0602 127.128 77.8132 124.968 88.8322C122.265 102.614 124.157 117.257 130.275 129.899C117.498 125.36 105.382 118.961 92.3079 115.364C79.2349 111.767 64.5029 111.278 52.8239 118.169C41.1459 125.058 34.2789 140.972 40.6879 152.922C44.6769 160.362 52.5739 164.747 60.2219 168.324C78.0879 176.68 96.9609 182.883 116.301 186.756C87.1069 187.737 58.9349 204.612 44.2929 229.887C39.0069 239.013 35.4609 250.54 40.2659 259.929C44.4829 268.169 53.9339 272.309 62.9959 274.192C88.9489 279.584 115.604 271.59 140.902 263.679C122.953 277.494 119.972 306.431 133.646 324.488C147.319 342.544 174.666 347.876 194.832 337.564C214.998 327.254 226.631 303.176 223.705 280.716C239.64 297.851 262.038 310.356 285.414 309.3C308.789 308.245 331.918 290.87 334.709 267.637C335.435 261.6 334.774 255.243 331.819 249.927C326.277 239.956 314.321 235.814 303.409 232.485C292.713 229.222 282.018 225.96 271.322 222.697C300.479 220.947 328.631 206.325 346.83 183.476C355.57 172.505 362.196 159.258 362.545 145.236C362.893 131.213 355.944 116.514 343.359 110.318C331.719 104.588 317.84 106.819 305.294 110.123C285.018 115.462 265.396 123.277 247.003 133.341C262.8 117.239 277.055 99.6252 289.511 80.8182C294.624 73.0972 299.613 64.5152 299.086 55.2702C298.376 42.8002 287.213 32.7162 275.025 29.9882C262.836 27.2592 250.054 30.5362 238.598 35.5122C208.433 48.6192 183.847 74.0562 171.777 104.65" fill="#D7EFF6"/></g><g id="Group 8"><path id="Fill 6" fill-rule="evenodd" clip-rule="evenodd" d="M651.303 122.67C655.572 120.602 661.743 121.857 664.3 126.041C665.397 127.837 665.894 130.033 665.331 131.981C664.713 134.115 662.706 135.012 660.602 135.469C658.018 136.031 655.311 136.049 652.795 136.917C650.108 137.843 647.852 139.558 646.695 142.207C644.046 148.273 647.778 154.781 653.872 156.661C656.856 157.581 659.811 157.043 662.799 156.471C664.839 156.079 668.031 155.407 669.015 157.821C669.76 159.649 668.876 161.776 667.242 162.949C664.962 164.587 662.416 164.36 659.779 164.673C656.271 165.088 653.859 167.21 652.389 170.367C651.299 172.71 650.694 175.274 650.743 177.866C650.838 182.918 653.568 188.004 658.843 189.101C662.369 189.834 665.711 188.633 669.202 188.368C672.044 188.151 674.412 189.034 675.823 191.614C676.918 193.614 676.857 196.012 675.382 197.806C673.798 199.733 671.188 200.612 668.852 199.952C665.75 199.075 664.426 203.898 667.523 204.774C673.384 206.43 680.286 202.567 681.393 196.427C682.52 190.175 677.894 184.083 671.627 183.396C668.318 183.032 665.153 184.254 661.876 184.36C660.53 184.404 659.355 184.22 658.32 183.577C657.574 183.114 657.103 182.546 656.626 181.66C655.753 180.041 655.552 177.677 655.87 175.788C656.209 173.776 657.109 170.594 659.282 169.824C660.665 169.335 662.296 169.565 663.737 169.388C665.525 169.167 667.239 168.684 668.834 167.83C671.562 166.372 673.665 163.798 674.125 160.701C674.589 157.573 673.527 154.283 670.827 152.464C667.885 150.482 664.326 151.1 661.068 151.728C658.319 152.257 655.633 152.571 653.211 150.856C651.267 149.479 650.334 147.086 651.041 144.783C651.793 142.333 654.134 141.584 656.426 141.158C659.249 140.634 662.114 140.528 664.78 139.361C671.361 136.478 672.005 128.043 668.056 122.693C663.668 116.749 655.282 115.201 648.779 118.353C647.564 118.941 647.239 120.673 647.882 121.774C648.608 123.014 650.084 123.261 651.303 122.67" fill="#F0D3E6"/></g></g></g></g><g id="Window 1" transform="translate(385 218) scale(1.3271375464684014 1.3926174496644295)"><g id="Window 1/Grey Cathedral"><g id="Group 6"><g id="Group 3"><mask id="mask0_201_185408c01f896-64f4-41b5-a0df-859f70425e2c" style="mask-type:alpha" maskUnits="userSpaceOnUse" x="7" y="6" width="255" height="292" fill="#ffffff"><path id="Clip 2" fill-rule="evenodd" clip-rule="evenodd" d="M7.91797 6H261.792V297.782H7.91797V6Z" fill="#ffffff"/></mask><g mask="url(#mask0_201_185408c01f896-64f4-41b5-a0df-859f70425e2c)"><path id="Fill 1" fill-rule="evenodd" clip-rule="evenodd" d="M134.855 5.9996L50.524 50.0716C24.335 63.7596 7.91797 90.8626 7.91797 120.413V297.782H261.792V120.413C261.792 90.8626 245.375 63.7596 219.186 50.0716L134.855 5.9996ZM134.855 16.6926L214.796 58.4716C237.938 70.5656 252.315 94.3006 252.315 120.413V288.306H17.395V120.413C17.395 94.3006 31.771 70.5656 54.913 58.4716L134.855 16.6926V16.6926Z" fill="#CBD3D8"/></g></g><path id="Fill 4" fill-rule="evenodd" clip-rule="evenodd" d="M134.855 16.6929L214.796 58.4709C237.938 70.5659 252.315 94.2999 252.315 120.413V288.305H17.3945V120.413C17.3945 94.2999 31.7705 70.5659 54.9125 58.4709L134.855 16.6929" fill="white"/></g></g></g><g id="Dialogue Box 2" transform="translate(756 287) scale(1.3301435406698565 1.3893129770992367)"><g id="Dialogue Box 2/Pink Bubble"><path id="Fill 1" fill-rule="evenodd" clip-rule="evenodd" d="M205.347 57.1119C205.347 62.4009 201.248 66.7219 196.056 67.0989C196.054 67.1539 196.053 67.2089 196.052 67.2629C200.866 67.9959 204.558 72.1419 204.558 77.1609C204.558 82.6989 200.07 87.1869 194.533 87.1869C193.518 87.1869 192.539 87.0329 191.615 86.7519C194.694 88.4629 196.779 91.7449 196.779 95.5169C196.779 101.054 192.29 105.542 186.754 105.542C184.246 105.542 181.96 104.616 180.202 103.094C180.17 103.125 180.137 103.156 180.105 103.187C181.599 104.938 182.506 107.205 182.506 109.688C182.506 115.224 178.018 119.712 172.481 119.712C168.807 119.712 165.603 117.73 163.858 114.782C164.067 115.587 164.189 116.428 164.189 117.299C164.189 122.835 159.7 127.324 154.164 127.324C148.988 127.324 144.73 123.401 144.197 118.366C144.174 118.367 144.151 118.367 144.128 118.368C144.014 123.806 139.579 128.181 134.114 128.181C128.659 128.181 124.232 123.823 124.101 118.4H124.058C124.07 118.604 124.089 118.806 124.089 119.014C124.089 124.55 119.6 129.038 114.064 129.038C108.527 129.038 104.038 124.55 104.038 119.014C104.038 118.806 104.057 118.604 104.07 118.4H103.919C103.99 118.881 104.038 119.37 104.038 119.871C104.038 125.408 99.5497 129.896 94.0127 129.896C88.4767 129.896 83.9887 125.408 83.9887 119.871C83.9887 119.37 84.0367 118.881 84.1077 118.4H83.9567C83.9687 118.604 83.9887 118.806 83.9887 119.014C83.9887 124.55 79.4997 129.038 73.9627 129.038C68.4267 129.038 63.9377 124.55 63.9377 119.014C63.9377 118.12 64.0667 117.256 64.2857 116.431C62.7397 119.972 59.2107 122.45 55.0987 122.45C49.5627 122.45 45.0737 117.96 45.0737 112.424C45.0737 110.547 45.5997 108.796 46.4977 107.294C44.6847 109.101 42.1837 110.218 39.4227 110.218C33.8857 110.218 29.3977 105.73 29.3977 100.193C29.3977 96.8569 31.0337 93.9099 33.5407 92.0869C32.2767 92.6619 30.8767 92.9909 29.3977 92.9909C23.8607 92.9909 19.3727 88.5019 19.3727 82.9659C19.3727 78.4769 22.3247 74.6829 26.3917 73.4059L2.99968 63.4399L26.7887 52.4289C23.5027 50.7849 21.2417 47.3949 21.2417 43.4699C21.2417 37.9329 25.7307 33.4449 31.2677 33.4449C33.0397 33.4449 34.7027 33.9099 36.1477 34.7159C34.0307 32.8779 32.6857 30.1729 32.6857 27.1499C32.6857 21.6129 37.1737 17.1239 42.7107 17.1239C45.3197 17.1239 47.6887 18.1299 49.4717 19.7639C49.1707 18.8089 49.0057 17.7929 49.0057 16.7389C49.0057 11.2019 53.4937 6.7129 59.0307 6.7129C62.6957 6.7129 65.8917 8.6869 67.6407 11.6219C67.8537 6.2739 72.2447 1.9989 77.6457 1.9989C83.1387 1.9989 87.5947 6.4189 87.6637 11.8969H87.6767C87.7457 6.4189 92.2017 1.9989 97.6957 1.9989C103.189 1.9989 107.645 6.4189 107.715 11.8969H107.727C107.797 6.4189 112.253 1.9989 117.746 1.9989C123.24 1.9989 127.695 6.4189 127.764 11.8969H127.778C127.847 6.4189 132.303 1.9989 137.796 1.9989C143.333 1.9989 147.822 6.4879 147.822 12.0249C147.822 12.0619 147.816 12.0979 147.816 12.1349C147.901 12.1429 147.988 12.1459 148.073 12.1549C149.079 7.6809 153.069 4.3359 157.846 4.3359C163.383 4.3359 167.871 8.8249 167.871 14.3609C167.871 15.5779 167.644 16.7379 167.247 17.8169C167.276 17.8309 167.305 17.8459 167.333 17.8619C169.096 14.9889 172.257 13.0669 175.874 13.0669C181.411 13.0669 185.899 17.5549 185.899 23.0919C185.899 25.8499 184.784 28.3459 182.983 30.1589C184.64 28.9469 186.677 28.2219 188.889 28.2219C194.426 28.2219 198.914 32.7099 198.914 38.2459C198.914 42.2879 196.517 45.7629 193.071 47.3489C193.796 47.1829 194.547 47.0859 195.322 47.0859C200.859 47.0859 205.347 51.5749 205.347 57.1119" fill="#F0D3E6"/></g></g><g id="Plant 2" transform="translate(53 445) scale(1.3243243243243243 1.3902439024390243)"><g id="Plant 2/Orange Bulbs"><g id="Plant 1"><path id="Fill 59" fill-rule="evenodd" clip-rule="evenodd" d="M142.918 135.167H78.509V101.279H142.918V135.167Z" fill="#BF62A2"/><path id="Fill 61" fill-rule="evenodd" clip-rule="evenodd" d="M113.045 101.279H116.045V81.5822C116.045 73.8952 109.791 67.6412 102.104 67.6412H98.3599C92.3269 67.6412 87.4189 62.7332 87.4189 56.7002V55.8192C87.4189 48.1322 81.1649 41.8782 73.4779 41.8782V44.8782C79.5109 44.8782 84.4189 49.7862 84.4189 55.8192V56.7002C84.4189 64.3872 90.6729 70.6412 98.3599 70.6412H102.104C108.137 70.6412 113.045 75.5502 113.045 81.5822V101.279Z" fill="#CBD3D8"/><path id="Fill 62" fill-rule="evenodd" clip-rule="evenodd" d="M49.6165 43.3778C49.6165 49.9558 54.9495 55.2888 61.5275 55.2888C68.1065 55.2888 73.4395 49.9558 73.4395 43.3778C73.4395 36.7998 68.1065 31.4668 61.5275 31.4668C54.9495 31.4668 49.6165 36.7998 49.6165 43.3778" fill="#F06647"/><path id="Fill 63" fill-rule="evenodd" clip-rule="evenodd" d="M58.5445 41.4735L56.3865 38.6505L57.2485 42.0975L53.6955 42.0245L56.9285 43.5005L54.6555 46.2335L57.8255 44.6255L58.5445 48.1055L59.2635 44.6255L62.4335 46.2335L60.1615 43.5005L63.3945 42.0245L59.8405 42.0975L60.7025 38.6505L58.5445 41.4735Z" fill="#3A3E5B"/><path id="Fill 64" fill-rule="evenodd" clip-rule="evenodd" d="M120.588 101.279H123.588V64.0032C123.588 57.8822 118.608 52.9012 112.486 52.9012C108.019 52.9012 104.384 49.2662 104.384 44.7992V16.5112H101.384V44.7992C101.384 50.9212 106.364 55.9012 112.486 55.9012C116.953 55.9012 120.588 59.5362 120.588 64.0032V101.279Z" fill="#CBD3D8"/><path id="Fill 65" fill-rule="evenodd" clip-rule="evenodd" d="M90.7773 6.82601L87.1513 3.20001L87.9443 6.39101L85.0623 5.28901L86.0753 8.26101L82.9013 7.47201L86.5793 11.151C86.5793 11.151 86.6783 9.43101 87.9413 8.16901C89.2043 6.90501 90.7773 6.82601 90.7773 6.82601" fill="#3A3E5B"/><path id="Fill 66" fill-rule="evenodd" clip-rule="evenodd" d="M84.8625 16.0975C84.8625 22.6765 90.1955 28.0095 96.7735 28.0095C103.353 28.0095 108.686 22.6765 108.686 16.0975C108.686 9.51952 103.353 4.18652 96.7735 4.18652C90.1955 4.18652 84.8625 9.51952 84.8625 16.0975" fill="#F06647"/><path id="Fill 67" fill-rule="evenodd" clip-rule="evenodd" d="M85.6429 176.588V181.716L87.3399 178.899L88.5979 181.716L89.9819 178.899L91.6699 181.7V176.498C91.6699 176.498 90.3839 177.644 88.5979 177.644C86.8109 177.644 85.6429 176.588 85.6429 176.588" fill="#3A3E5B"/><path id="Fill 68" fill-rule="evenodd" clip-rule="evenodd" d="M87.1575 155.452H90.1575V96.432C90.1575 94.357 91.8455 92.67 93.9205 92.67H95.3425C97.4175 92.67 99.1055 94.357 99.1055 96.432V101.279H102.105V96.432C102.105 92.704 99.0715 89.67 95.3425 89.67H93.9205C90.1915 89.67 87.1575 92.704 87.1575 96.432V155.452Z" fill="#CBD3D8"/><path id="Fill 69" fill-rule="evenodd" clip-rule="evenodd" d="M76.7454 165.756C76.7454 172.334 82.0784 177.667 88.6564 177.667C95.2354 177.667 100.568 172.334 100.568 165.756C100.568 159.177 95.2354 153.844 88.6564 153.844C82.0784 153.844 76.7454 159.177 76.7454 165.756" fill="#F06647"/><path id="Fill 70" fill-rule="evenodd" clip-rule="evenodd" d="M106.213 101.279H109.213V91.4902C109.213 85.1932 104.09 80.0702 97.7929 80.0702H76.0229C69.6419 80.0702 63.8349 83.5802 60.8689 89.2302L57.2149 96.1922L59.8719 97.5872L63.5259 90.6252C65.9719 85.9652 70.7599 83.0702 76.0229 83.0702H97.7929C102.436 83.0702 106.213 86.8472 106.213 91.4902V101.279Z" fill="#CBD3D8"/><path id="Fill 71" fill-rule="evenodd" clip-rule="evenodd" d="M44.9066 114.787L42.0696 119.058L45.0416 117.65L44.5306 120.693L47.2426 119.112L47.0976 122.38L49.9766 118.047C49.9766 118.047 48.2716 118.29 46.7836 117.302C45.2956 116.312 44.9066 114.787 44.9066 114.787" fill="#3A3E5B"/><path id="Fill 72" fill-rule="evenodd" clip-rule="evenodd" d="M55.1634 118.752C61.6124 117.452 65.7854 111.17 64.4854 104.721C63.1844 98.2728 56.9024 94.0988 50.4534 95.3988C44.0054 96.6998 39.8314 102.982 41.1324 109.431C42.4324 115.88 48.7144 120.053 55.1634 118.752" fill="#F06647"/><path id="Fill 73" fill-rule="evenodd" clip-rule="evenodd" d="M130.066 128.961C130.894 128.961 131.566 128.289 131.566 127.461V95.1618C131.566 94.3338 130.894 93.6618 130.066 93.6618C129.238 93.6618 128.566 94.3338 128.566 95.1618V127.461C128.566 128.289 129.238 128.961 130.066 128.961" fill="#CBD3D8"/><path id="Fill 74" fill-rule="evenodd" clip-rule="evenodd" d="M130.068 151.078C136.646 151.078 141.979 145.745 141.979 139.167C141.979 132.588 136.646 127.255 130.068 127.255C123.489 127.255 118.156 132.588 118.156 139.167C118.156 145.745 123.489 151.078 130.068 151.078" fill="#F06647"/><path id="Fill 75" fill-rule="evenodd" clip-rule="evenodd" d="M128.163 142.15L125.339 144.308L128.787 143.446L128.714 147L130.19 143.766L132.922 146.039L131.315 142.87L134.795 142.15L131.315 141.43L132.922 138.26L130.19 140.534L128.714 137.3L128.787 140.853L125.339 139.992L128.163 142.15Z" fill="#3A3E5B"/></g></g></g><g id="Master/Worms/Jae" transform="translate(470 194) scale(1.3289036544850499 1.3936507936507936)"><g id="Master/Worms/Jae"><g id="Body/Jae" transform="translate(47.918 130.42) scale(1 1)"><g id="Body/Jae/Blue"><g id="Group 9"><path id="Fill 1" fill-rule="evenodd" clip-rule="evenodd" d="M0.000488281 104.107V183.221H208.213V104.107C208.213 46.61 161.603 0 104.107 0C46.6105 0 0.000488281 46.61 0.000488281 104.107Z" fill="#5473B8"/><path id="Fill 3" fill-rule="evenodd" clip-rule="evenodd" d="M100.978 63.6695C100.978 83.3655 85.0106 99.3325 65.3146 99.3325C45.6186 99.3325 29.6516 83.3655 29.6516 63.6695C29.6516 43.9735 45.6186 28.0065 65.3146 28.0065C85.0106 28.0065 100.978 43.9735 100.978 63.6695" fill="#FFCC37"/><path id="Fill 5" fill-rule="evenodd" clip-rule="evenodd" d="M178.563 63.6695C178.563 83.3655 162.596 99.3325 142.901 99.3325C123.205 99.3325 107.238 83.3655 107.238 63.6695C107.238 43.9735 123.205 28.0065 142.901 28.0065C162.596 28.0065 178.563 43.9735 178.563 63.6695" fill="#FFCC37"/><path id="Fill 7" fill-rule="evenodd" clip-rule="evenodd" d="M0 183.221H208.214V112.697H0V183.221Z" fill="#385E9F"/></g></g></g><g id="Eyes/Jae" transform="translate(124.918 186.42) scale(1 1)"><g id="Eyes/Jae/Naughty"><g id="Group 7"><g id="Group 3"><path id="Fill 1" fill-rule="evenodd" clip-rule="evenodd" d="M38.6802 16.7879V16.7879C36.8742 16.7879 35.4102 15.3239 35.4102 13.5189V10.2439C35.4102 8.43791 36.8742 6.97391 38.6802 6.97391C40.4862 6.97391 41.9502 8.43791 41.9502 10.2439V13.5189C41.9502 15.3239 40.4862 16.7879 38.6802 16.7879" fill="#101335"/></g><g id="Group 6"><path id="Fill 4" fill-rule="evenodd" clip-rule="evenodd" d="M10.0023 19.891C9.34526 19.891 8.70126 19.567 8.31826 18.974C7.72126 18.045 7.98826 16.808 8.91726 16.209L13.8893 13.006L9.32126 9.604C8.43626 8.944 8.25226 7.691 8.91226 6.805C9.57226 5.92 10.8253 5.736 11.7113 6.396L17.6043 10.786C18.3543 11.345 18.7833 12.237 18.7513 13.172C18.7203 14.106 18.2313 14.967 17.4443 15.474L11.0833 19.572C10.7483 19.788 10.3733 19.891 10.0023 19.891" fill="#101335"/></g></g></g></g><g id="Mouth/Jae" transform="translate(132.77 206.476) scale(0.975 1)"><g id="Mouth/Jae/Teeth Out"><g id="Group 7"><path id="Fill 1" fill-rule="evenodd" clip-rule="evenodd" d="M15.6155 15.8476H14.3045C12.7675 15.8476 11.5215 14.6016 11.5215 13.0636V8.5726H18.3985V13.0636C18.3985 14.6016 17.1525 15.8476 15.6155 15.8476" fill="#FFEFCD"/><path id="Fill 3" fill-rule="evenodd" clip-rule="evenodd" d="M25.3323 15.8476H24.0213C22.4843 15.8476 21.2383 14.6016 21.2383 13.0636V8.5726H28.1153V13.0636C28.1153 14.6016 26.8693 15.8476 25.3323 15.8476" fill="#FFEFCD"/><path id="Fill 5" fill-rule="evenodd" clip-rule="evenodd" d="M19.612 10.6044C8.96596 10.6044 6.49696 7.04641 6.10996 6.33241C5.69296 5.56641 5.97796 4.60641 6.74496 4.19041C7.48796 3.78741 8.42096 4.04341 8.85396 4.76641C8.96296 4.91441 10.984 7.44441 19.612 7.44441C29.025 7.44441 32.914 4.39141 32.952 4.36041C33.629 3.81441 34.62 3.91241 35.171 4.57941C35.721 5.24841 35.637 6.23141 34.973 6.78941C34.789 6.94541 30.308 10.6044 19.612 10.6044" fill="#171617"/></g></g></g><g id="Hair/Jae" transform="translate(5.91797 0.420013) scale(1 1)"><g id="Hair/Jae/Colour Buns"><g id="Group"><g id="Group 24"><path id="Fill 1" fill-rule="evenodd" clip-rule="evenodd" d="M240.177 148.878C241.179 154.876 237.129 160.551 231.131 161.553C225.133 162.555 219.458 158.504 218.456 152.506C217.454 146.508 221.504 140.834 227.502 139.832C233.501 138.83 239.175 142.88 240.177 148.878" fill="#FFCC37"/><g id="Group 5"><path id="Fill 3" fill-rule="evenodd" clip-rule="evenodd" d="M223.102 164.373C222.343 164.5 221.539 164.277 220.946 163.7L215.811 158.709C214.821 157.747 214.797 156.164 215.76 155.174C216.724 154.185 218.307 154.162 219.295 155.124L224.43 160.115C225.42 161.077 225.443 162.66 224.481 163.65C224.095 164.047 223.609 164.288 223.102 164.373" fill="#3A3E5B"/></g><g id="Group 8"><path id="Fill 6" fill-rule="evenodd" clip-rule="evenodd" d="M152.211 107.147C157.107 110.754 158.151 117.647 154.545 122.543C150.938 127.439 144.045 128.484 139.149 124.877C134.253 121.27 133.208 114.377 136.815 109.481C140.422 104.585 147.315 103.54 152.211 107.147" fill="#5473B8"/></g><path id="Fill 9" fill-rule="evenodd" clip-rule="evenodd" d="M148.732 131.177H148.73L141.569 131.171C140.188 131.17 139.07 130.05 139.071 128.669C139.072 127.289 140.191 126.171 141.571 126.171H141.573L148.734 126.177C150.115 126.178 151.233 127.298 151.232 128.679C151.231 130.059 150.112 131.177 148.732 131.177" fill="#3A3E5B"/><path id="Fill 11" fill-rule="evenodd" clip-rule="evenodd" d="M201.526 119.708C204.695 124.898 203.056 131.675 197.867 134.844C192.676 138.012 185.9 136.374 182.731 131.184C179.562 125.993 181.201 119.217 186.391 116.048C191.581 112.879 198.357 114.518 201.526 119.708" fill="#F1758E"/><path id="Fill 13" fill-rule="evenodd" clip-rule="evenodd" d="M190.363 140.818C189.984 140.848 189.593 140.793 189.219 140.639L182.592 137.926C181.314 137.403 180.702 135.943 181.225 134.665C181.749 133.388 183.212 132.777 184.486 133.299L191.112 136.012C192.39 136.534 193.003 137.995 192.479 139.272C192.11 140.175 191.273 140.745 190.363 140.818" fill="#3A3E5B"/><path id="Fill 15" fill-rule="evenodd" clip-rule="evenodd" d="M51.1522 148.878C50.1502 154.876 54.2002 160.551 60.1982 161.553C66.1962 162.555 71.8712 158.504 72.8732 152.506C73.8752 146.508 69.8252 140.834 63.8272 139.832C57.8282 138.83 52.1542 142.88 51.1522 148.878" fill="#41AFE4"/><g id="Group 19"><path id="Fill 17" fill-rule="evenodd" clip-rule="evenodd" d="M68.2274 164.373C68.9864 164.5 69.7904 164.277 70.3834 163.7L75.5184 158.709C76.5084 157.747 76.5324 156.164 75.5694 155.174C74.6054 154.185 73.0224 154.162 72.0344 155.124L66.8994 160.115C65.9094 161.077 65.8864 162.66 66.8484 163.65C67.2344 164.047 67.7204 164.288 68.2274 164.373" fill="#3A3E5B"/></g><path id="Fill 20" fill-rule="evenodd" clip-rule="evenodd" d="M89.8696 119.719C86.7006 124.909 88.3396 131.686 93.5296 134.855C98.7206 138.024 105.497 136.385 108.666 131.195C111.835 126.004 110.196 119.228 105.006 116.059C99.8146 112.89 93.0386 114.529 89.8696 119.719" fill="#F9A471"/><path id="Fill 22" fill-rule="evenodd" clip-rule="evenodd" d="M101.034 140.829C101.413 140.859 101.803 140.804 102.178 140.65L108.805 137.937C110.083 137.414 110.695 135.954 110.171 134.676C109.648 133.399 108.185 132.788 106.911 133.31L100.284 136.023C99.0073 136.546 98.3933 138.006 98.9183 139.283C99.2873 140.186 100.124 140.756 101.034 140.829" fill="#3A3E5B"/></g><g id="Group 23"><path id="Fill 21" fill-rule="evenodd" clip-rule="evenodd" d="M149.283 173.991C149.283 176.129 147.55 177.862 145.411 177.862C143.273 177.862 141.54 176.129 141.54 173.991C141.54 171.853 143.273 170.12 145.411 170.12C147.55 170.12 149.283 171.853 149.283 173.991" fill="white"/></g></g></g></g><g id="Clothes/Jae" transform="translate(47.918 251.42) scale(1 1)"><g id="Clothes/Jae/Lavender Polkas"><g id="Group 90"><path id="Fill 1" fill-rule="evenodd" clip-rule="evenodd" d="M0 64.5816H208.214V1.0006H0V64.5816Z" fill="#4FA480"/><g id="Group 89"><path id="Fill 2" fill-rule="evenodd" clip-rule="evenodd" d="M9.61049 22.506C9.61049 17.146 5.32949 12.794 0.000488281 12.663V32.349C5.32949 32.218 9.61049 27.867 9.61049 22.506" fill="#E0BFDB"/><path id="Fill 4" fill-rule="evenodd" clip-rule="evenodd" d="M22.8848 32.3615C28.3268 32.3615 32.7398 27.9485 32.7398 22.5065C32.7398 17.0635 28.3268 12.6515 22.8848 12.6515C17.4418 12.6515 13.0298 17.0635 13.0298 22.5065C13.0298 27.9485 17.4418 32.3615 22.8848 32.3615" fill="#E0BFDB"/><path id="Fill 6" fill-rule="evenodd" clip-rule="evenodd" d="M46.0137 32.3615C51.4557 32.3615 55.8687 27.9485 55.8687 22.5065C55.8687 17.0635 51.4557 12.6515 46.0137 12.6515C40.5707 12.6515 36.1587 17.0635 36.1587 22.5065C36.1587 27.9485 40.5707 32.3615 46.0137 32.3615" fill="#E0BFDB"/><path id="Fill 8" fill-rule="evenodd" clip-rule="evenodd" d="M69.1426 32.3615C74.5846 32.3615 78.9976 27.9485 78.9976 22.5065C78.9976 17.0635 74.5846 12.6515 69.1426 12.6515C63.6996 12.6515 59.2876 17.0635 59.2876 22.5065C59.2876 27.9485 63.6996 32.3615 69.1426 32.3615" fill="#E0BFDB"/><path id="Fill 10" fill-rule="evenodd" clip-rule="evenodd" d="M92.2715 32.3615C97.7135 32.3615 102.127 27.9485 102.127 22.5065C102.127 17.0635 97.7135 12.6515 92.2715 12.6515C86.8285 12.6515 82.4165 17.0635 82.4165 22.5065C82.4165 27.9485 86.8285 32.3615 92.2715 32.3615" fill="#E0BFDB"/><path id="Fill 12" fill-rule="evenodd" clip-rule="evenodd" d="M115.4 32.3615C120.843 32.3615 125.255 27.9485 125.255 22.5065C125.255 17.0635 120.843 12.6515 115.4 12.6515C109.957 12.6515 105.545 17.0635 105.545 22.5065C105.545 27.9485 109.957 32.3615 115.4 32.3615" fill="#E0BFDB"/><path id="Fill 14" fill-rule="evenodd" clip-rule="evenodd" d="M138.529 32.3615C143.972 32.3615 148.384 27.9485 148.384 22.5065C148.384 17.0635 143.972 12.6515 138.529 12.6515C133.087 12.6515 128.674 17.0635 128.674 22.5065C128.674 27.9485 133.087 32.3615 138.529 32.3615" fill="#E0BFDB"/><path id="Fill 16" fill-rule="evenodd" clip-rule="evenodd" d="M11.3115 11.7917C16.7535 11.7917 21.1655 7.37969 21.1655 1.93669C21.1655 1.62069 21.1485 1.30869 21.1195 0.999695H1.50254C1.47454 1.30869 1.45654 1.62069 1.45654 1.93669C1.45654 7.37969 5.86854 11.7917 11.3115 11.7917" fill="#E0BFDB"/><path id="Fill 18" fill-rule="evenodd" clip-rule="evenodd" d="M34.4404 11.7917C39.8824 11.7917 44.2954 7.37969 44.2954 1.93669C44.2954 1.62069 44.2774 1.30869 44.2484 0.999695H24.6314C24.6034 1.30869 24.5854 1.62069 24.5854 1.93669C24.5854 7.37969 28.9974 11.7917 34.4404 11.7917" fill="#E0BFDB"/><path id="Fill 20" fill-rule="evenodd" clip-rule="evenodd" d="M57.5694 11.7917C63.0114 11.7917 67.4244 7.37969 67.4244 1.93669C67.4244 1.62069 67.4064 1.30869 67.3774 0.999695H47.7614C47.7324 1.30869 47.7144 1.62069 47.7144 1.93669C47.7144 7.37969 52.1264 11.7917 57.5694 11.7917" fill="#E0BFDB"/><path id="Fill 22" fill-rule="evenodd" clip-rule="evenodd" d="M80.6983 11.7917C86.1403 11.7917 90.5533 7.37969 90.5533 1.93669C90.5533 1.62069 90.5353 1.30869 90.5063 0.999695H70.8903C70.8613 1.30869 70.8433 1.62069 70.8433 1.93669C70.8433 7.37969 75.2553 11.7917 80.6983 11.7917" fill="#E0BFDB"/><path id="Fill 24" fill-rule="evenodd" clip-rule="evenodd" d="M103.827 11.7917C109.269 11.7917 113.682 7.37969 113.682 1.93669C113.682 1.62069 113.664 1.30869 113.635 0.999695H94.0192C93.9902 1.30869 93.9722 1.62069 93.9722 1.93669C93.9722 7.37969 98.3842 11.7917 103.827 11.7917" fill="#E0BFDB"/><path id="Fill 26" fill-rule="evenodd" clip-rule="evenodd" d="M126.956 11.7917C132.399 11.7917 136.811 7.37969 136.811 1.93669C136.811 1.62069 136.793 1.30869 136.764 0.999695H117.148C117.119 1.30869 117.101 1.62069 117.101 1.93669C117.101 7.37969 121.513 11.7917 126.956 11.7917" fill="#E0BFDB"/><path id="Fill 28" fill-rule="evenodd" clip-rule="evenodd" d="M150.085 11.7917C155.528 11.7917 159.94 7.37969 159.94 1.93669C159.94 1.62069 159.922 1.30869 159.893 0.999695H140.277C140.248 1.30869 140.23 1.62069 140.23 1.93669C140.23 7.37969 144.643 11.7917 150.085 11.7917" fill="#E0BFDB"/><g id="Group 32"><path id="Fill 30" fill-rule="evenodd" clip-rule="evenodd" d="M0 53.8019V64.5819H9.572C9.602 64.2729 9.62 63.9609 9.62 63.6449C9.62 58.2819 5.333 53.9279 0 53.8019" fill="#E0BFDB"/></g><g id="Group 35"><path id="Fill 33" fill-rule="evenodd" clip-rule="evenodd" d="M22.8936 53.7897C17.4506 53.7897 13.0386 58.2027 13.0386 63.6447C13.0386 63.9607 13.0566 64.2727 13.0856 64.5817H32.7016C32.7306 64.2727 32.7486 63.9607 32.7486 63.6447C32.7486 58.2027 28.3356 53.7897 22.8936 53.7897" fill="#E0BFDB"/></g><g id="Group 38"><path id="Fill 36" fill-rule="evenodd" clip-rule="evenodd" d="M46.0225 53.7897C40.5795 53.7897 36.1675 58.2027 36.1675 63.6447C36.1675 63.9607 36.1855 64.2727 36.2145 64.5817H55.8305C55.8595 64.2727 55.8775 63.9607 55.8775 63.6447C55.8775 58.2027 51.4645 53.7897 46.0225 53.7897" fill="#E0BFDB"/></g><g id="Group 41"><path id="Fill 39" fill-rule="evenodd" clip-rule="evenodd" d="M69.1514 53.7897C63.7084 53.7897 59.2964 58.2027 59.2964 63.6447C59.2964 63.9607 59.3144 64.2727 59.3434 64.5817H78.9594C78.9884 64.2727 79.0064 63.9607 79.0064 63.6447C79.0064 58.2027 74.5934 53.7897 69.1514 53.7897" fill="#E0BFDB"/></g><g id="Group 44"><path id="Fill 42" fill-rule="evenodd" clip-rule="evenodd" d="M92.2803 53.7897C86.8373 53.7897 82.4253 58.2027 82.4253 63.6447C82.4253 63.9607 82.4433 64.2727 82.4723 64.5817H102.088C102.117 64.2727 102.135 63.9607 102.135 63.6447C102.135 58.2027 97.7223 53.7897 92.2803 53.7897" fill="#E0BFDB"/></g><g id="Group 47"><path id="Fill 45" fill-rule="evenodd" clip-rule="evenodd" d="M115.409 53.7897C109.967 53.7897 105.554 58.2027 105.554 63.6447C105.554 63.9607 105.572 64.2727 105.601 64.5817H125.217C125.246 64.2727 125.264 63.9607 125.264 63.6447C125.264 58.2027 120.852 53.7897 115.409 53.7897" fill="#E0BFDB"/></g><g id="Group 50"><path id="Fill 48" fill-rule="evenodd" clip-rule="evenodd" d="M138.538 53.7897C133.096 53.7897 128.683 58.2027 128.683 63.6447C128.683 63.9607 128.701 64.2727 128.73 64.5817H148.346C148.375 64.2727 148.393 63.9607 148.393 63.6447C148.393 58.2027 143.981 53.7897 138.538 53.7897" fill="#E0BFDB"/></g><path id="Fill 51" fill-rule="evenodd" clip-rule="evenodd" d="M1.46484 43.0758C1.46484 48.5188 5.87684 52.9308 11.3198 52.9308C16.7628 52.9308 21.1758 48.5188 21.1758 43.0758C21.1758 37.6328 16.7628 33.2208 11.3198 33.2208C5.87684 33.2208 1.46484 37.6328 1.46484 43.0758" fill="#E0BFDB"/><path id="Fill 53" fill-rule="evenodd" clip-rule="evenodd" d="M24.5938 43.0758C24.5938 48.5188 29.0057 52.9308 34.4487 52.9308C39.8917 52.9308 44.3048 48.5188 44.3048 43.0758C44.3048 37.6328 39.8917 33.2208 34.4487 33.2208C29.0057 33.2208 24.5938 37.6328 24.5938 43.0758" fill="#E0BFDB"/><path id="Fill 55" fill-rule="evenodd" clip-rule="evenodd" d="M161.667 32.3615C167.11 32.3615 171.522 27.9485 171.522 22.5065C171.522 17.0635 167.11 12.6515 161.667 12.6515C156.225 12.6515 151.812 17.0635 151.812 22.5065C151.812 27.9485 156.225 32.3615 161.667 32.3615" fill="#E0BFDB"/><path id="Fill 57" fill-rule="evenodd" clip-rule="evenodd" d="M184.796 32.3615C190.239 32.3615 194.651 27.9485 194.651 22.5065C194.651 17.0635 190.239 12.6515 184.796 12.6515C179.354 12.6515 174.941 17.0635 174.941 22.5065C174.941 27.9485 179.354 32.3615 184.796 32.3615" fill="#E0BFDB"/><g id="Group 61"><path id="Fill 59" fill-rule="evenodd" clip-rule="evenodd" d="M198.069 22.506C198.069 27.949 202.482 32.361 207.924 32.361C208.022 32.361 208.117 32.35 208.214 32.347V12.666C208.117 12.663 208.022 12.651 207.924 12.651C202.482 12.651 198.069 17.063 198.069 22.506" fill="#E0BFDB"/></g><path id="Fill 62" fill-rule="evenodd" clip-rule="evenodd" d="M173.223 11.7917C178.666 11.7917 183.078 7.37969 183.078 1.93669C183.078 1.62069 183.06 1.30869 183.031 0.999695H163.415C163.386 1.30869 163.368 1.62069 163.368 1.93669C163.368 7.37969 167.781 11.7917 173.223 11.7917" fill="#E0BFDB"/><path id="Fill 64" fill-rule="evenodd" clip-rule="evenodd" d="M196.352 11.7917C201.795 11.7917 206.207 7.37969 206.207 1.93669C206.207 1.62069 206.189 1.30869 206.16 0.999695H186.544C186.515 1.30869 186.497 1.62069 186.497 1.93669C186.497 7.37969 190.91 11.7917 196.352 11.7917" fill="#E0BFDB"/><g id="Group 68"><path id="Fill 66" fill-rule="evenodd" clip-rule="evenodd" d="M161.676 53.7897C156.234 53.7897 151.821 58.2027 151.821 63.6447C151.821 63.9607 151.839 64.2727 151.868 64.5817H171.484C171.513 64.2727 171.531 63.9607 171.531 63.6447C171.531 58.2027 167.119 53.7897 161.676 53.7897" fill="#E0BFDB"/></g><g id="Group 71"><path id="Fill 69" fill-rule="evenodd" clip-rule="evenodd" d="M184.805 53.7897C179.363 53.7897 174.95 58.2027 174.95 63.6447C174.95 63.9607 174.968 64.2727 174.997 64.5817H194.614C194.642 64.2727 194.66 63.9607 194.66 63.6447C194.66 58.2027 190.248 53.7897 184.805 53.7897" fill="#E0BFDB"/></g><g id="Group 74"><path id="Fill 72" fill-rule="evenodd" clip-rule="evenodd" d="M198.079 63.6452C198.079 63.9612 198.097 64.2732 198.126 64.5822H208.214V53.8042C208.12 53.8012 208.028 53.7902 207.933 53.7902C202.491 53.7902 198.079 58.2022 198.079 63.6452" fill="#E0BFDB"/></g><path id="Fill 75" fill-rule="evenodd" clip-rule="evenodd" d="M140.247 43.0758C140.247 48.5188 144.66 52.9308 150.102 52.9308C155.546 52.9308 159.958 48.5188 159.958 43.0758C159.958 37.6328 155.546 33.2208 150.102 33.2208C144.66 33.2208 140.247 37.6328 140.247 43.0758" fill="#E0BFDB"/><path id="Fill 77" fill-rule="evenodd" clip-rule="evenodd" d="M163.376 43.0758C163.376 48.5188 167.789 52.9308 173.231 52.9308C178.675 52.9308 183.087 48.5188 183.087 43.0758C183.087 37.6328 178.675 33.2208 173.231 33.2208C167.789 33.2208 163.376 37.6328 163.376 43.0758" fill="#E0BFDB"/><path id="Fill 79" fill-rule="evenodd" clip-rule="evenodd" d="M186.505 43.0758C186.505 48.5188 190.918 52.9308 196.36 52.9308C201.804 52.9308 206.216 48.5188 206.216 43.0758C206.216 37.6328 201.804 33.2208 196.36 33.2208C190.918 33.2208 186.505 37.6328 186.505 43.0758" fill="#E0BFDB"/><path id="Fill 81" fill-rule="evenodd" clip-rule="evenodd" d="M47.7227 43.0758C47.7227 48.5188 52.1347 52.9308 57.5777 52.9308C63.0207 52.9308 67.4337 48.5188 67.4337 43.0758C67.4337 37.6328 63.0207 33.2208 57.5777 33.2208C52.1347 33.2208 47.7227 37.6328 47.7227 43.0758" fill="#E0BFDB"/><path id="Fill 83" fill-rule="evenodd" clip-rule="evenodd" d="M70.8516 43.0758C70.8516 48.5188 75.2636 52.9308 80.7066 52.9308C86.1496 52.9308 90.5626 48.5188 90.5626 43.0758C90.5626 37.6328 86.1496 33.2208 80.7066 33.2208C75.2636 33.2208 70.8516 37.6328 70.8516 43.0758" fill="#E0BFDB"/><path id="Fill 85" fill-rule="evenodd" clip-rule="evenodd" d="M93.9805 43.0758C93.9805 48.5188 98.3925 52.9308 103.835 52.9308C109.278 52.9308 113.691 48.5188 113.691 43.0758C113.691 37.6328 109.278 33.2208 103.835 33.2208C98.3925 33.2208 93.9805 37.6328 93.9805 43.0758" fill="#E0BFDB"/><path id="Fill 87" fill-rule="evenodd" clip-rule="evenodd" d="M117.109 43.0758C117.109 48.5188 121.522 52.9308 126.964 52.9308C132.408 52.9308 136.82 48.5188 136.82 43.0758C136.82 37.6328 132.408 33.2208 126.964 33.2208C121.522 33.2208 117.109 37.6328 117.109 43.0758" fill="#E0BFDB"/></g></g></g></g></g></g><g id="Master/Worms/Poh" transform="translate(196 194) scale(1.3289036544850499 1.3936507936507936)"><g id="Master/Worms/Poh"><g id="Body/Poh" transform="translate(92.457 113.4) scale(1 1)"><g id="Body/Poh/Orange"><g id="Group 11"><g id="Group 3"><path id="Fill 1" fill-rule="evenodd" clip-rule="evenodd" d="M118.501 81.3972C118.501 74.8332 115.578 68.9622 110.977 64.9782C115.578 60.9942 118.501 55.1232 118.501 48.5592C118.501 36.5592 108.773 26.8312 96.7728 26.8312C96.5588 26.8312 96.3508 26.8562 96.1378 26.8632C96.5368 25.2142 96.7728 23.5012 96.7728 21.7292C96.7728 9.72824 87.0448 0.000244141 75.0448 0.000244141C69.0788 0.000244141 63.6778 2.40824 59.7508 6.30024C55.8238 2.40824 50.4228 0.000244141 44.4568 0.000244141C32.4568 0.000244141 22.7288 9.72824 22.7288 21.7292C22.7288 23.5012 22.9638 25.2142 23.3638 26.8632C23.1508 26.8562 22.9428 26.8312 22.7288 26.8312C10.7288 26.8312 0.999756 36.5592 0.999756 48.5592C0.999756 55.1232 3.92376 60.9942 8.52376 64.9782C3.92376 68.9622 0.999756 74.8332 0.999756 81.3972C0.999756 87.9612 3.92376 93.8322 8.52376 97.8162C3.92376 101.8 0.999756 107.671 0.999756 114.235C0.999756 120.799 3.92376 126.669 8.52376 130.653C3.92376 134.638 0.999756 140.508 0.999756 147.072C0.999756 153.637 3.92376 159.507 8.52376 163.492C3.92376 167.476 0.999756 173.346 0.999756 179.91C0.999756 191.305 9.77576 200.634 20.9368 201.548L20.9338 201.639H96.7728C108.773 201.639 118.501 191.91 118.501 179.91C118.501 173.346 115.578 167.476 110.977 163.492C115.578 159.507 118.501 153.637 118.501 147.072C118.501 140.508 115.578 134.638 110.977 130.653C115.578 126.669 118.501 120.799 118.501 114.235C118.501 107.671 115.578 101.8 110.977 97.8162C115.578 93.8322 118.501 87.9612 118.501 81.3972" fill="#F06647"/></g><g id="Group 6"><path id="Fill 4" fill-rule="evenodd" clip-rule="evenodd" d="M2.119 88.2821L2.337 88.4791C4.639 90.6791 7.574 90.6791 9.876 88.4791L10.037 88.3251C12.354 86.1101 15.313 86.1261 17.62 88.3671C19.943 90.6231 22.924 90.6231 25.247 88.3671C27.554 86.1261 30.512 86.1101 32.83 88.3241L32.98 88.4691C35.282 90.6681 38.218 90.6681 40.519 88.4691L40.701 88.2951C43.003 86.0951 45.938 86.0951 48.24 88.2951L48.359 88.4091C50.661 90.6091 53.597 90.6091 55.898 88.4091L56.142 88.1761C58.444 85.9761 61.379 85.9761 63.682 88.1761L63.801 88.2901C66.102 90.4901 69.037 90.4901 71.34 88.2901L71.396 88.2361C73.698 86.0361 76.634 86.0361 78.935 88.2361L79.072 88.3661C81.374 90.5661 84.309 90.5661 86.611 88.3661L86.707 88.2761C89.009 86.0761 91.943 86.0761 94.246 88.2761L94.351 88.3771C96.654 90.5771 99.589 90.5771 101.89 88.3771L102.148 88.1321C104.45 85.9321 107.385 85.9321 109.687 88.1321L109.896 88.3321C112.198 90.5321 115.032 90.6261 117.334 88.4271C116.073 92.0991 113.852 95.3261 110.976 97.8161C115.578 101.8 118.501 107.671 118.501 114.235C118.501 120.8 115.578 126.67 110.976 130.654C115.578 134.638 118.501 140.509 118.501 147.073C118.501 153.637 115.578 159.507 110.976 163.492C115.578 167.476 118.501 173.346 118.501 179.91C118.501 191.91 108.773 201.639 96.773 201.639H20.933L20.936 201.549C9.776 200.635 1 191.305 1 179.91C1 173.346 3.924 167.476 8.524 163.492C3.924 159.507 1 153.637 1 147.073C1 140.509 3.924 134.638 8.524 130.654C3.924 126.67 1 120.8 1 114.235C1 107.671 3.924 101.8 8.524 97.8161C5.611 95.2931 3.371 92.0141 2.119 88.2821" fill="#DD4328"/></g><path id="Fill 7" fill-rule="evenodd" clip-rule="evenodd" d="M58.201 46.8196C58.201 56.5686 50.298 64.4716 40.549 64.4716C30.8 64.4716 22.896 56.5686 22.896 46.8196C22.896 37.0696 30.8 29.1676 40.549 29.1676C50.298 29.1676 58.201 37.0696 58.201 46.8196" fill="#CBD3D8"/><path id="Fill 9" fill-rule="evenodd" clip-rule="evenodd" d="M96.6053 46.8196C96.6053 56.5686 88.7023 64.4716 78.9533 64.4716C69.2033 64.4716 61.2993 56.5686 61.2993 46.8196C61.2993 37.0696 69.2033 29.1676 78.9533 29.1676C88.7023 29.1676 96.6053 37.0696 96.6053 46.8196" fill="#CBD3D8"/></g></g></g><g id="Eyes/Poh" transform="translate(131.918 153.017) scale(1 1)"><g id="Eyes/Poh/Open"><g id="Eyes"><path id="Fill 12" fill-rule="evenodd" clip-rule="evenodd" d="M10.7715 11.6831V11.6831C9.11548 11.6831 7.77148 10.3401 7.77148 8.6831V5.6781C7.77148 4.0211 9.11548 2.6781 10.7715 2.6781C12.4285 2.6781 13.7715 4.0211 13.7715 5.6781V8.6831C13.7715 10.3401 12.4285 11.6831 10.7715 11.6831" fill="#101335"/><path id="Fill 14" fill-rule="evenodd" clip-rule="evenodd" d="M29.7646 11.6831V11.6831C28.1086 11.6831 26.7656 10.3401 26.7656 8.6831V5.6781C26.7656 4.0211 28.1086 2.6781 29.7646 2.6781C31.4216 2.6781 32.7646 4.0211 32.7646 5.6781V8.6831C32.7646 10.3401 31.4216 11.6831 29.7646 11.6831" fill="#101335"/></g></g></g><g id="Mouth/Poh" transform="translate(131.904 166.433) scale(0.975609756097561 1)"><g id="Mouth/Poh/Laughing Teeth"><g id="Group 8"><g id="Group 3"><path id="Fill 1" fill-rule="evenodd" clip-rule="evenodd" d="M3.91797 3C3.91797 3 3.91797 19.013 20.94 19.013C38.778 19.013 38.778 3 38.778 3H3.91797Z" fill="#101335"/></g><path id="Fill 4" fill-rule="evenodd" clip-rule="evenodd" d="M16.2262 9.58491H15.4432C13.9282 9.58491 12.7012 8.35691 12.7012 6.84291V2.99991H18.9682V6.84291C18.9682 8.35691 17.7412 9.58491 16.2262 9.58491" fill="white"/><path id="Fill 6" fill-rule="evenodd" clip-rule="evenodd" d="M26.5729 9.58491H25.7889C24.2739 9.58491 23.0469 8.35691 23.0469 6.84291V2.99991H29.3139V6.84291C29.3139 8.35691 28.0869 9.58491 26.5729 9.58491" fill="white"/></g></g></g><g id="Hair/Poh" transform="translate(80.918 60.5) scale(1 1)"><g id="Hair/Poh/Santa Cap"><g id="Group 11"><path id="Fill 1" fill-rule="evenodd" clip-rule="evenodd" d="M34.6621 70.7272C34.6621 70.7272 35.6891 21.6562 89.6661 23.0282C143.638 24.4002 148.702 91.5702 148.702 91.5702H145.167C145.167 91.5702 133.079 55.7612 116.91 60.2772C108.494 62.6272 107.69 70.7272 107.69 70.7272H34.6621Z" fill="#D83E3D"/><path id="Fill 3" fill-rule="evenodd" clip-rule="evenodd" d="M158.854 102.45C158.854 109.18 153.398 114.636 146.667 114.636C139.938 114.636 134.482 109.18 134.482 102.45C134.482 95.7204 139.938 90.2644 146.667 90.2644C153.398 90.2644 158.854 95.7204 158.854 102.45" fill="white"/><g id="Group 7"><path id="Fill 5" fill-rule="evenodd" clip-rule="evenodd" d="M146.668 91.2643C140.5 91.2643 135.482 96.2823 135.482 102.45C135.482 108.618 140.5 113.636 146.668 113.636C152.836 113.636 157.855 108.618 157.855 102.45C157.855 96.2823 152.836 91.2643 146.668 91.2643M146.668 115.636C139.397 115.636 133.482 109.721 133.482 102.45C133.482 95.1793 139.397 89.2643 146.668 89.2643C153.939 89.2643 159.855 95.1793 159.855 102.45C159.855 109.721 153.939 115.636 146.668 115.636" fill="#ED6389"/></g><g id="Group 10"><path id="Fill 8" fill-rule="evenodd" clip-rule="evenodd" d="M34.6619 70.7272C34.6619 70.7272 31.8289 56.3572 40.1829 49.6422L118.838 59.9302C118.838 59.9302 116.779 67.4952 107.69 70.7272H34.6619Z" fill="#ED6389"/></g></g></g></g><g id="Clothes/Poh" transform="translate(92.918 199) scale(1 1)"><g id="Clothes/Poh/Orange Curls"><g id="Group 14"><g id="Group 3"><path id="Fill 1" fill-rule="evenodd" clip-rule="evenodd" d="M8.07478 12.2083L8.30578 12.4243C10.3508 14.3793 12.9598 14.3793 15.0048 12.4243L15.1468 12.2883C17.2068 10.3193 19.8348 10.3343 21.8848 12.3253C23.9478 14.3293 26.5958 14.3293 28.6608 12.3253C30.7108 10.3343 33.3388 10.3193 35.3968 12.2873L35.5308 12.4153C37.5768 14.3703 40.1838 14.3703 42.2288 12.4153L42.3898 12.2613C44.4358 10.3073 47.0438 10.3073 49.0888 12.2613L49.1948 12.3623C51.2398 14.3163 53.8468 14.3163 55.8918 12.3623L56.1088 12.1553C58.1538 10.2013 60.7628 10.2013 62.8068 12.1553L62.9128 12.2563C64.9588 14.2113 67.5658 14.2113 69.6108 12.2563L69.6618 12.2083C71.7068 10.2543 74.3138 10.2543 76.3598 12.2083L76.4808 12.3243C78.5258 14.2793 81.1348 14.2793 83.1798 12.3243L83.2628 12.2443C85.3088 10.2893 87.9168 10.2893 89.9618 12.2443L90.0558 12.3343C92.1008 14.2883 94.7088 14.2883 96.7538 12.3343L96.9818 12.1163C99.0278 10.1613 101.636 10.1613 103.68 12.1163L103.867 12.2933C105.912 14.2483 108.482 14.1633 110.527 12.2083C115.129 16.1923 118.052 22.0633 118.052 28.6273C118.052 35.1913 115.129 41.0623 110.527 45.0453C115.129 49.0303 118.052 54.9003 118.052 61.4643C118.052 68.0293 115.129 73.8993 110.527 77.8843C115.129 81.8683 118.052 87.7383 118.052 94.3023C118.052 106.302 108.323 116.031 96.3228 116.031H20.4828L20.4858 115.94C9.32678 115.026 0.550781 105.697 0.550781 94.3023C0.550781 87.7383 3.47278 81.8683 8.07478 77.8843C3.47278 73.8993 0.550781 68.0293 0.550781 61.4643C0.550781 54.9003 3.47278 49.0303 8.07478 45.0453C3.47278 41.0623 0.550781 35.1913 0.550781 28.6273C0.550781 22.0633 3.47278 16.1923 8.07478 12.2083" fill="#FFCC37"/></g><path id="Fill 4" fill-rule="evenodd" clip-rule="evenodd" d="M5.22325 30.4134L5.22425 30.4114L5.40525 30.1694L5.40325 30.1724C5.95925 29.4314 6.52025 28.9234 7.03525 28.6144C7.55125 28.3044 8.00825 28.1834 8.45225 28.1814C8.90125 28.1834 9.36625 28.3074 9.89025 28.6264C10.4123 28.9444 10.9823 29.4674 11.5453 30.2284C12.2853 31.2314 13.1133 32.0334 14.0343 32.5974C14.9523 33.1624 15.9773 33.4794 17.0183 33.4774C18.0573 33.4794 19.0823 33.1624 20.0003 32.5974C20.9223 32.0334 21.7493 31.2314 22.4913 30.2284C23.0533 29.4664 23.6223 28.9444 24.1443 28.6264C24.6683 28.3074 25.1323 28.1834 25.5823 28.1814C26.0263 28.1834 26.4833 28.3044 26.9993 28.6144C27.5143 28.9234 28.0763 29.4314 28.6323 30.1724L28.8013 30.3964C29.5373 31.3774 30.3583 32.1604 31.2703 32.7114C32.1783 33.2634 33.1923 33.5724 34.2183 33.5704C35.2443 33.5724 36.2583 33.2634 37.1663 32.7114C38.0783 32.1604 38.8993 31.3774 39.6353 30.3964L39.6333 30.3994L39.8383 30.1284L39.8403 30.1254C40.3963 29.3854 40.9573 28.8774 41.4713 28.5684C41.9883 28.2584 42.4453 28.1374 42.8893 28.1364C43.3323 28.1374 43.7893 28.2584 44.3073 28.5684C44.8213 28.8774 45.3813 29.3854 45.9383 30.1254L46.0723 30.3044C46.8083 31.2844 47.6283 32.0674 48.5403 32.6194C49.4503 33.1694 50.4623 33.4794 51.4893 33.4774C52.5163 33.4794 53.5293 33.1694 54.4383 32.6194C55.3503 32.0674 56.1693 31.2844 56.9073 30.3044L57.1803 29.9404C57.7363 29.1984 58.2973 28.6904 58.8113 28.3814C59.3283 28.0724 59.7863 27.9514 60.2293 27.9494C60.6723 27.9514 61.1293 28.0724 61.6473 28.3814C62.1613 28.6904 62.7223 29.1984 63.2783 29.9394L63.4123 30.1184C64.1493 31.0984 64.9693 31.8814 65.8813 32.4334C66.7893 32.9834 67.8033 33.2924 68.8293 33.2914C69.8563 33.2924 70.8693 32.9834 71.7783 32.4334C72.6893 31.8814 73.5093 31.0984 74.2463 30.1184L74.3113 30.0334C74.8683 29.2914 75.4283 28.7844 75.9423 28.4754C76.4593 28.1654 76.9163 28.0444 77.3603 28.0424C77.8043 28.0444 78.2613 28.1654 78.7783 28.4754C79.2923 28.7844 79.8543 29.2914 80.4093 30.0324L80.5633 30.2374C81.3003 31.2184 82.1193 32.0004 83.0323 32.5524C83.9403 33.1034 84.9533 33.4124 85.9803 33.4114C87.0063 33.4124 88.0193 33.1034 88.9283 32.5524C89.8403 32.0014 90.6613 31.2184 91.3983 30.2384L91.5063 30.0944C92.0613 29.3544 92.6213 28.8464 93.1363 28.5374C93.6533 28.2274 94.1103 28.1064 94.5543 28.1044C94.9983 28.1064 95.4543 28.2274 95.9723 28.5374C96.4863 28.8464 97.0473 29.3544 97.6033 30.0954L97.7233 30.2544C98.4593 31.2344 99.2803 32.0174 100.192 32.5684C101.1 33.1194 102.114 33.4294 103.14 33.4274C104.166 33.4294 105.18 33.1194 106.088 32.5684C107 32.0174 107.821 31.2344 108.557 30.2544L108.846 29.8684C109.401 29.1284 109.963 28.6214 110.477 28.3114C110.994 28.0024 111.452 27.8814 111.895 27.8794C112.338 27.8814 112.795 28.0024 113.312 28.3114C113.826 28.6214 114.387 29.1284 114.944 29.8704L115.181 30.1844L115.18 30.1824C115.916 31.1634 116.737 31.9464 117.649 32.4974C117.663 32.5064 117.68 32.5134 117.696 32.5224C117.904 31.3754 118.021 30.1974 118.041 28.9954C117.877 28.8154 117.712 28.6234 117.547 28.4044L117.546 28.4024L117.311 28.0884C116.575 27.1104 115.754 26.3274 114.842 25.7764C113.934 25.2254 112.92 24.9154 111.895 24.9174C110.868 24.9154 109.855 25.2254 108.946 25.7754C108.034 26.3274 107.214 27.1104 106.477 28.0904L106.188 28.4764C105.633 29.2164 105.072 29.7234 104.558 30.0334C104.04 30.3424 103.583 30.4634 103.14 30.4654C102.696 30.4634 102.239 30.3424 101.721 30.0334C101.207 29.7244 100.647 29.2164 100.09 28.4754L99.9713 28.3154C99.2353 27.3364 98.4143 26.5534 97.5023 26.0014C96.5943 25.4504 95.5803 25.1414 94.5543 25.1434C93.5283 25.1414 92.5143 25.4504 91.6063 26.0014C90.6943 26.5534 89.8733 27.3354 89.1373 28.3164L89.0303 28.4594C88.4743 29.1994 87.9113 29.7074 87.3983 30.0164C86.8803 30.3264 86.4233 30.4474 85.9803 30.4494C85.5363 30.4474 85.0793 30.3264 84.5633 30.0174C84.0493 29.7074 83.4883 29.2004 82.9323 28.4594L82.7783 28.2534C82.0413 27.2734 81.2213 26.4904 80.3093 25.9384C79.4013 25.3884 78.3873 25.0794 77.3603 25.0804C76.3333 25.0794 75.3213 25.3884 74.4113 25.9384C73.4993 26.4904 72.6803 27.2734 71.9433 28.2534L71.8793 28.3384C71.3233 29.0804 70.7603 29.5874 70.2463 29.8964C69.7303 30.2064 69.2733 30.3274 68.8293 30.3294C68.3863 30.3274 67.9293 30.2064 67.4113 29.8964C66.8983 29.5874 66.3363 29.0804 65.7813 28.3394L65.6473 28.1614C64.9103 27.1804 64.0903 26.3974 63.1783 25.8464C62.2693 25.2944 61.2563 24.9854 60.2293 24.9874C59.2023 24.9854 58.1903 25.2944 57.2813 25.8464C56.3693 26.3974 55.5483 27.1804 54.8123 28.1614L54.5373 28.5254C53.9833 29.2664 53.4203 29.7734 52.9073 30.0834C52.3893 30.3924 51.9333 30.5134 51.4893 30.5154C51.0453 30.5134 50.5883 30.3924 50.0713 30.0834C49.5573 29.7734 48.9963 29.2664 48.4403 28.5254L48.3063 28.3474C47.5693 27.3674 46.7493 26.5834 45.8373 26.0324C44.9283 25.4814 43.9153 25.1724 42.8893 25.1744C41.8623 25.1724 40.8493 25.4814 39.9403 26.0324C39.0283 26.5834 38.2073 27.3674 37.4713 28.3474L37.4733 28.3444L37.2693 28.6154L37.2673 28.6184C36.7113 29.3594 36.1503 29.8674 35.6363 30.1764C35.1193 30.4864 34.6623 30.6064 34.2183 30.6084C33.7743 30.6064 33.3173 30.4864 32.8003 30.1764C32.2853 29.8674 31.7253 29.3594 31.1693 28.6184L31.0003 28.3934C30.2623 27.4124 29.4423 26.6294 28.5303 26.0784C27.6213 25.5274 26.6083 25.2184 25.5823 25.2204C24.5413 25.2184 23.5163 25.5354 22.5983 26.0994C21.6763 26.6644 20.8503 27.4654 20.1093 28.4684C19.5463 29.2304 18.9773 29.7524 18.4553 30.0714C17.9303 30.3894 17.4673 30.5134 17.0183 30.5154C16.5693 30.5134 16.1053 30.3894 15.5793 30.0714C15.0583 29.7524 14.4893 29.2304 13.9263 28.4684C13.1843 27.4654 12.3573 26.6634 11.4363 26.0994C10.5183 25.5354 9.49325 25.2184 8.45225 25.2204C7.42625 25.2184 6.41225 25.5274 5.50425 26.0784C4.59225 26.6294 3.77225 27.4134 3.03525 28.3934L3.03425 28.3954L2.85325 28.6364L2.85425 28.6344C2.29825 29.3754 1.73725 29.8834 1.22325 30.1924C1.01825 30.3154 0.825254 30.4014 0.635254 30.4684C0.720254 31.4724 0.866254 32.4584 1.08225 33.4184C1.66225 33.2744 2.22725 33.0484 2.75325 32.7284C3.66525 32.1774 4.48625 31.3934 5.22325 30.4134" fill="#F9A471"/><path id="Fill 6" fill-rule="evenodd" clip-rule="evenodd" d="M8.45256 45.7469C8.90056 45.7489 9.36456 45.8729 9.88956 46.1919C10.4116 46.5099 10.9816 47.0329 11.5446 47.7949C12.2856 48.7979 13.1126 49.5989 14.0336 50.1639C14.9516 50.7269 15.9776 51.0439 17.0176 51.0419C18.0566 51.0439 19.0826 50.7269 20.0006 50.1629C20.9226 49.5989 21.7486 48.7979 22.4906 47.7939L22.5006 47.7819C23.0586 47.0269 23.6256 46.5079 24.1436 46.1909C24.6686 45.8719 25.1326 45.7479 25.5826 45.7469C26.0256 45.7479 26.4826 45.8699 26.9996 46.1789C27.5146 46.4879 28.0756 46.9959 28.6326 47.7379L28.6306 47.7349L28.7996 47.9599L28.8016 47.9629C29.5376 48.9429 30.3576 49.7259 31.2696 50.2779C32.1786 50.8289 33.1916 51.1379 34.2186 51.1359C35.2446 51.1379 36.2586 50.8289 37.1666 50.2779C38.0786 49.7259 38.8986 48.9429 39.6356 47.9629L39.8396 47.6909C40.3956 46.9499 40.9576 46.4419 41.4716 46.1329C41.9876 45.8239 42.4446 45.7029 42.8896 45.7009C43.3326 45.7029 43.7896 45.8239 44.3066 46.1329C44.8206 46.4419 45.3816 46.9499 45.9376 47.6909L46.0716 47.8699C46.8076 48.8499 47.6286 49.6329 48.5406 50.1839C49.4496 50.7349 50.4626 51.0439 51.4886 51.0419C52.5156 51.0439 53.5286 50.7349 54.4376 50.1839C55.3496 49.6329 56.1696 48.8499 56.9066 47.8699L57.1806 47.5049C57.7356 46.7639 58.2976 46.2559 58.8106 45.9469C59.3286 45.6379 59.7856 45.5169 60.2286 45.5149C60.6726 45.5169 61.1296 45.6379 61.6466 45.9469C62.1606 46.2559 62.7226 46.7639 63.2776 47.5049L63.4126 47.6839C64.1486 48.6639 64.9696 49.4469 65.8816 49.9979C66.7896 50.5489 67.8036 50.8579 68.8296 50.8559C69.8556 50.8579 70.8686 50.5489 71.7776 49.9979C72.6886 49.4469 73.5096 48.6639 74.2466 47.6839L74.3106 47.5989C74.8676 46.8559 75.4286 46.3489 75.9416 46.0399C76.4596 45.7299 76.9166 45.6089 77.3596 45.6069C77.8046 45.6089 78.2616 45.7299 78.7776 46.0399C79.2926 46.3489 79.8536 46.8559 80.4086 47.5969L80.5626 47.8029C81.3006 48.7829 82.1196 49.5659 83.0316 50.1179C83.9396 50.6679 84.9536 50.9769 85.9796 50.9759C87.0066 50.9769 88.0186 50.6679 88.9286 50.1179C89.8406 49.5659 90.6606 48.7829 91.3976 47.8039L91.5066 47.6589C92.0606 46.9189 92.6216 46.4119 93.1366 46.1019C93.6526 45.7929 94.1096 45.6719 94.5546 45.6699C94.9986 45.6719 95.4546 45.7929 95.9726 46.1019C96.4856 46.4119 97.0476 46.9189 97.6026 47.6599L97.7236 47.8199C98.4596 48.7989 99.2796 49.5819 100.192 50.1339C101.1 50.6849 102.114 50.9939 103.141 50.9919C104.167 50.9939 105.181 50.6849 106.089 50.1339C107.001 49.5819 107.821 48.7989 108.558 47.8189L108.847 47.4329C109.401 46.6939 109.964 46.1859 110.477 45.8769C110.7 45.7439 110.91 45.6509 111.114 45.5819C110.921 45.4009 110.727 45.2199 110.527 45.0459C111.394 44.2949 112.201 43.4769 112.94 42.6009C112.596 42.5309 112.247 42.4819 111.895 42.4829C110.868 42.4809 109.855 42.7899 108.946 43.3409C108.034 43.8929 107.215 44.6749 106.477 45.6559L106.188 46.0419C105.634 46.7809 105.072 47.2889 104.558 47.5979C104.041 47.9079 103.584 48.0289 103.141 48.0309C102.696 48.0289 102.239 47.9079 101.722 47.5979C101.208 47.2889 100.647 46.7809 100.091 46.0399L99.9716 45.8809C99.2346 44.9009 98.4146 44.1179 97.5026 43.5669C96.5946 43.0159 95.5806 42.7059 94.5546 42.7079C93.5276 42.7059 92.5146 43.0159 91.6056 43.5659C90.6936 44.1179 89.8736 44.9009 89.1376 45.8809L89.0296 46.0249C88.4736 46.7649 87.9116 47.2719 87.3976 47.5809C86.8806 47.8909 86.4236 48.0119 85.9796 48.0139C85.5366 48.0119 85.0796 47.8909 84.5626 47.5819C84.0496 47.2729 83.4876 46.7649 82.9326 46.0239L82.7776 45.8189C82.0416 44.8379 81.2216 44.0559 80.3086 43.5039C79.4006 42.9529 78.3876 42.6439 77.3596 42.6449C76.3336 42.6439 75.3206 42.9529 74.4116 43.5039C73.4996 44.0549 72.6806 44.8379 71.9426 45.8189L71.8796 45.9029C71.3226 46.6449 70.7606 47.1529 70.2466 47.4619C69.7296 47.7719 69.2726 47.8929 68.8296 47.8939C68.3866 47.8929 67.9296 47.7719 67.4116 47.4619C66.8976 47.1529 66.3366 46.6449 65.7806 45.9039L65.6466 45.7259C64.9096 44.7459 64.0906 43.9629 63.1786 43.4119C62.2686 42.8609 61.2566 42.5509 60.2286 42.5529C59.2026 42.5509 58.1896 42.8599 57.2806 43.4119C56.3686 43.9629 55.5486 44.7459 54.8116 45.7259L54.5376 46.0899C53.9826 46.8309 53.4206 47.3389 52.9066 47.6479C52.3896 47.9579 51.9326 48.0789 51.4886 48.0799C51.0456 48.0789 50.5886 47.9579 50.0706 47.6479C49.5566 47.3389 48.9966 46.8309 48.4396 46.0909L48.3066 45.9119C47.5686 44.9319 46.7496 44.1489 45.8376 43.5979C44.9286 43.0469 43.9156 42.7369 42.8896 42.7389C41.8616 42.7369 40.8486 43.0459 39.9396 43.5979C39.0276 44.1489 38.2076 44.9319 37.4716 45.9129L37.2676 46.1839C36.7116 46.9249 36.1496 47.4329 35.6366 47.7419C35.1186 48.0509 34.6626 48.1719 34.2186 48.1739C33.7736 48.1719 33.3166 48.0509 32.8006 47.7419C32.2856 47.4329 31.7246 46.9249 31.1696 46.1839L31.1716 46.1859L31.0026 45.9609L31.0006 45.9579C30.2626 44.9769 29.4416 44.1939 28.5296 43.6429C27.6216 43.0919 26.6076 42.7829 25.5826 42.7849C24.5416 42.7829 23.5156 43.1009 22.5986 43.6649C21.6766 44.2289 20.8496 45.0309 20.1086 46.0329L20.0996 46.0459C19.5406 46.8009 18.9736 47.3199 18.4556 47.6369C17.9306 47.9549 17.4676 48.0789 17.0176 48.0809C16.5676 48.0789 16.1046 47.9549 15.5796 47.6369C15.0576 47.3189 14.4886 46.7959 13.9266 46.0339C13.1836 45.0309 12.3566 44.2299 11.4356 43.6649C10.5176 43.1009 9.49256 42.7839 8.45256 42.7849C7.69756 42.7839 6.95156 42.9539 6.24756 43.2609C6.82256 43.8889 7.43056 44.4879 8.07456 45.0459C7.49456 45.5479 6.94156 46.0799 6.41756 46.6399C6.62756 46.4579 6.83556 46.2989 7.03456 46.1799C7.55156 45.8699 8.00856 45.7489 8.45256 45.7469" fill="#F9A471"/><path id="Fill 8" fill-rule="evenodd" clip-rule="evenodd" d="M5.22222 65.5437L5.40322 65.3027C5.95922 64.5617 6.52022 64.0537 7.03422 63.7447C7.55122 63.4347 8.00822 63.3147 8.45122 63.3127C8.90122 63.3147 9.36522 63.4387 9.88922 63.7567C10.4112 64.0747 10.9822 64.5977 11.5452 65.3597C12.2852 66.3627 13.1132 67.1637 14.0342 67.7287C14.9512 68.2927 15.9772 68.6097 17.0182 68.6077C18.0572 68.6097 19.0822 68.2927 20.0002 67.7287C20.9222 67.1637 21.7492 66.3627 22.4912 65.3587C23.0532 64.5977 23.6222 64.0747 24.1452 63.7567C24.6692 63.4377 25.1332 63.3137 25.5822 63.3117C26.0262 63.3137 26.4832 63.4347 26.9992 63.7437C27.5142 64.0537 28.0762 64.5617 28.6322 65.3027L28.6302 65.2997L28.7992 65.5247L28.8012 65.5277C29.5372 66.5077 30.3582 67.2907 31.2702 67.8427C32.1782 68.3937 33.1922 68.7027 34.2182 68.7007C35.2442 68.7027 36.2582 68.3937 37.1662 67.8427C38.0782 67.2907 38.8992 66.5077 39.6352 65.5277L39.8392 65.2557C40.3962 64.5147 40.9572 64.0077 41.4712 63.6977C41.9882 63.3887 42.4452 63.2677 42.8892 63.2657C43.3322 63.2677 43.7892 63.3887 44.3072 63.6977C44.8212 64.0077 45.3812 64.5147 45.9382 65.2557L46.0722 65.4347C46.8082 66.4147 47.6282 67.1977 48.5402 67.7497C49.4502 68.3007 50.4622 68.6097 51.4892 68.6077C52.5162 68.6097 53.5292 68.3007 54.4382 67.7497C55.3502 67.1977 56.1702 66.4147 56.9072 65.4337L57.1802 65.0697C57.7362 64.3287 58.2972 63.8207 58.8112 63.5117C59.3282 63.2027 59.7852 63.0817 60.2292 63.0797C60.6722 63.0817 61.1292 63.2027 61.6472 63.5117C62.1602 63.8207 62.7222 64.3287 63.2782 65.0697L63.4122 65.2487C64.1492 66.2287 64.9692 67.0117 65.8812 67.5627C66.7892 68.1137 67.8032 68.4227 68.8292 68.4207C69.8562 68.4227 70.8682 68.1137 71.7782 67.5627C72.6892 67.0117 73.5092 66.2287 74.2462 65.2487L74.3052 65.1707L74.3112 65.1637C74.8682 64.4227 75.4282 63.9147 75.9422 63.6057C76.4592 63.2957 76.9162 63.1747 77.3602 63.1727C77.8042 63.1747 78.2612 63.2957 78.7782 63.6057C79.2922 63.9147 79.8542 64.4227 80.4092 65.1637L80.4102 65.1657L80.5652 65.3707L80.5632 65.3677C81.3002 66.3477 82.1192 67.1307 83.0322 67.6827C83.9402 68.2327 84.9532 68.5427 85.9802 68.5407C87.0062 68.5427 88.0192 68.2327 88.9282 67.6827C89.8402 67.1307 90.6602 66.3487 91.3982 65.3687L91.5062 65.2237C92.0612 64.4837 92.6212 63.9767 93.1362 63.6677C93.6532 63.3577 94.1102 63.2367 94.5542 63.2347C94.9982 63.2367 95.4542 63.3577 95.9722 63.6677C96.4862 63.9767 97.0472 64.4837 97.6032 65.2247L97.7232 65.3847C98.4592 66.3647 99.2802 67.1477 100.192 67.6987C101.1 68.2507 102.114 68.5597 103.14 68.5577C104.166 68.5597 105.18 68.2507 106.088 67.6987C107 67.1477 107.821 66.3647 108.557 65.3837L108.846 65.0007C109.401 64.2587 109.963 63.7517 110.477 63.4417C110.994 63.1327 111.452 63.0117 111.895 63.0097C112.338 63.0117 112.795 63.1317 113.312 63.4417C113.826 63.7517 114.387 64.2597 114.944 65.0007L114.945 65.0017L115.181 65.3157L115.18 65.3137C115.803 66.1437 116.492 66.8227 117.241 67.3497C117.548 66.2567 117.772 65.1287 117.905 63.9737C117.785 63.8357 117.666 63.6937 117.547 63.5347L117.546 63.5327L117.311 63.2197L117.312 63.2217C116.575 62.2407 115.754 61.4577 114.842 60.9067C113.934 60.3557 112.92 60.0457 111.895 60.0477C110.868 60.0457 109.855 60.3557 108.946 60.9067C108.034 61.4577 107.214 62.2407 106.477 63.2217L106.189 63.6057C105.633 64.3467 105.072 64.8547 104.558 65.1637C104.04 65.4737 103.583 65.5937 103.14 65.5957C102.696 65.5937 102.239 65.4737 101.721 65.1637C101.207 64.8547 100.647 64.3467 100.09 63.6057L99.9712 63.4457C99.2352 62.4657 98.4142 61.6827 97.5022 61.1317C96.5942 60.5807 95.5802 60.2717 94.5542 60.2727C93.5282 60.2717 92.5142 60.5807 91.6062 61.1317C90.6942 61.6827 89.8732 62.4657 89.1372 63.4467L89.0302 63.5897C88.4742 64.3297 87.9112 64.8367 87.3982 65.1467C86.8802 65.4567 86.4232 65.5767 85.9802 65.5787C85.5362 65.5767 85.0792 65.4567 84.5632 65.1467C84.0492 64.8377 83.4882 64.3297 82.9322 63.5887L82.9302 63.5857L82.7762 63.3817L82.7782 63.3847C82.0412 62.4047 81.2212 61.6217 80.3092 61.0697C79.4012 60.5187 78.3872 60.2097 77.3602 60.2117C76.3332 60.2097 75.3212 60.5187 74.4112 61.0697C73.4992 61.6207 72.6802 62.4037 71.9432 63.3847L71.8832 63.4637L71.8842 63.4617L71.8792 63.4687C71.3232 64.2097 70.7602 64.7177 70.2462 65.0267C69.7302 65.3367 69.2732 65.4577 68.8292 65.4597C68.3862 65.4577 67.9292 65.3367 67.4112 65.0267C66.8982 64.7177 66.3362 64.2097 65.7812 63.4687L65.6472 63.2907C64.9102 62.3107 64.0902 61.5277 63.1782 60.9767C62.2692 60.4257 61.2562 60.1157 60.2292 60.1177C59.2022 60.1157 58.1902 60.4247 57.2812 60.9767C56.3682 61.5277 55.5482 62.3107 54.8122 63.2917L54.5372 63.6547C53.9822 64.3967 53.4202 64.9047 52.9072 65.2137C52.3892 65.5227 51.9332 65.6447 51.4892 65.6467C51.0452 65.6447 50.5882 65.5227 50.0712 65.2137C49.5572 64.9047 48.9962 64.3967 48.4402 63.6557L48.3062 63.4767C47.5692 62.4967 46.7492 61.7137 45.8372 61.1627C44.9282 60.6117 43.9152 60.3017 42.8892 60.3037C41.8622 60.3017 40.8492 60.6117 39.9402 61.1627C39.0282 61.7137 38.2072 62.4967 37.4712 63.4777L37.2682 63.7487C36.7112 64.4897 36.1502 64.9977 35.6362 65.3067C35.1182 65.6157 34.6622 65.7367 34.2182 65.7387C33.7742 65.7367 33.3172 65.6157 32.8002 65.3067C32.2852 64.9977 31.7252 64.4897 31.1692 63.7497L31.1712 63.7517L31.0022 63.5257L31.0002 63.5227C30.2622 62.5427 29.4422 61.7587 28.5302 61.2087C27.6212 60.6577 26.6082 60.3487 25.5822 60.3497C24.5412 60.3487 23.5162 60.6657 22.5982 61.2307C21.6772 61.7947 20.8502 62.5957 20.1082 63.5997C19.5462 64.3607 18.9772 64.8837 18.4552 65.2017C17.9302 65.5207 17.4672 65.6447 17.0182 65.6467C16.5692 65.6447 16.1052 65.5207 15.5792 65.2017C15.0582 64.8837 14.4892 64.3607 13.9262 63.5997C13.1842 62.5957 12.3562 61.7947 11.4362 61.2307C10.5182 60.6667 9.49322 60.3487 8.45122 60.3507C7.42522 60.3487 6.41222 60.6577 5.50422 61.2087C4.59222 61.7607 3.77222 62.5437 3.03422 63.5247L2.85422 63.7647C2.29822 64.5047 1.73522 65.0137 1.22122 65.3227C1.12022 65.3827 1.02522 65.4297 0.928223 65.4757C1.11422 66.4627 1.36222 67.4277 1.67622 68.3637C2.04522 68.2287 2.40722 68.0667 2.75022 67.8587C3.66222 67.3077 4.48422 66.5247 5.22222 65.5437" fill="#F9A471"/><path id="Fill 10" fill-rule="evenodd" clip-rule="evenodd" d="M5.22214 83.1087L5.40314 82.8677C5.95914 82.1267 6.52014 81.6187 7.03414 81.3097C7.55114 80.9997 8.00814 80.8787 8.45214 80.8767C8.90114 80.8787 9.36514 81.0027 9.88914 81.3217C10.4111 81.6397 10.9821 82.1627 11.5441 82.9247C12.2851 83.9277 13.1131 84.7287 14.0341 85.2937C14.9511 85.8577 15.9781 86.1737 17.0181 86.1727C18.0571 86.1737 19.0821 85.8577 20.0001 85.2937C20.9221 84.7287 21.7481 83.9277 22.4911 82.9247L22.5001 82.9117C23.0591 82.1567 23.6251 81.6377 24.1441 81.3207C24.6681 81.0027 25.1321 80.8787 25.5821 80.8767C26.0261 80.8787 26.4831 80.9997 26.9991 81.3087C27.5141 81.6177 28.0761 82.1267 28.6321 82.8677L28.6301 82.8647L28.7991 83.0897L28.8011 83.0927C29.5371 84.0727 30.3581 84.8567 31.2701 85.4077C32.1781 85.9587 33.1921 86.2677 34.2181 86.2657C35.2441 86.2677 36.2581 85.9587 37.1661 85.4077C38.0781 84.8567 38.8991 84.0727 39.6351 83.0927L39.8391 82.8207C40.3961 82.0797 40.9571 81.5727 41.4711 81.2637C41.9881 80.9537 42.4451 80.8327 42.8891 80.8307C43.3321 80.8327 43.7891 80.9537 44.3071 81.2637C44.8211 81.5727 45.3811 82.0797 45.9381 82.8207L46.0721 82.9997C46.8081 83.9797 47.6281 84.7627 48.5401 85.3137C49.4501 85.8647 50.4621 86.1737 51.4891 86.1717C52.5161 86.1737 53.5291 85.8647 54.4381 85.3137C55.3501 84.7627 56.1691 83.9797 56.9071 82.9997L57.1801 82.6347C57.7361 81.8937 58.2971 81.3867 58.8111 81.0767C59.3281 80.7677 59.7851 80.6467 60.2291 80.6447C60.6721 80.6467 61.1291 80.7677 61.6471 81.0767C62.1601 81.3867 62.7221 81.8937 63.2781 82.6347L63.4121 82.8137C64.1491 83.7937 64.9691 84.5767 65.8811 85.1277C66.7891 85.6787 67.8031 85.9877 68.8291 85.9857C69.8561 85.9877 70.8681 85.6787 71.7781 85.1277C72.6891 84.5767 73.5091 83.7937 74.2461 82.8137L74.3111 82.7287C74.8681 81.9867 75.4281 81.4787 75.9421 81.1697C76.4591 80.8597 76.9161 80.7387 77.3601 80.7367C77.8041 80.7387 78.2611 80.8597 78.7781 81.1697C79.2921 81.4787 79.8541 81.9867 80.4091 82.7277L80.5631 82.9327C81.3001 83.9127 82.1191 84.6957 83.0321 85.2477C83.9401 85.7977 84.9531 86.1077 85.9801 86.1057C87.0061 86.1077 88.0191 85.7977 88.9281 85.2477C89.8401 84.6957 90.6601 83.9137 91.3981 82.9337L91.5061 82.7897C92.0611 82.0487 92.6211 81.5417 93.1361 81.2327C93.6531 80.9227 94.1101 80.8017 94.5541 80.7997C94.9981 80.8017 95.4541 80.9227 95.9721 81.2327C96.4861 81.5417 97.0471 82.0487 97.6031 82.7897L97.7231 82.9497C98.4591 83.9297 99.2801 84.7127 100.192 85.2637C101.1 85.8147 102.114 86.1237 103.14 86.1227C104.166 86.1237 105.18 85.8147 106.088 85.2637C107 84.7127 107.821 83.9297 108.557 82.9487L108.846 82.5637C109.401 81.8237 109.963 81.3157 110.477 81.0067C110.993 80.6967 111.452 80.5757 111.895 80.5747C112.338 80.5757 112.795 80.6967 113.312 81.0067C113.433 81.0797 113.557 81.1657 113.682 81.2607C112.751 80.0267 111.694 78.8947 110.527 77.8837C110.567 77.8487 110.606 77.8107 110.646 77.7757C110.056 77.9177 109.482 78.1467 108.946 78.4707C108.034 79.0227 107.214 79.8047 106.477 80.7857L106.188 81.1717C105.633 81.9107 105.072 82.4187 104.558 82.7277C104.04 83.0377 103.583 83.1587 103.14 83.1607C102.696 83.1587 102.239 83.0377 101.721 82.7277C101.207 82.4187 100.647 81.9107 100.09 81.1707L99.9711 81.0107C99.2351 80.0307 98.4141 79.2477 97.5021 78.6967C96.5941 78.1457 95.5801 77.8367 94.5541 77.8377C93.5281 77.8367 92.5141 78.1457 91.6061 78.6967C90.6941 79.2477 89.8731 80.0307 89.1371 81.0117L89.0301 81.1547C88.4741 81.8947 87.9111 82.4017 87.3981 82.7117C86.8801 83.0217 86.4231 83.1427 85.9801 83.1437C85.5361 83.1427 85.0791 83.0217 84.5631 82.7117C84.0491 82.4027 83.4881 81.8947 82.9321 81.1537L82.7781 80.9487C82.0411 79.9687 81.2211 79.1857 80.3091 78.6337C79.4011 78.0827 78.3871 77.7737 77.3601 77.7757C76.3331 77.7737 75.3211 78.0827 74.4111 78.6337C73.4991 79.1857 72.6801 79.9677 71.9431 80.9487L71.8791 81.0327C71.3231 81.7747 70.7601 82.2827 70.2461 82.5917C69.7301 82.9017 69.2731 83.0227 68.8291 83.0247C68.3861 83.0227 67.9291 82.9017 67.4111 82.5917C66.8981 82.2827 66.3361 81.7757 65.7811 81.0347L65.6471 80.8557C64.9101 79.8757 64.0901 79.0927 63.1781 78.5417C62.2691 77.9907 61.2561 77.6807 60.2291 77.6827C59.2021 77.6807 58.1901 77.9907 57.2811 78.5417C56.3681 79.0927 55.5481 79.8757 54.8121 80.8567L54.5371 81.2197C53.9831 81.9617 53.4201 82.4687 52.9071 82.7777C52.3891 83.0877 51.9331 83.2087 51.4891 83.2107C51.0451 83.2087 50.5881 83.0877 50.0711 82.7777C49.5571 82.4687 48.9961 81.9617 48.4401 81.2207L48.3061 81.0417C47.5691 80.0617 46.7491 79.2787 45.8371 78.7277C44.9281 78.1767 43.9151 77.8677 42.8891 77.8687C41.8621 77.8677 40.8491 78.1767 39.9401 78.7277C39.0281 79.2787 38.2071 80.0617 37.4711 81.0427L37.2681 81.3137C36.7111 82.0547 36.1501 82.5627 35.6361 82.8717C35.1181 83.1817 34.6621 83.3017 34.2181 83.3037C33.7741 83.3017 33.3171 83.1817 32.8001 82.8717C32.2851 82.5627 31.7251 82.0547 31.1691 81.3147L31.1711 81.3167L31.0021 81.0907L31.0001 81.0877C30.2621 80.1077 29.4421 79.3237 28.5301 78.7727C27.6211 78.2217 26.6081 77.9127 25.5821 77.9147C24.5411 77.9127 23.5161 78.2307 22.5981 78.7947C21.6761 79.3587 20.8501 80.1607 20.1091 81.1637L20.1001 81.1757C19.5401 81.9307 18.9741 82.4497 18.4551 82.7667C17.9301 83.0847 17.4671 83.2087 17.0181 83.2107C16.5681 83.2087 16.1051 83.0847 15.5791 82.7667C15.0581 82.4487 14.4891 81.9257 13.9261 81.1647C13.1841 80.1607 12.3571 79.3597 11.4361 78.7957C10.5181 78.2307 9.49314 77.9137 8.45214 77.9157C8.30214 77.9147 8.15414 77.9347 8.00414 77.9477C5.60214 80.0457 3.66614 82.6637 2.36914 85.6237C2.49614 85.5577 2.62614 85.4987 2.75014 85.4237C3.66214 84.8727 4.48414 84.0897 5.22214 83.1087" fill="#F9A471"/><path id="Fill 12" fill-rule="evenodd" clip-rule="evenodd" d="M5.22232 100.674L5.40332 100.433C5.95932 99.692 6.52032 99.184 7.03432 98.875C7.55132 98.565 8.00832 98.444 8.45132 98.442C8.90132 98.444 9.36532 98.568 9.88932 98.887C10.4113 99.205 10.9823 99.728 11.5453 100.49C12.2853 101.492 13.1133 102.294 14.0343 102.859C14.9513 103.423 15.9773 103.74 17.0183 103.738C18.0573 103.74 19.0823 103.423 20.0003 102.859C20.9223 102.294 21.7493 101.492 22.4913 100.489C23.0533 99.727 23.6223 99.205 24.1453 98.886C24.6693 98.568 25.1333 98.444 25.5823 98.442C26.0263 98.444 26.4833 98.565 26.9993 98.874C27.5143 99.183 28.0763 99.691 28.6323 100.432L28.6303 100.429L28.7993 100.655L28.8013 100.657C29.5373 101.638 30.3583 102.421 31.2703 102.972C32.1783 103.523 33.1923 103.833 34.2183 103.831C35.2443 103.833 36.2583 103.523 37.1663 102.972C38.0783 102.421 38.8993 101.638 39.6353 100.657L39.8393 100.386C40.3963 99.645 40.9573 99.137 41.4713 98.828C41.9883 98.519 42.4453 98.398 42.8893 98.396C43.3323 98.398 43.7893 98.519 44.3073 98.828C44.8213 99.137 45.3813 99.645 45.9383 100.385L46.0723 100.564C46.8083 101.545 47.6283 102.328 48.5403 102.879C49.4503 103.43 50.4623 103.739 51.4893 103.738C52.5163 103.739 53.5293 103.43 54.4383 102.879C55.3503 102.328 56.1703 101.545 56.9073 100.564L57.1803 100.2C57.7363 99.459 58.2973 98.951 58.8113 98.642C59.3283 98.332 59.7853 98.212 60.2293 98.21C60.6723 98.212 61.1293 98.332 61.6473 98.642C62.1603 98.951 62.7223 99.459 63.2783 100.199L63.4123 100.378C64.1493 101.359 64.9693 102.141 65.8813 102.693C66.7893 103.244 67.8033 103.553 68.8293 103.551C69.8563 103.553 70.8683 103.243 71.7783 102.693C72.6893 102.141 73.5093 101.359 74.2463 100.379L74.3053 100.301L74.3113 100.293C74.8683 99.552 75.4283 99.045 75.9423 98.736C76.4593 98.426 76.9163 98.305 77.3603 98.303C77.8043 98.305 78.2613 98.426 78.7783 98.736C79.2923 99.045 79.8543 99.552 80.4093 100.293L80.4103 100.296L80.5653 100.5L80.5633 100.497C81.3003 101.478 82.1193 102.261 83.0323 102.812C83.9403 103.363 84.9533 103.673 85.9803 103.671C87.0063 103.673 88.0193 103.363 88.9283 102.812C89.8403 102.261 90.6603 101.478 91.3983 100.498L91.5063 100.354C92.0613 99.614 92.6213 99.107 93.1363 98.797C93.6533 98.487 94.1103 98.367 94.5543 98.365C94.9983 98.367 95.4543 98.487 95.9723 98.797C96.4863 99.107 97.0473 99.614 97.6033 100.355L97.7233 100.514C98.4593 101.494 99.2803 102.278 100.192 102.829C101.1 103.38 102.114 103.69 103.14 103.688C104.166 103.69 105.18 103.38 106.088 102.829C107 102.278 107.821 101.494 108.557 100.514L108.846 100.131C109.401 99.389 109.963 98.882 110.477 98.572C110.994 98.262 111.452 98.141 111.895 98.139C112.338 98.141 112.795 98.262 113.312 98.572C113.826 98.882 114.387 99.389 114.944 100.131L114.945 100.132L115.181 100.445L115.18 100.444C115.632 101.047 116.121 101.565 116.639 102.01C117.041 100.952 117.366 99.857 117.599 98.728C117.582 98.705 117.565 98.688 117.547 98.665L117.546 98.663L117.311 98.349L117.312 98.351C116.575 97.371 115.754 96.588 114.842 96.036C113.934 95.486 112.92 95.176 111.895 95.178C110.868 95.176 109.855 95.486 108.946 96.036C108.034 96.588 107.214 97.371 106.477 98.351L106.189 98.735C105.633 99.476 105.072 99.984 104.558 100.294C104.04 100.603 103.583 100.724 103.14 100.726C102.696 100.724 102.239 100.603 101.721 100.294C101.207 99.984 100.647 99.476 100.09 98.736L99.9713 98.576C99.2353 97.596 98.4143 96.813 97.5023 96.261C96.5943 95.711 95.5803 95.401 94.5543 95.403C93.5283 95.401 92.5143 95.711 91.6063 96.261C90.6943 96.813 89.8733 97.596 89.1373 98.576L89.0303 98.72C88.4743 99.459 87.9113 99.967 87.3983 100.277C86.8803 100.586 86.4233 100.707 85.9803 100.709C85.5363 100.707 85.0793 100.586 84.5633 100.277C84.0493 99.967 83.4883 99.46 82.9323 98.719L82.9303 98.716L82.7763 98.512L82.7783 98.514C82.0413 97.534 81.2213 96.751 80.3093 96.2C79.4013 95.649 78.3873 95.34 77.3603 95.341C76.3333 95.34 75.3213 95.649 74.4113 96.199C73.4993 96.751 72.6803 97.534 71.9433 98.514L71.8833 98.593L71.8843 98.591L71.8793 98.599C71.3233 99.34 70.7603 99.848 70.2463 100.157C69.7303 100.466 69.2733 100.588 68.8293 100.59C68.3863 100.588 67.9293 100.466 67.4113 100.157C66.8983 99.848 66.3363 99.34 65.7813 98.599L65.6473 98.421C64.9103 97.441 64.0903 96.657 63.1783 96.106C62.2693 95.555 61.2563 95.246 60.2293 95.248C59.2023 95.246 58.1903 95.555 57.2813 96.106C56.3683 96.657 55.5483 97.441 54.8123 98.421L54.5373 98.785C53.9823 99.527 53.4203 100.034 52.9073 100.343C52.3893 100.653 51.9333 100.774 51.4893 100.776C51.0453 100.774 50.5883 100.653 50.0713 100.343C49.5573 100.034 48.9963 99.527 48.4403 98.786L48.3063 98.607C47.5693 97.627 46.7493 96.843 45.8373 96.292C44.9283 95.741 43.9153 95.432 42.8893 95.434C41.8623 95.432 40.8493 95.741 39.9403 96.292C39.0283 96.843 38.2073 97.627 37.4713 98.607L37.2683 98.879C36.7113 99.62 36.1503 100.127 35.6363 100.437C35.1183 100.746 34.6623 100.867 34.2183 100.869C33.7743 100.867 33.3173 100.746 32.8003 100.437C32.2853 100.127 31.7253 99.62 31.1693 98.879L31.1713 98.882L31.0023 98.655L31.0003 98.653C30.2623 97.672 29.4423 96.889 28.5303 96.338C27.6213 95.787 26.6083 95.478 25.5823 95.48C24.5413 95.478 23.5163 95.796 22.5983 96.36C21.6773 96.925 20.8503 97.726 20.1083 98.729C19.5463 99.491 18.9773 100.014 18.4553 100.332C17.9303 100.651 17.4673 100.775 17.0183 100.777C16.5693 100.775 16.1053 100.651 15.5793 100.332C15.0583 100.014 14.4893 99.491 13.9263 98.729C13.1843 97.726 12.3563 96.924 11.4363 96.36C10.5183 95.796 9.49332 95.479 8.45132 95.481C7.42532 95.479 6.41232 95.788 5.50432 96.339C4.59232 96.89 3.77232 97.674 3.03432 98.654L2.85432 98.894C2.36232 99.549 1.86832 100.013 1.40332 100.328C1.68432 101.299 2.04532 102.235 2.45132 103.145C2.55132 103.092 2.65432 103.048 2.75032 102.989C3.66232 102.438 4.48432 101.654 5.22232 100.674" fill="#F9A471"/></g></g></g></g></g></g></svg>