<svg viewBox="46.095549738219916 82.6875 212.74869109947642 236.24999999999994" fill="none" xmlns="http://www.w3.org/2000/svg" xmlns:xlink="http://www.w3.org/1999/xlink" overflow="visible" width="212.74869109947642px" height="236.24999999999994px"><g id="Master/Worms/Jae"><g id="Body/Jae" transform="translate(47.918 130.42) scale(1 1)"><g id="Body/Jae/Lavender"><g id="Group 9"><path id="Fill 1" fill-rule="evenodd" clip-rule="evenodd" d="M0.000488281 104.107V183.221H208.213V104.107C208.213 46.61 161.603 0 104.107 0C46.6105 0 0.000488281 46.61 0.000488281 104.107Z" fill="#E0BFDB"/><path id="Fill 3" fill-rule="evenodd" clip-rule="evenodd" d="M100.978 63.6693C100.978 83.3653 85.0106 99.3323 65.3146 99.3323C45.6186 99.3323 29.6516 83.3653 29.6516 63.6693C29.6516 43.9733 45.6186 28.0063 65.3146 28.0063C85.0106 28.0063 100.978 43.9733 100.978 63.6693" fill="#00AFA9"/><path id="Fill 5" fill-rule="evenodd" clip-rule="evenodd" d="M178.563 63.6693C178.563 83.3653 162.596 99.3323 142.901 99.3323C123.205 99.3323 107.238 83.3653 107.238 63.6693C107.238 43.9733 123.205 28.0063 142.901 28.0063C162.596 28.0063 178.563 43.9733 178.563 63.6693" fill="#00AFA9"/><path id="Fill 7" fill-rule="evenodd" clip-rule="evenodd" d="M0 183.22H208.214V112.696H0V183.22Z" fill="#C591C1"/></g></g></g><g id="Eyes/Jae" transform="translate(124.918 186.42) scale(1 1)"><g id="Eyes/Jae/Naughty"><g id="Group 7"><g id="Group 3"><path id="Fill 1" fill-rule="evenodd" clip-rule="evenodd" d="M38.6802 16.7879V16.7879C36.8742 16.7879 35.4102 15.3239 35.4102 13.5189V10.2439C35.4102 8.43791 36.8742 6.97391 38.6802 6.97391C40.4862 6.97391 41.9502 8.43791 41.9502 10.2439V13.5189C41.9502 15.3239 40.4862 16.7879 38.6802 16.7879" fill="#101335"/></g><g id="Group 6"><path id="Fill 4" fill-rule="evenodd" clip-rule="evenodd" d="M10.0023 19.891C9.34526 19.891 8.70126 19.567 8.31826 18.974C7.72126 18.045 7.98826 16.808 8.91726 16.209L13.8893 13.006L9.32126 9.604C8.43626 8.944 8.25226 7.691 8.91226 6.805C9.57226 5.92 10.8253 5.736 11.7113 6.396L17.6043 10.786C18.3543 11.345 18.7833 12.237 18.7513 13.172C18.7203 14.106 18.2313 14.967 17.4443 15.474L11.0833 19.572C10.7483 19.788 10.3733 19.891 10.0023 19.891" fill="#101335"/></g></g></g></g><g id="Mouth/Jae" transform="translate(132.77 206.476) scale(0.975 1)"><g id="Mouth/Jae/Laughing Teeth"><g id="Group 8"><g id="Group 3"><path id="Fill 1" fill-rule="evenodd" clip-rule="evenodd" d="M2.91797 1.99989C2.91797 1.99989 2.91797 18.0129 19.94 18.0129C37.778 18.0129 37.778 1.99989 37.778 1.99989H2.91797Z" fill="#101335"/></g><path id="Fill 4" fill-rule="evenodd" clip-rule="evenodd" d="M15.2252 8.58489H14.4412C12.9262 8.58489 11.6992 7.35689 11.6992 5.84289V1.99989H17.9662V5.84289C17.9662 7.35689 16.7392 8.58489 15.2252 8.58489" fill="white"/><path id="Fill 6" fill-rule="evenodd" clip-rule="evenodd" d="M25.5719 8.58489H24.7889C23.2739 8.58489 22.0469 7.35689 22.0469 5.84289V1.99989H28.3139V5.84289C28.3139 7.35689 27.0869 8.58489 25.5719 8.58489" fill="white"/></g></g></g><g id="Hair/Jae" transform="translate(5.91797 0.420013) scale(1 1)"><g id="Hair/Jae/Double Bun"><g id="Hair"><path id="Fill 18" fill-rule="evenodd" clip-rule="evenodd" d="M123.754 153.084L126.284 165.95C131.475 166.321 136.559 166.51 141.502 166.55L145.666 153.345L149.675 166.484C155.365 166.346 160.827 166.027 166.003 165.58L168.46 153.084L173.528 164.826C198.884 161.926 215.699 156.412 215.699 156.412C197.241 139.857 172.854 129.779 146.108 129.779C119.36 129.779 94.9736 139.857 76.5156 156.412C90.7056 161.069 104.897 163.826 118.497 165.265L123.754 153.084Z" fill="#73BAB8"/><path id="Fill 20" fill-rule="evenodd" clip-rule="evenodd" d="M200.523 88.0702V88.0702C199.61 91.8852 195.598 94.0742 191.896 92.7772C186.016 90.7172 180.805 97.1792 184.064 102.488C186.117 105.832 184.828 110.216 181.293 111.917C175.678 114.618 176.563 122.872 182.622 124.322V124.322C186.437 125.235 188.626 129.247 187.329 132.95C185.269 138.829 191.73 144.04 197.04 140.781C200.383 138.729 204.768 140.018 206.468 143.553H206.469C209.169 149.167 217.423 148.283 218.874 142.224C219.787 138.409 223.798 136.22 227.501 137.517V137.517C233.38 139.577 238.591 133.115 235.333 127.806C233.28 124.462 234.569 120.077 238.105 118.377C243.718 115.676 242.834 107.422 236.775 105.972C232.96 105.059 230.771 101.047 232.068 97.3442C234.128 91.4652 227.667 86.2542 222.357 89.5132C219.013 91.5652 214.628 90.2762 212.928 86.7412C210.227 81.1272 201.973 82.0112 200.523 88.0702" fill="#3A3E5B"/><path id="Fill 22" fill-rule="evenodd" clip-rule="evenodd" d="M204.469 99.7111V99.7111C203.948 101.886 201.661 103.134 199.55 102.394C196.198 101.22 193.228 104.904 195.085 107.931C196.255 109.837 195.521 112.336 193.505 113.306C190.305 114.846 190.809 119.551 194.263 120.378C196.438 120.898 197.686 123.185 196.947 125.296C195.772 128.648 199.456 131.618 202.483 129.761C204.389 128.591 206.888 129.326 207.858 131.341C209.398 134.541 214.103 134.037 214.93 130.583C215.45 128.408 217.738 127.16 219.848 127.9C223.199 129.074 226.17 125.39 224.313 122.364C223.143 120.457 223.877 117.958 225.893 116.988C229.093 115.449 228.589 110.743 225.135 109.917C222.96 109.396 221.712 107.109 222.451 104.998C223.626 101.647 219.943 98.6761 216.915 100.534C215.009 101.704 212.51 100.969 211.54 98.9531C210 95.7531 205.295 96.2571 204.469 99.7111" fill="#F1758E"/><path id="Fill 24" fill-rule="evenodd" clip-rule="evenodd" d="M91.8741 88.0702V88.0702C92.7871 91.8852 96.7991 94.0742 100.501 92.7772C106.381 90.7172 111.592 97.1792 108.333 102.488C106.28 105.832 107.569 110.216 111.105 111.917C116.719 114.618 115.834 122.872 109.775 124.322V124.322C105.96 125.235 103.771 129.247 105.068 132.95C107.129 138.829 100.667 144.04 95.3571 140.781C92.0141 138.729 87.6291 140.018 85.9291 143.553C83.2281 149.167 74.9741 148.283 73.5231 142.224C72.6101 138.409 68.5991 136.22 64.8961 137.517V137.517C59.0171 139.577 53.8061 133.115 57.0641 127.806C59.1171 124.462 57.8281 120.077 54.2931 118.377C48.6791 115.676 49.5631 107.422 55.6221 105.972C59.4371 105.059 61.6261 101.047 60.3291 97.3442C58.2701 91.4652 64.7301 86.2542 70.0401 89.5132C73.3841 91.5652 77.7691 90.2762 79.4691 86.7412H79.4701C82.1701 81.1272 90.4241 82.0112 91.8741 88.0702" fill="#3A3E5B"/><path id="Fill 26" fill-rule="evenodd" clip-rule="evenodd" d="M87.9298 99.7111V99.7111C88.4508 101.886 90.7378 103.134 92.8478 102.394C96.1998 101.22 99.1698 104.904 97.3128 107.931C96.1428 109.837 96.8768 112.336 98.8928 113.306C102.093 114.846 101.589 119.551 98.1348 120.378C95.9598 120.898 94.7118 123.185 95.4508 125.296C96.6258 128.648 92.9428 131.618 89.9148 129.761C88.0088 128.591 85.5098 129.326 84.5398 131.341C82.9998 134.541 78.2948 134.037 77.4688 130.583C76.9488 128.408 74.6608 127.16 72.5498 127.9C69.1988 129.074 66.2278 125.39 68.0848 122.364C69.2548 120.457 68.5208 117.958 66.5048 116.988C63.3048 115.449 63.8088 110.743 67.2628 109.917C69.4378 109.396 70.6858 107.109 69.9468 104.998C68.7718 101.647 72.4558 98.6761 75.4828 100.534C77.3888 101.704 79.8878 100.969 80.8578 98.9531C82.3978 95.7531 87.1028 96.2571 87.9298 99.7111" fill="#F1758E"/></g></g></g><g id="Clothes/Jae" transform="translate(47.918 251.42) scale(1 1)"><g id="Clothes/Jae/Purple Sprinkles"><g id="Group 28"><path id="Fill 1" fill-rule="evenodd" clip-rule="evenodd" d="M0 64.5816H208.215V1.00061H0V64.5816Z" fill="#BF62A2"/><g id="Group 27"><path id="Fill 2" fill-rule="evenodd" clip-rule="evenodd" d="M115.879 8.84682C117.355 10.8118 119.612 11.8478 121.899 11.8478C123.469 11.8478 125.052 11.3588 126.4 10.3458L138.852 0.999817H115.157C114.808 1.70782 114.564 2.47182 114.448 3.27482C114.165 5.26382 114.673 7.24182 115.879 8.84682" fill="#604299"/><path id="Fill 4" fill-rule="evenodd" clip-rule="evenodd" d="M32.8883 11.2799C33.7423 13.0959 35.2523 14.4719 37.1413 15.1529C37.9803 15.4549 38.8373 15.5979 39.6823 15.5979C42.7613 15.5979 45.6573 13.6909 46.7593 10.6319L50.2323 0.999939H34.2533L32.6183 5.53394C31.9373 7.42294 32.0343 9.46294 32.8883 11.2799" fill="#604299"/><path id="Fill 6" fill-rule="evenodd" clip-rule="evenodd" d="M70.3128 5.13049L88.2948 17.8165C89.2418 18.4835 90.3048 18.9155 91.4168 19.0955C92.2288 19.2275 93.0678 19.2245 93.9038 19.0805C95.8848 18.7385 97.6128 17.6455 98.7648 16.0095C99.9228 14.3695 100.375 12.3765 100.033 10.3965C99.6918 8.41749 98.5998 6.69149 96.9588 5.53249L90.5338 1.00049H67.4028C67.8638 2.67049 68.8778 4.11849 70.3128 5.13049" fill="#604299"/><g id="Group 10"><path id="Fill 8" fill-rule="evenodd" clip-rule="evenodd" d="M107.777 38.0081C106.348 36.5971 104.486 35.8471 102.451 35.8411C100.443 35.8541 98.5586 36.6481 97.1486 38.0771C95.7376 39.5061 94.9676 41.4001 94.9816 43.4051L95.1176 64.5821H110.149L110.012 43.3101C110.001 41.3021 109.207 39.4191 107.777 38.0081" fill="#604299"/></g><path id="Fill 11" fill-rule="evenodd" clip-rule="evenodd" d="M66.4175 27.7575C65.7485 25.8635 64.3825 24.3435 62.5695 23.4785C60.7555 22.6115 58.7155 22.5045 56.8255 23.1745C52.9205 24.5545 50.8645 28.8565 52.2445 32.7625L59.5815 53.5105C60.6705 56.5915 63.5775 58.5215 66.6755 58.5215C67.5045 58.5215 68.3495 58.3825 69.1755 58.0905C73.0815 56.7085 75.1355 52.4045 73.7535 48.4995L66.4175 27.7575Z" fill="#604299"/><path id="Fill 13" fill-rule="evenodd" clip-rule="evenodd" d="M162.174 29.9796C162.688 30.0856 163.204 30.1386 163.717 30.1386C165.166 30.1386 166.585 29.7176 167.825 28.9036C169.503 27.8016 170.653 26.1126 171.06 24.1466L175.528 2.60161C175.638 2.06761 175.685 1.53161 175.681 1.00061H160.508L156.342 21.0936C155.5 25.1516 158.116 29.1376 162.174 29.9796" fill="#604299"/><path id="Fill 15" fill-rule="evenodd" clip-rule="evenodd" d="M140.122 29.0163C139.368 24.9413 135.443 22.2353 131.368 22.9933C127.294 23.7443 124.59 27.6703 125.342 31.7503L129.342 53.3893C130.012 57.0023 133.178 59.5373 136.731 59.5373C137.183 59.5373 137.641 59.4963 138.099 59.4123C140.073 59.0473 141.787 57.9353 142.925 56.2803C144.062 54.6273 144.487 52.6293 144.122 50.6553L140.122 29.0163Z" fill="#604299"/><path id="Fill 17" fill-rule="evenodd" clip-rule="evenodd" d="M166.508 41.4592C162.493 42.4752 160.051 46.5682 161.065 50.5862C161.556 52.5322 162.775 54.1702 164.499 55.1992C165.68 55.9032 166.999 56.2642 168.337 56.2642C168.955 56.2642 169.577 56.1882 170.191 56.0322L191.523 50.6462C193.471 50.1542 195.111 48.9342 196.14 47.2092C197.168 45.4852 197.463 43.4652 196.973 41.5192C195.958 37.5022 191.867 35.0562 187.848 36.0712L166.508 41.4592Z" fill="#604299"/><g id="Group 21"><path id="Fill 19" fill-rule="evenodd" clip-rule="evenodd" d="M19.726 37.7625C20.964 37.5425 22.103 37.0295 23.063 36.2705C23.636 35.8185 24.145 35.2795 24.576 34.6635C25.723 33.0185 26.163 31.0245 25.812 29.0495C25.461 27.0715 24.362 25.3495 22.714 24.1995L4.671 11.6025C3.251 10.6125 1.609 10.2115 0 10.2935V26.6745L14.107 36.5235C15.753 37.6735 17.748 38.1135 19.726 37.7625" fill="#604299"/></g><path id="Fill 22" fill-rule="evenodd" clip-rule="evenodd" d="M47.7085 58.1295C46.6925 54.1135 42.5955 51.6735 38.5835 52.6855L17.2495 58.0725C14.1125 58.8645 11.9435 61.5345 11.6235 64.5815H46.3465C47.7175 62.8155 48.2985 60.4625 47.7085 58.1295" fill="#604299"/><g id="Group 26"><path id="Fill 24" fill-rule="evenodd" clip-rule="evenodd" d="M195.122 4.90437C193.129 5.13737 191.345 6.13237 190.1 7.70737C188.854 9.28237 188.296 11.2484 188.53 13.2434C188.765 15.2374 189.761 17.0214 191.335 18.2644L208.215 31.6084V12.4474L200.658 6.47437C199.083 5.22837 197.126 4.67037 195.122 4.90437" fill="#604299"/></g></g></g></g></g></g></svg>