<svg viewBox="106.60000000000002 131.87956204379554 919.425 612.7737226277372" fill="none" xmlns="http://www.w3.org/2000/svg" xmlns:xlink="http://www.w3.org/1999/xlink" overflow="visible" width="919.425px" height="612.7737226277372px"><g id="Master/Scene/Celebration"><g id="Celebration" transform="translate(66.625 121.667) scale(1.3325 1.2166666259765626)"><g id="Celebration/Rainbow"><g id="Group 16"><g id="Group 3"><path id="Fill 1" fill-rule="evenodd" clip-rule="evenodd" d="M97.7423 279.115C97.7423 211.682 124.017 148.285 171.728 100.604C219.439 52.9217 282.874 26.6628 350.348 26.6628C417.821 26.6628 481.255 52.9217 528.966 100.604C576.676 148.285 602.952 211.682 602.952 279.115V492H612.695V279.115C612.695 209.082 585.406 143.239 535.855 93.7193C486.305 44.199 420.424 16.9264 350.348 16.9264C280.272 16.9264 214.391 44.199 164.839 93.7193C115.288 143.239 88 209.082 88 279.115V492H97.7423V279.115Z" fill="#775CA6"/></g><g id="Group 6"><path id="Fill 4" fill-rule="evenodd" clip-rule="evenodd" d="M349.89 74C463.673 74 556.242 166.444 556.242 280.071V491.001H565.985V280.071C565.985 161.079 469.046 64.2709 349.89 64.2709C230.732 64.2709 133.791 161.079 133.791 280.071V491.001H143.534V280.071C143.534 166.444 236.105 74 349.89 74" fill="#41AFE4"/></g><g id="Group 9"><path id="Fill 7" fill-rule="evenodd" clip-rule="evenodd" d="M350.848 112.933C258.5 112.933 183.37 188.218 183.37 280.758V492.001H193.093V280.758C193.093 193.592 263.862 122.677 350.848 122.677C437.834 122.677 508.602 193.592 508.602 280.758V492.001H518.325V280.758C518.325 188.218 443.195 112.933 350.848 112.933" fill="#00AFA9"/></g><g id="Group 12"><path id="Fill 10" fill-rule="evenodd" clip-rule="evenodd" d="M350.388 160.544C284.04 160.544 230.063 214.576 230.063 280.989V492H239.787V280.989C239.787 219.942 289.402 170.277 350.388 170.277C411.374 170.277 460.99 219.942 460.99 280.989V492H470.713V280.989C470.713 214.576 416.735 160.544 350.388 160.544" fill="#F1758E"/></g><g id="Group 15"><path id="Fill 13" fill-rule="evenodd" clip-rule="evenodd" d="M349.888 207.477C309.695 207.477 276.997 240.145 276.997 280.299V491.001H286.725V280.299C286.725 245.504 315.06 217.196 349.888 217.196C384.716 217.196 413.052 245.504 413.052 280.299V491.001H422.78V280.299C422.78 240.145 390.081 207.477 349.888 207.477" fill="#FFCC37"/></g></g></g></g><g id="Master/Worms/Fin" transform="translate(23.9844 346.75) scale(1.3280730897009967 1.2166666666666666)"><g id="Master/Worms/Fin"><g id="Body/Fin" transform="translate(83.918 150.8) scale(1 1)"><g id="Body/Fin/Charcoal"><g id="Group 8"><g id="Group 3"><path id="Fill 1" fill-rule="evenodd" clip-rule="evenodd" d="M135.896 164.221H0.999878V68.4481C0.999878 31.1971 31.1979 1.00012 68.4479 1.00012C105.698 1.00012 135.896 31.1971 135.896 68.4481V164.221Z" fill="#3A3E5B"/></g><path id="Fill 4" fill-rule="evenodd" clip-rule="evenodd" d="M1 164.221H135.896V100.148H1V164.221Z" fill="#252A42"/><path id="Fill 6" fill-rule="evenodd" clip-rule="evenodd" d="M66.3048 55.4006C66.3048 68.8856 55.3728 79.8176 41.8878 79.8176C28.4028 79.8176 17.4708 68.8856 17.4708 55.4006C17.4708 41.9156 28.4028 30.9836 41.8878 30.9836C55.3728 30.9836 66.3048 41.9156 66.3048 55.4006" fill="#F06647"/><path id="Fill 7" fill-rule="evenodd" clip-rule="evenodd" d="M119.425 55.4006C119.425 68.8856 108.493 79.8176 95.0084 79.8176C81.5224 79.8176 70.5914 68.8856 70.5914 55.4006C70.5914 41.9156 81.5224 30.9836 95.0084 30.9836C108.493 30.9836 119.425 41.9156 119.425 55.4006" fill="#F06647"/></g></g></g><g id="Eyes/Fin" transform="translate(126.918 194.8) scale(1 1)"><g id="Eyes/Fin/Open"><g id="Eyes"><path id="Fill 8" fill-rule="evenodd" clip-rule="evenodd" d="M15.3588 15.2683V15.2683C13.5528 15.2683 12.0898 13.8043 12.0898 11.9993V8.72428C12.0898 6.91828 13.5528 5.45428 15.3588 5.45428C17.1638 5.45428 18.6278 6.91828 18.6278 8.72428V11.9993C18.6278 13.8043 17.1638 15.2683 15.3588 15.2683" fill="#0F1335"/><path id="Fill 10" fill-rule="evenodd" clip-rule="evenodd" d="M33.8784 15.2683V15.2683C32.0734 15.2683 30.6094 13.8043 30.6094 11.9993V8.72428C30.6094 6.91828 32.0734 5.45428 33.8784 5.45428C35.6844 5.45428 37.1474 6.91828 37.1474 8.72428V11.9993C37.1474 13.8043 35.6844 15.2683 33.8784 15.2683" fill="#0F1335"/></g></g></g><g id="Mouth/Fin" transform="translate(130.918 211.8) scale(0.9761904761904762 1)"><g id="Mouth/Fin/Laughing Teeth"><g id="Group 8"><g id="Group 3"><path id="Fill 1" fill-rule="evenodd" clip-rule="evenodd" d="M3.91797 4.99991C3.91797 4.99991 3.91797 21.0129 20.94 21.0129C38.778 21.0129 38.778 4.99991 38.778 4.99991H3.91797Z" fill="#101335"/></g><path id="Fill 4" fill-rule="evenodd" clip-rule="evenodd" d="M16.2252 11.5849H15.4412C13.9272 11.5849 12.6992 10.3569 12.6992 8.84291V4.99991H18.9672V8.84291C18.9672 10.3569 17.7392 11.5849 16.2252 11.5849" fill="white"/><path id="Fill 6" fill-rule="evenodd" clip-rule="evenodd" d="M26.5709 11.5849H25.7869C24.2729 11.5849 23.0449 10.3569 23.0449 8.84291V4.99991H29.3129V8.84291C29.3129 10.3569 28.0849 11.5849 26.5709 11.5849" fill="white"/></g></g></g><g id="Hair/Fin" transform="translate(65.918 60.8) scale(1 1)"><g id="Hair/Fin/Mickey Head"><g id="Group 11"><g id="Group 10"><g id="Group 3"><path id="Fill 1" fill-rule="evenodd" clip-rule="evenodd" d="M138.411 114.436C126.073 99.4366 107.37 89.8706 86.4331 89.8706V89.8706C65.4951 89.8706 46.7931 99.4366 34.4551 114.436H138.411Z" fill="#ED6389"/></g><g id="Group 6"><path id="Fill 4" fill-rule="evenodd" clip-rule="evenodd" d="M147.666 76.0032C147.666 88.6522 137.412 98.9062 124.763 98.9062C112.114 98.9062 101.859 88.6522 101.859 76.0032C101.859 63.3542 112.114 53.1002 124.763 53.1002C137.412 53.1002 147.666 63.3542 147.666 76.0032" fill="#41AFE4"/></g><g id="Group 9"><path id="Fill 7" fill-rule="evenodd" clip-rule="evenodd" d="M71.0062 76.0032C71.0062 88.6522 60.7522 98.9062 48.1032 98.9062C35.4542 98.9062 25.1992 88.6522 25.1992 76.0032C25.1992 63.3542 35.4542 53.1002 48.1032 53.1002C60.7522 53.1002 71.0062 63.3542 71.0062 76.0032" fill="#41AFE4"/></g></g></g></g></g><g id="Clothes/Fin" transform="translate(83.918 245.4) scale(1 1)"><g id="Clothes/Fin/Lavender Polkas"><g id="Group 63"><path id="Fill 1" fill-rule="evenodd" clip-rule="evenodd" d="M1 69.996H135.896V11.12H1V69.996Z" fill="#4FA480"/><g id="Group 62"><path id="Fill 2" fill-rule="evenodd" clip-rule="evenodd" d="M11.367 11.1201H1V20.3711C1.304 20.4011 1.611 20.4181 1.923 20.4181C7.091 20.4181 11.284 16.2681 11.367 11.1201" fill="#E0BFDB"/><path id="Fill 4" fill-rule="evenodd" clip-rule="evenodd" d="M24.1061 20.418C29.2741 20.418 33.4671 16.269 33.5501 11.12H14.6621C14.7451 16.269 18.9381 20.418 24.1061 20.418" fill="#E0BFDB"/><path id="Fill 6" fill-rule="evenodd" clip-rule="evenodd" d="M46.2887 20.418C51.4567 20.418 55.6497 16.269 55.7327 11.12H36.8447C36.9277 16.269 41.1207 20.418 46.2887 20.418" fill="#E0BFDB"/><path id="Fill 8" fill-rule="evenodd" clip-rule="evenodd" d="M68.4718 20.418C73.6398 20.418 77.8328 16.269 77.9158 11.12H59.0278C59.1108 16.269 63.3038 20.418 68.4718 20.418" fill="#E0BFDB"/><path id="Fill 10" fill-rule="evenodd" clip-rule="evenodd" d="M90.6549 20.418C95.8229 20.418 100.016 16.269 100.099 11.12H81.2109C81.2939 16.269 85.4869 20.418 90.6549 20.418" fill="#E0BFDB"/><path id="Fill 12" fill-rule="evenodd" clip-rule="evenodd" d="M112.838 20.418C118.006 20.418 122.199 16.269 122.282 11.12H103.394C103.477 16.269 107.67 20.418 112.838 20.418" fill="#E0BFDB"/><path id="Fill 14" fill-rule="evenodd" clip-rule="evenodd" d="M135.021 20.418C135.316 20.418 135.608 20.4 135.896 20.374V11.12H125.577C125.66 16.269 129.853 20.418 135.021 20.418" fill="#E0BFDB"/><g id="Group 18"><path id="Fill 16" fill-rule="evenodd" clip-rule="evenodd" d="M11.3835 50.4224C11.3835 45.2024 7.15151 40.9704 1.93151 40.9704C1.61651 40.9704 1.30651 40.9874 0.999512 41.0174V59.8274C1.30651 59.8574 1.61651 59.8744 1.93151 59.8744C7.15151 59.8744 11.3835 55.6424 11.3835 50.4224" fill="#E0BFDB"/></g><path id="Fill 19" fill-rule="evenodd" clip-rule="evenodd" d="M24.1141 40.9702C18.8941 40.9702 14.6621 45.2022 14.6621 50.4222C14.6621 55.6422 18.8941 59.8742 24.1141 59.8742C29.3341 59.8742 33.5661 55.6422 33.5661 50.4222C33.5661 45.2022 29.3341 40.9702 24.1141 40.9702" fill="#E0BFDB"/><path id="Fill 21" fill-rule="evenodd" clip-rule="evenodd" d="M46.2972 40.9702C41.0772 40.9702 36.8452 45.2022 36.8452 50.4222C36.8452 55.6422 41.0772 59.8742 46.2972 59.8742C51.5172 59.8742 55.7492 55.6422 55.7492 50.4222C55.7492 45.2022 51.5172 40.9702 46.2972 40.9702" fill="#E0BFDB"/><path id="Fill 23" fill-rule="evenodd" clip-rule="evenodd" d="M68.4803 40.9702C63.2603 40.9702 59.0283 45.2022 59.0283 50.4222C59.0283 55.6422 63.2603 59.8742 68.4803 59.8742C73.7003 59.8742 77.9323 55.6422 77.9323 50.4222C77.9323 45.2022 73.7003 40.9702 68.4803 40.9702" fill="#E0BFDB"/><path id="Fill 25" fill-rule="evenodd" clip-rule="evenodd" d="M90.6634 40.9702C85.4434 40.9702 81.2114 45.2022 81.2114 50.4222C81.2114 55.6422 85.4434 59.8742 90.6634 59.8742C95.8834 59.8742 100.115 55.6422 100.115 50.4222C100.115 45.2022 95.8834 40.9702 90.6634 40.9702" fill="#E0BFDB"/><path id="Fill 27" fill-rule="evenodd" clip-rule="evenodd" d="M112.846 40.9702C107.626 40.9702 103.394 45.2022 103.394 50.4222C103.394 55.6422 107.626 59.8742 112.846 59.8742C118.066 59.8742 122.298 55.6422 122.298 50.4222C122.298 45.2022 118.066 40.9702 112.846 40.9702" fill="#E0BFDB"/><g id="Group 31"><path id="Fill 29" fill-rule="evenodd" clip-rule="evenodd" d="M125.577 50.4224C125.577 55.6424 129.809 59.8744 135.029 59.8744C135.322 59.8744 135.61 59.8564 135.896 59.8304V41.0134C135.61 40.9874 135.322 40.9704 135.029 40.9704C129.809 40.9704 125.577 45.2024 125.577 50.4224" fill="#E0BFDB"/></g><path id="Fill 32" fill-rule="evenodd" clip-rule="evenodd" d="M22.4665 30.6938C22.4665 25.4738 18.2345 21.2418 13.0145 21.2418C7.7945 21.2418 3.5625 25.4738 3.5625 30.6938C3.5625 35.9138 7.7945 40.1458 13.0145 40.1458C18.2345 40.1458 22.4665 35.9138 22.4665 30.6938" fill="#E0BFDB"/><path id="Fill 34" fill-rule="evenodd" clip-rule="evenodd" d="M44.6491 30.6938C44.6491 25.4738 40.4171 21.2418 35.1971 21.2418C29.9771 21.2418 25.7451 25.4738 25.7451 30.6938C25.7451 35.9138 29.9771 40.1458 35.1971 40.1458C40.4171 40.1458 44.6491 35.9138 44.6491 30.6938" fill="#E0BFDB"/><path id="Fill 36" fill-rule="evenodd" clip-rule="evenodd" d="M66.8327 30.6938C66.8327 25.4738 62.6007 21.2418 57.3807 21.2418C52.1607 21.2418 47.9287 25.4738 47.9287 30.6938C47.9287 35.9138 52.1607 40.1458 57.3807 40.1458C62.6007 40.1458 66.8327 35.9138 66.8327 30.6938" fill="#E0BFDB"/><path id="Fill 38" fill-rule="evenodd" clip-rule="evenodd" d="M89.0153 30.6938C89.0153 25.4738 84.7833 21.2418 79.5633 21.2418C74.3433 21.2418 70.1113 25.4738 70.1113 30.6938C70.1113 35.9138 74.3433 40.1458 79.5633 40.1458C84.7833 40.1458 89.0153 35.9138 89.0153 30.6938" fill="#E0BFDB"/><path id="Fill 40" fill-rule="evenodd" clip-rule="evenodd" d="M111.198 30.6938C111.198 25.4738 106.966 21.2418 101.746 21.2418C96.5264 21.2418 92.2944 25.4738 92.2944 30.6938C92.2944 35.9138 96.5264 40.1458 101.746 40.1458C106.966 40.1458 111.198 35.9138 111.198 30.6938" fill="#E0BFDB"/><path id="Fill 42" fill-rule="evenodd" clip-rule="evenodd" d="M133.382 30.6938C133.382 25.4738 129.15 21.2418 123.93 21.2418C118.71 21.2418 114.478 25.4738 114.478 30.6938C114.478 35.9138 118.71 40.1458 123.93 40.1458C129.15 40.1458 133.382 35.9138 133.382 30.6938" fill="#E0BFDB"/><g id="Group 46"><path id="Fill 44" fill-rule="evenodd" clip-rule="evenodd" d="M13.0226 60.6982C7.85461 60.6982 3.66161 64.8472 3.57861 69.9962H22.4666C22.3836 64.8472 18.1906 60.6982 13.0226 60.6982" fill="#E0BFDB"/></g><g id="Group 49"><path id="Fill 47" fill-rule="evenodd" clip-rule="evenodd" d="M35.2057 60.6982C30.0377 60.6982 25.8447 64.8472 25.7617 69.9962H44.6497C44.5667 64.8472 40.3737 60.6982 35.2057 60.6982" fill="#E0BFDB"/></g><g id="Group 52"><path id="Fill 50" fill-rule="evenodd" clip-rule="evenodd" d="M57.3888 60.6982C52.2208 60.6982 48.0278 64.8472 47.9448 69.9962H66.8328C66.7498 64.8472 62.5568 60.6982 57.3888 60.6982" fill="#E0BFDB"/></g><g id="Group 55"><path id="Fill 53" fill-rule="evenodd" clip-rule="evenodd" d="M79.5719 60.6982C74.4039 60.6982 70.2109 64.8472 70.1279 69.9962H89.0159C88.9329 64.8472 84.7399 60.6982 79.5719 60.6982" fill="#E0BFDB"/></g><g id="Group 58"><path id="Fill 56" fill-rule="evenodd" clip-rule="evenodd" d="M101.755 60.6982C96.5865 60.6982 92.3935 64.8472 92.3105 69.9962H111.199C111.116 64.8472 106.923 60.6982 101.755 60.6982" fill="#E0BFDB"/></g><g id="Group 61"><path id="Fill 59" fill-rule="evenodd" clip-rule="evenodd" d="M123.938 60.6982C118.77 60.6982 114.577 64.8472 114.494 69.9962H133.382C133.299 64.8472 129.106 60.6982 123.938 60.6982" fill="#E0BFDB"/></g></g></g></g></g></g></g><g id="Master/Worms/Jae" transform="translate(584.967 346.75) scale(1.3280730897009967 1.2166666666666666)"><g id="Master/Worms/Jae"><g id="Body/Jae" transform="translate(47.918 130.42) scale(1 1)"><g id="Body/Jae/Blushie"><g id="Group 7"><path id="Fill 1" fill-rule="evenodd" clip-rule="evenodd" d="M0.000610352 104.107V183.221H208.214V104.107C208.214 46.61 161.604 0 104.108 0C46.6106 0 0.000610352 46.61 0.000610352 104.107Z" fill="#9FD5DD"/><path id="Fill 3" fill-rule="evenodd" clip-rule="evenodd" d="M0 183.22H208.214V112.696H0V183.22Z" fill="#77BCC1"/><path id="Fill 5" fill-rule="evenodd" clip-rule="evenodd" d="M192.289 48.7578C187.97 46.4078 183.018 45.0718 177.754 45.0718C160.931 45.0718 147.293 58.7098 147.293 75.5328C147.293 92.3558 160.931 105.993 177.754 105.993C191.096 105.993 202.427 97.4108 206.548 85.4678C204.146 72.1818 199.22 59.7768 192.289 48.7578" fill="#ED6389"/><path id="Fill 6" fill-rule="evenodd" clip-rule="evenodd" d="M27.2648 105.993C44.0878 105.993 57.7258 92.3551 57.7258 75.5331C57.7258 58.7091 44.0878 45.0721 27.2648 45.0721C23.7368 45.0721 20.3508 45.6791 17.1988 46.7821C8.66181 59.6991 2.92281 74.6251 0.856812 90.7051C6.11581 99.8391 15.9678 105.993 27.2648 105.993" fill="#ED6389"/></g></g></g><g id="Eyes/Jae" transform="translate(124.918 186.42) scale(1 1)"><g id="Eyes/Jae/Happy"><g id="Group 5"><path id="Stroke 1 (Stroke)" fill-rule="evenodd" clip-rule="evenodd" d="M46.3226 16.2379C45.7237 15.5727 44.8161 14.951 43.3532 15.0029L43.3531 15.0029C41.7504 15.0597 40.828 15.7321 40.2774 16.3489C39.9874 16.6737 39.7911 16.997 39.6702 17.2335C39.6105 17.3502 39.5717 17.4409 39.5507 17.4932C39.5415 17.5164 39.5359 17.5316 39.5337 17.5376C39.1914 18.5763 38.0761 19.1489 37.0306 18.8179C35.9776 18.4845 35.3942 17.3605 35.7276 16.3075L37.6343 16.9112C35.7276 16.3075 35.7279 16.3064 35.7283 16.3054L35.7289 16.3033L35.7304 16.2988L35.7337 16.2886L35.7418 16.2641C35.7479 16.2459 35.7554 16.224 35.7645 16.1986C35.7825 16.1479 35.8066 16.0832 35.8373 16.0063C35.8987 15.853 35.9875 15.6496 36.1088 15.4124C36.3499 14.9409 36.7291 14.3171 37.2935 13.685C38.4516 12.3877 40.3532 11.1067 43.2115 11.0054M46.3226 16.2379C46.6351 16.5849 46.8575 16.9421 47.0003 17.2126ZM47.0003 17.2126C47.0705 17.3457 47.1183 17.4517 47.1457 17.5164ZM47.1457 17.5164C47.1593 17.5485 47.1676 17.5698 47.1709 17.5785ZM47.1709 17.5785C47.1712 17.5793 47.1715 17.58 47.1717 17.5805ZM47.1717 17.5805C47.5384 18.6138 48.6704 19.1602 49.7089 18.8017C50.753 18.4413 51.3073 17.3028 50.9469 16.2586L49.0563 16.9112C50.9469 16.2586 50.9466 16.2577 50.9462 16.2568L50.9456 16.2548L50.9441 16.2507L50.9408 16.2411L50.9323 16.2175C50.9259 16.1998 50.9178 16.1781 50.9081 16.1527C50.8888 16.1019 50.8627 16.0361 50.8294 15.9575C50.763 15.8006 50.6671 15.5905 50.5376 15.3452C50.2809 14.8589 49.8796 14.2103 49.2951 13.5612C48.1 12.2341 46.1206 10.9023 43.2115 11.0054" fill="#101335"/><path id="Stroke 3 (Stroke)" fill-rule="evenodd" clip-rule="evenodd" d="M16.6895 16.2381C16.0903 15.5728 15.1824 14.951 13.7194 15.0029L13.7193 15.0029C12.1166 15.0597 11.1942 15.7321 10.6436 16.3489C10.3536 16.6737 10.1573 16.997 10.0364 17.2335C9.97673 17.3502 9.93789 17.4409 9.91695 17.4932C9.90766 17.5164 9.90207 17.5316 9.89989 17.5376C9.55759 18.5763 8.44227 19.1489 7.39684 18.8179C6.34379 18.4845 5.76041 17.3605 6.09383 16.3075L8.00054 16.9112C6.09383 16.3075 6.09415 16.3064 6.09447 16.3054L6.09515 16.3033L6.0966 16.2988L6.09988 16.2886L6.10799 16.2641C6.1141 16.2459 6.12163 16.224 6.13066 16.1986C6.1487 16.1479 6.1728 16.0832 6.20356 16.0063C6.26496 15.853 6.3537 15.6496 6.47501 15.4124C6.71608 14.9409 7.09533 14.3171 7.65972 13.685C8.81783 12.3877 10.7194 11.1067 13.5777 11.0054M16.6895 16.2381C17.0021 16.5851 17.2246 16.9424 17.3675 17.2129ZM17.3675 17.2129C17.4378 17.346 17.4856 17.4521 17.513 17.5168ZM17.513 17.5168C17.5266 17.5489 17.5349 17.5702 17.5382 17.5789ZM17.5382 17.5789C17.5385 17.5797 17.5388 17.5804 17.539 17.581ZM17.539 17.581C17.906 18.6141 19.0381 19.1602 20.0765 18.8016C21.1205 18.441 21.6746 17.3023 21.314 16.2582L19.4235 16.9112C21.314 16.2582 21.3136 16.2573 21.3133 16.2564L21.3126 16.2544L21.3112 16.2502L21.3078 16.2407L21.2994 16.2171C21.2929 16.1994 21.2849 16.1777 21.2752 16.1523C21.2558 16.1015 21.2297 16.0357 21.1964 15.9571C21.13 15.8002 21.034 15.5901 20.9045 15.3449C20.6477 14.8586 20.2462 14.2101 19.6616 13.561C18.4663 12.234 16.4867 10.9023 13.5777 11.0054" fill="#101335"/></g></g></g><g id="Mouth/Jae" transform="translate(132.77 206.476) scale(0.975 1)"><g id="Mouth/Jae/Smiling White"><g id="Group 3"><path id="Fill 1" fill-rule="evenodd" clip-rule="evenodd" d="M8.91797 2H32.827C32.827 2 31.393 14.56 20.268 14.56C9.14297 14.56 8.91797 2 8.91797 2" fill="white"/></g></g></g><g id="Hair/Jae" transform="translate(5.91797 0.420013) scale(1 1)"><g id="Hair/Jae/Blue Waves"><g id="Group 3"><path id="Fill 1" fill-rule="evenodd" clip-rule="evenodd" d="M271.055 209.668C282.288 202.978 280.525 186.198 268.146 181.99C258.452 178.694 254.655 167.003 260.559 158.639V158.639C268.1 147.958 259.663 133.347 246.644 134.537H246.643C236.448 135.469 228.222 126.334 230.215 116.291C232.759 103.466 219.11 93.5493 207.7 99.9323H207.699C198.764 104.931 187.534 99.9313 185.27 89.9463V89.9463C182.378 77.1953 165.874 73.6873 158.047 84.1603C151.917 92.3603 139.624 92.3603 133.494 84.1603C125.666 73.6873 109.163 77.1953 106.272 89.9463V89.9463C104.008 99.9313 92.7778 104.931 83.8418 99.9323C72.4318 93.5493 58.7818 103.466 61.3258 116.291C63.3198 126.334 55.0938 135.469 44.8978 134.537C31.8778 133.347 23.4418 147.958 30.9828 158.639V158.639C36.8878 167.003 33.0888 178.694 23.3958 181.99C11.0168 186.198 9.25279 202.978 20.4868 209.668C29.2828 214.907 30.5678 227.132 23.0528 234.086C13.4558 242.965 18.6698 259.012 31.6538 260.554C35.9718 261.068 39.5538 263.294 41.9498 266.396V236.606C48.7368 235.776 58.7788 232.099 63.9878 218.372C72.3138 196.433 80.9258 209.018 100.45 198.395C119.973 187.772 103.895 164.804 124.853 158.775C141.739 153.918 147.194 137.141 148.678 130.801C150.052 135.231 157.955 157.304 179.381 158.819C203.204 160.503 197.429 184.421 214.033 189.548C230.637 194.674 241.947 195.396 242.669 214.888C243.001 223.853 246.429 230.939 250.034 235.983V265.862C252.419 263.044 255.824 261.038 259.888 260.554C272.871 259.012 278.085 242.965 268.489 234.086C260.974 227.132 262.258 214.907 271.055 209.668" fill="#41AFE4"/></g></g></g><g id="Clothes/Jae" transform="translate(47.918 251.42) scale(1 1)"><g id="Clothes/Jae/Smooth Mixie"><g id="Group 15"><path id="Fill 1" fill-rule="evenodd" clip-rule="evenodd" d="M0 64.5816H208.214V1.0006H0V64.5816Z" fill="#00AFA9"/><g id="Group 14"><path id="Fill 2" fill-rule="evenodd" clip-rule="evenodd" d="M186 9.1363C178.411 19.5673 175.736 32.3183 179.018 42.4123C181.42 49.8073 186.709 55.0183 194.311 57.4823L194.617 57.5493C199.58 58.1263 204.114 56.8023 208.084 53.6343C208.129 53.5983 208.17 53.5573 208.214 53.5223V49.1753C207.537 49.9073 206.834 50.5723 206.104 51.1543C202.852 53.7433 199.168 54.8443 195.139 54.4143C188.625 52.2573 184.094 47.7713 182.035 41.4323C179.063 32.2863 181.564 20.6263 188.565 11.0023C191.451 7.0363 195.082 3.6893 199.191 1.0003H193.801C190.861 3.3623 188.225 6.0783 186 9.1363" fill="#E0BFDB"/><path id="Fill 4" fill-rule="evenodd" clip-rule="evenodd" d="M22.791 16.7403C27.33 12.6093 29.84 6.7083 29.818 1.0003H26.659C26.689 5.8283 24.541 10.8573 20.654 14.3933C20.042 14.9513 19.388 15.4723 18.697 15.9563C13.981 19.2643 7.584 20.8083 1.085 20.1263C0.722 20.0883 0.361 20.0313 0 19.9793V23.1813C0.252 23.2133 0.502 23.2563 0.754 23.2823C9.214 24.1703 17.241 21.7853 22.791 16.7403" fill="#E0BFDB"/><g id="Group 8"><path id="Fill 6" fill-rule="evenodd" clip-rule="evenodd" d="M34.4375 48.2291C29.1015 44.3541 21.9165 42.6781 14.2055 43.5091C9.17751 44.0501 4.36151 45.6801 -0.000488281 48.1341V51.8131C4.38851 49.0591 9.34151 47.2241 14.5445 46.6641C21.4725 45.9171 27.8755 47.3851 32.5725 50.7971C37.1895 54.1491 39.9195 59.4831 39.7915 64.5821H42.9625C43.0765 58.4831 39.8615 52.1681 34.4375 48.2291" fill="#E0BFDB"/></g><path id="Fill 9" fill-rule="evenodd" clip-rule="evenodd" d="M157.578 56.1705C154.377 49.3465 147.451 44.0695 140.345 43.0385C133.682 42.0725 127.273 43.5825 121.508 46.1205C121.566 44.2785 121.713 42.5945 121.883 41.1555C123.639 26.3945 129.763 12.3855 139.166 1.0005H135.09C126.221 12.4715 120.457 26.2805 118.732 40.7805C118.502 42.7185 118.316 45.0715 118.31 47.6605C113.726 50.0535 109.635 52.9695 106.269 55.5695C102.414 58.5475 98.9261 61.5485 95.7651 64.5815H100.41C102.82 62.4025 105.418 60.2375 108.209 58.0815C111.789 55.3165 115.18 53.0385 118.42 51.2295C118.698 55.5335 119.563 60.2125 121.502 64.5815H125.01C122.57 59.7915 121.682 54.4085 121.513 49.6235C128.139 46.4525 134.151 45.3475 139.89 46.1795C145.983 47.0625 151.937 51.6195 154.705 57.5185C155.833 59.9215 156.299 62.3165 156.152 64.5815H159.348C159.492 61.8585 158.91 59.0075 157.578 56.1705" fill="#E0BFDB"/><g id="Group 13"><path id="Fill 11" fill-rule="evenodd" clip-rule="evenodd" d="M98.58 1.0001H93.91C94.083 3.2151 94.047 5.3901 93.775 7.5151C92.927 14.1351 88.961 20.7051 83.425 24.6591C79.047 27.7601 74.164 28.9481 69.572 28.0041C67.014 27.4791 64.578 26.3421 62.531 24.7181C55.876 19.4371 54.368 8.5141 58.968 1.0001H55.351C51.019 9.7641 53.051 21.2451 60.559 27.2031C62.993 29.1351 65.89 30.4881 68.934 31.1131C74.336 32.2231 80.062 30.8941 85.086 27.3711C85.146 27.3281 85.209 27.2851 85.269 27.2411C91.5 22.7901 95.966 15.3861 96.922 7.9191C97.056 6.8811 97.141 5.8351 97.177 4.7801C101.124 12.1541 102.147 21.4071 100.371 29.2881C97.09 43.8471 86.45 55.7521 77.35 64.5821H81.865C90.707 55.7031 100.282 44.1161 103.467 29.9851C105.583 20.5961 104 9.4151 98.58 1.0001" fill="#E0BFDB"/></g></g></g></g></g></g></g><g id="Master/Worms/Mol" transform="translate(194.545 346.75) scale(1.3280730897009967 1.2166666666666666)"><g id="Master/Worms/Mol"><g id="Body/Mol" transform="translate(99.918 45.84) scale(1 1)"><g id="Body/Mol/Grey"><g id="Group 10"><g id="Group 3"><path id="Fill 1" fill-rule="evenodd" clip-rule="evenodd" d="M7.2251 70.6674V268.041H96.5611V70.6674C96.5611 45.9984 76.5621 25.9994 51.8931 25.9994C27.2231 25.9994 7.2251 45.9984 7.2251 70.6674Z" fill="#CBD3D8"/></g><path id="Fill 4" fill-rule="evenodd" clip-rule="evenodd" d="M49.7115 71.0883C49.7115 84.8163 38.5835 95.9443 24.8555 95.9443C11.1285 95.9443 0.000488281 84.8163 0.000488281 71.0883C0.000488281 57.3603 11.1285 46.2333 24.8555 46.2333C38.5835 46.2333 49.7115 57.3603 49.7115 71.0883" fill="#74BAB9"/><path id="Fill 6" fill-rule="evenodd" clip-rule="evenodd" d="M103.786 71.0883C103.786 84.8163 92.658 95.9443 78.93 95.9443C65.203 95.9443 54.075 84.8163 54.075 71.0883C54.075 57.3603 65.203 46.2333 78.93 46.2333C92.658 46.2333 103.786 57.3603 103.786 71.0883" fill="#74BAB9"/><path id="Fill 8" fill-rule="evenodd" clip-rule="evenodd" d="M7.2251 268.042H96.4901V123.015H7.2251V268.042Z" fill="#AAB8BF"/></g></g></g><g id="Eyes/Mol" transform="translate(127.918 109.84) scale(1 1)"><g id="Eyes/Mol/Happy"><g id="Group 7"><g id="Group 3"><path id="Fill 1" fill-rule="evenodd" clip-rule="evenodd" d="M44.0559 11.9119C43.2269 11.9119 42.4519 11.3919 42.1659 10.5639C42.0709 10.3089 41.0959 7.89992 38.3529 8.00292C35.3359 8.11092 34.5479 10.4909 34.5399 10.5149C34.2069 11.5679 33.0839 12.1519 32.0299 11.8179C30.9769 11.4849 30.3929 10.3609 30.7269 9.30792C30.7929 9.09992 32.4059 4.21192 38.2119 4.00592C42.8409 3.84292 45.2939 7.36992 45.9459 9.25892C46.3069 10.3029 45.7529 11.4409 44.7089 11.8019C44.4929 11.8769 44.2719 11.9119 44.0559 11.9119" fill="#101335"/></g><g id="Group 6"><path id="Fill 4" fill-rule="evenodd" clip-rule="evenodd" d="M14.4223 11.9119C13.5933 11.9119 12.8183 11.3919 12.5323 10.5639C12.4373 10.3089 11.4623 7.89591 8.71932 8.00291C5.82932 8.10591 4.98532 10.2919 4.89832 10.5409C4.53832 11.5739 3.41232 12.1409 2.37332 11.7949C1.33632 11.4499 0.763323 10.3499 1.09332 9.30791C1.15932 9.09991 2.77232 4.21191 8.57732 4.00591C13.1963 3.83291 15.6603 7.36991 16.3123 9.25891C16.6733 10.3029 16.1193 11.4409 15.0753 11.8019C14.8593 11.8769 14.6383 11.9119 14.4223 11.9119" fill="#101335"/></g></g></g></g><g id="Mouth/Mol" transform="translate(133.656 123.909) scale(0.9736842105263158 1)"><g id="Mouth/Mol/Laughing"><path id="Mouth" fill-rule="evenodd" clip-rule="evenodd" d="M19.6689 17.833C14.2649 17.833 9.45993 15.867 6.63793 14.024C3.86293 12.212 3.08293 8.49504 4.89593 5.72004C6.69693 2.95904 10.3879 2.17204 13.1599 3.95204C13.4949 4.16004 19.6749 7.90704 24.9259 4.13004C27.6169 2.19604 31.3649 2.80704 33.3009 5.49704C35.2349 8.18704 34.6229 11.937 31.9339 13.872C27.8859 16.784 23.6169 17.833 19.6689 17.833" fill="white"/></g></g><g id="Hair/Mol" transform="translate(88.918 7.84003) scale(1 1)"><g id="Hair/Mol/Head Scarf"><g id="Group 6"><g id="Group 3"><path id="Fill 1" fill-rule="evenodd" clip-rule="evenodd" d="M62.8708 140.89C41.9338 140.89 27.0738 128.452 27.0738 112.136C27.0738 89.7734 41.9188 75.0644 62.8548 75.0644C83.7918 75.0644 98.6368 90.2104 98.6368 112.136C98.6368 128.321 83.8078 140.89 62.8708 140.89M62.8558 63.8004V63.8004C38.2478 63.8004 18.2988 83.7484 18.2988 108.356V161.033H107.412V108.356C107.412 83.7484 87.4628 63.8004 62.8558 63.8004" fill="#BF62A2"/></g><path id="Fill 4" fill-rule="evenodd" clip-rule="evenodd" d="M39.168 83.2899H86.374C86.374 83.2899 78.274 75.0649 62.855 75.0649C46.95 75.0649 39.168 83.2899 39.168 83.2899" fill="#E0BFDB"/></g></g></g><g id="Clothes/Mol" transform="translate(107.117 168.84) scale(1 1)"><g id="Clothes/Mol/Pink Polkas"><g id="Group 31"><path id="Fill 1" fill-rule="evenodd" clip-rule="evenodd" d="M0 145.967H89.336V11.8H0V145.967Z" fill="#E0BFDB"/><g id="Group 30"><path id="Fill 2" fill-rule="evenodd" clip-rule="evenodd" d="M69.6711 68.921C64.3621 68.921 60.0591 73.221 60.0591 78.525C60.0591 83.83 64.3621 88.13 69.6711 88.13C74.9801 88.13 79.2831 83.83 79.2831 78.525C79.2831 73.221 74.9801 68.921 69.6711 68.921" fill="#F285B6"/><g id="Group 6"><path id="Fill 4" fill-rule="evenodd" clip-rule="evenodd" d="M77.9033 36.8405C77.9033 42.1445 82.2063 46.4445 87.5153 46.4445C88.1383 46.4445 88.7463 46.3815 89.3363 46.2675V27.4135C88.7463 27.2995 88.1383 27.2355 87.5153 27.2355C82.2063 27.2355 77.9033 31.5365 77.9033 36.8405" fill="#F285B6"/></g><path id="Fill 7" fill-rule="evenodd" clip-rule="evenodd" d="M56.3183 43.6623C56.3183 38.3573 52.0143 34.0573 46.7053 34.0573C41.3973 34.0573 37.0933 38.3573 37.0933 43.6623C37.0933 48.9663 41.3973 53.2663 46.7053 53.2663C52.0143 53.2663 56.3183 48.9663 56.3183 43.6623" fill="#F285B6"/><path id="Fill 9" fill-rule="evenodd" clip-rule="evenodd" d="M26.2424 77.0187C20.9334 77.0187 16.6304 81.3187 16.6304 86.6237C16.6304 91.9277 20.9334 96.2277 26.2424 96.2277C31.5514 96.2277 35.8544 91.9277 35.8544 86.6237C35.8544 81.3187 31.5514 77.0187 26.2424 77.0187" fill="#F285B6"/><path id="Fill 11" fill-rule="evenodd" clip-rule="evenodd" d="M50.6828 106.382C45.3738 106.382 41.0708 110.682 41.0708 115.987C41.0708 121.291 45.3738 125.591 50.6828 125.591C55.9918 125.591 60.2948 121.291 60.2948 115.987C60.2948 110.682 55.9918 106.382 50.6828 106.382" fill="#F285B6"/><path id="Fill 13" fill-rule="evenodd" clip-rule="evenodd" d="M82.6211 112.759C82.6211 117.054 85.4441 120.689 89.3361 121.917V103.6C85.4441 104.828 82.6211 108.463 82.6211 112.759" fill="#F285B6"/><path id="Fill 15" fill-rule="evenodd" clip-rule="evenodd" d="M73.0085 139.63C68.8495 139.63 65.3185 142.274 63.9795 145.966H82.0375C80.6985 142.274 77.1665 139.63 73.0085 139.63" fill="#F285B6"/><path id="Fill 17" fill-rule="evenodd" clip-rule="evenodd" d="M18.6872 139.521C14.4872 139.521 10.9262 142.216 9.61719 145.967H27.7562C26.4482 142.216 22.8872 139.521 18.6872 139.521" fill="#F285B6"/><g id="Group 21"><path id="Fill 19" fill-rule="evenodd" clip-rule="evenodd" d="M61.3513 16.9059C65.0323 16.9059 68.2273 14.8369 69.8413 11.7999H52.8613C54.4763 14.8369 57.6703 16.9059 61.3513 16.9059" fill="#F285B6"/></g><g id="Group 24"><path id="Fill 22" fill-rule="evenodd" clip-rule="evenodd" d="M15.5886 16.9059C19.2696 16.9059 22.4636 14.8369 24.0786 11.7999H7.09863C8.71263 14.8369 11.9076 16.9059 15.5886 16.9059" fill="#F285B6"/></g><g id="Group 27"><path id="Fill 25" fill-rule="evenodd" clip-rule="evenodd" d="M6.385 119.7C6.385 115.529 3.719 111.989 0 110.662V128.738C3.719 127.411 6.385 123.871 6.385 119.7" fill="#F285B6"/></g><path id="Fill 28" fill-rule="evenodd" clip-rule="evenodd" d="M12.3825 47.1686C12.3825 41.8646 8.07949 37.5646 2.77049 37.5646C1.80649 37.5646 0.878488 37.7096 0.000488281 37.9736V56.3646C0.878488 56.6276 1.80649 56.7736 2.77049 56.7736C8.07949 56.7736 12.3825 52.4736 12.3825 47.1686" fill="#F285B6"/></g></g></g></g></g></g><g id="Master/Worms/Poh" transform="translate(349.115 346.75) scale(1.3280730897009967 1.2166666666666666)"><g id="Master/Worms/Poh"><g id="Body/Poh" transform="translate(92.457 113.4) scale(1 1)"><g id="Body/Poh/Periwinkle"><g id="Group 11"><g id="Group 3"><path id="Fill 1" fill-rule="evenodd" clip-rule="evenodd" d="M118.501 81.3973C118.501 74.8333 115.577 68.9623 110.977 64.9783C115.577 60.9943 118.501 55.1233 118.501 48.5593C118.501 36.5593 108.772 26.8313 96.7722 26.8313C96.5582 26.8313 96.3502 26.8563 96.1372 26.8633C96.5372 25.2143 96.7722 23.5013 96.7722 21.7293C96.7722 9.7283 87.0442 0.000299931 75.0442 0.000299931C69.0782 0.000299931 63.6772 2.4083 59.7502 6.3003C55.8242 2.4083 50.4232 0.000299931 44.4572 0.000299931C32.4562 0.000299931 22.7282 9.7283 22.7282 21.7293C22.7282 23.5013 22.9642 25.2143 23.3632 26.8633C23.1502 26.8563 22.9422 26.8313 22.7282 26.8313C10.7282 26.8313 1.00024 36.5593 1.00024 48.5593C1.00024 55.1233 3.92324 60.9943 8.52424 64.9783C3.92324 68.9623 1.00024 74.8333 1.00024 81.3973C1.00024 87.9613 3.92324 93.8323 8.52424 97.8163C3.92324 101.8 1.00024 107.671 1.00024 114.235C1.00024 120.799 3.92324 126.669 8.52424 130.653C3.92324 134.638 1.00024 140.508 1.00024 147.072C1.00024 153.637 3.92324 159.507 8.52424 163.492C3.92324 167.476 1.00024 173.346 1.00024 179.91C1.00024 191.305 9.77625 200.634 20.9362 201.548L20.9332 201.639H96.7722C108.772 201.639 118.501 191.91 118.501 179.91C118.501 173.346 115.578 167.476 110.977 163.492C115.578 159.507 118.501 153.637 118.501 147.072C118.501 140.508 115.578 134.638 110.977 130.653C115.578 126.669 118.501 120.799 118.501 114.235C118.501 107.671 115.578 101.8 110.977 97.8163C115.578 93.8323 118.501 87.9613 118.501 81.3973" fill="#96A5D4"/></g><g id="Group 6"><path id="Fill 4" fill-rule="evenodd" clip-rule="evenodd" d="M2.11824 88.2821L2.33624 88.4791C4.63924 90.6791 7.57324 90.6791 9.87624 88.4791L10.0362 88.3251C12.3542 86.1101 15.3122 86.1261 17.6202 88.3671C19.9422 90.6231 22.9242 90.6231 25.2462 88.3671C27.5542 86.1261 30.5122 86.1101 32.8292 88.3241L32.9802 88.4691C35.2822 90.6681 38.2172 90.6681 40.5192 88.4691L40.7012 88.2951C43.0032 86.0951 45.9372 86.0951 48.2392 88.2951L48.3592 88.4091C50.6612 90.6091 53.5962 90.6091 55.8982 88.4091L56.1412 88.1761C58.4432 85.9761 61.3792 85.9761 63.6812 88.1761L63.8002 88.2901C66.1022 90.4901 69.0372 90.4901 71.3392 88.2901L71.3962 88.2361C73.6982 86.0361 76.6332 86.0361 78.9352 88.2361L79.0722 88.3661C81.3742 90.5661 84.3082 90.5661 86.6112 88.3661L86.7062 88.2761C89.0082 86.0761 91.9432 86.0761 94.2452 88.2761L94.3512 88.3771C96.6532 90.5771 99.5892 90.5771 101.89 88.3771L102.147 88.1321C104.449 85.9321 107.385 85.9321 109.686 88.1321L109.896 88.3321C112.198 90.5321 115.031 90.6261 117.333 88.4271C116.072 92.0991 113.852 95.3261 110.976 97.8161C115.578 101.8 118.501 107.671 118.501 114.235C118.501 120.8 115.578 126.67 110.976 130.654C115.578 134.638 118.501 140.509 118.501 147.073C118.501 153.637 115.578 159.507 110.976 163.492C115.578 167.476 118.501 173.346 118.501 179.91C118.501 191.91 108.772 201.639 96.7722 201.639H20.9322L20.9352 201.549C9.77624 200.635 1.00024 191.305 1.00024 179.91C1.00024 173.346 3.92324 167.476 8.52424 163.492C3.92324 159.507 1.00024 153.637 1.00024 147.073C1.00024 140.509 3.92324 134.638 8.52424 130.654C3.92324 126.67 1.00024 120.8 1.00024 114.235C1.00024 107.671 3.92324 101.8 8.52424 97.8161C5.61024 95.2931 3.37024 92.0141 2.11824 88.2821" fill="#7083B2"/></g><path id="Fill 7" fill-rule="evenodd" clip-rule="evenodd" d="M58.2013 46.8197C58.2013 56.5687 50.2983 64.4717 40.5493 64.4717C30.7993 64.4717 22.8953 56.5687 22.8953 46.8197C22.8953 37.0697 30.7993 29.1677 40.5493 29.1677C50.2983 29.1677 58.2013 37.0697 58.2013 46.8197" fill="#E0BFDB"/><path id="Fill 9" fill-rule="evenodd" clip-rule="evenodd" d="M96.6048 46.8197C96.6048 56.5687 88.7018 64.4717 78.9528 64.4717C69.2038 64.4717 61.2998 56.5687 61.2998 46.8197C61.2998 37.0697 69.2038 29.1677 78.9528 29.1677C88.7018 29.1677 96.6048 37.0697 96.6048 46.8197" fill="#E0BFDB"/></g></g></g><g id="Eyes/Poh" transform="translate(131.918 153.017) scale(1 1)"><g id="Eyes/Poh/Naughty"><g id="Group 7"><g id="Group 3"><path id="Fill 1" fill-rule="evenodd" clip-rule="evenodd" d="M8.50139 12.5768C8.00939 12.5768 7.52539 12.3338 7.23939 11.8898C6.79039 11.1928 6.99139 10.2638 7.68839 9.81579L11.5354 7.33679L7.99939 4.70279C7.33539 4.20779 7.19739 3.26779 7.69239 2.60379C8.18839 1.93879 9.12639 1.80279 9.79239 2.29779L14.3064 5.65979C14.8724 6.08179 15.1954 6.75579 15.1724 7.46179C15.1474 8.16679 14.7784 8.81679 14.1854 9.19879L9.31339 12.3378C9.06239 12.4998 8.77939 12.5768 8.50139 12.5768" fill="#101335"/></g><g id="Group 6"><path id="Fill 4" fill-rule="evenodd" clip-rule="evenodd" d="M29.4054 10.026V10.026C28.0224 10.026 26.9014 8.905 26.9014 7.522V5.013C26.9014 3.63 28.0224 2.508 29.4054 2.508C30.7894 2.508 31.9104 3.63 31.9104 5.013V7.522C31.9104 8.905 30.7894 10.026 29.4054 10.026" fill="#101335"/></g></g></g></g><g id="Mouth/Poh" transform="translate(131.904 166.433) scale(0.975609756097561 1)"><g id="Mouth/Poh/Surprised"><path id="Fill 1" fill-rule="evenodd" clip-rule="evenodd" d="M20.957 18.0778C15.965 18.0778 11.918 14.0308 11.918 9.03882C11.918 4.04682 15.965 -0.000183105 20.957 -0.000183105C25.948 -0.000183105 29.995 4.04682 29.995 9.03882C29.995 14.0308 25.948 18.0778 20.957 18.0778Z" fill="white"/></g></g><g id="Hair/Poh" transform="translate(80.918 60.5) scale(1 1)"><g id="Hair/Poh/Blue Puff"><g id="Group 3"><path id="Fill 1" fill-rule="evenodd" clip-rule="evenodd" d="M49 48.0217C49 42.3037 52.794 39.0007 52.794 39.0007C64.94 51.0377 80.228 41.8237 92.586 41.8237C102.95 41.8237 112.475 50.8667 112.475 62.3137C112.475 68.1407 110.192 72.2767 108.478 74.5887C108.478 74.5887 106.599 70.1677 102.486 66.6387C97.378 62.2547 90.944 62.9987 89.445 71.2167C87.893 79.7277 80.718 86.3357 71.796 86.3357C61.932 86.3357 53.935 78.3387 53.935 68.4737C53.935 65.2317 54.799 62.1907 56.309 59.5697C51.547 57.1577 48.999 52.8317 49 48.0217" fill="#41AFE4"/></g></g></g><g id="Clothes/Poh" transform="translate(92.918 199) scale(1 1)"><g id="Clothes/Poh/Snow Crystals"><g id="Group 23"><g id="Group 3"><path id="Fill 1" fill-rule="evenodd" clip-rule="evenodd" d="M8.07429 12.2082L8.30529 12.4242C10.3513 14.3792 12.9593 14.3792 15.0043 12.4242L15.1473 12.2882C17.2073 10.3192 19.8353 10.3342 21.8853 12.3252C23.9483 14.3292 26.5963 14.3292 28.6603 12.3252C30.7103 10.3342 33.3383 10.3192 35.3973 12.2872L35.5313 12.4152C37.5763 14.3702 40.1833 14.3702 42.2293 12.4152L42.3903 12.2612C44.4353 10.3072 47.0433 10.3072 49.0883 12.2612L49.1943 12.3622C51.2393 14.3172 53.8463 14.3172 55.8923 12.3622L56.1093 12.1552C58.1543 10.2012 60.7623 10.2012 62.8063 12.1552L62.9133 12.2572C64.9583 14.2112 67.5653 14.2112 69.6103 12.2572L69.6613 12.2082C71.7073 10.2542 74.3143 10.2542 76.3593 12.2082L76.4813 12.3242C78.5263 14.2792 81.1343 14.2792 83.1783 12.3242L83.2633 12.2442C85.3083 10.2892 87.9163 10.2892 89.9623 12.2442L90.0553 12.3342C92.1003 14.2882 94.7093 14.2882 96.7543 12.3342L96.9823 12.1162C99.0273 10.1612 101.635 10.1612 103.679 12.1162L103.866 12.2932C105.911 14.2482 108.481 14.1632 110.526 12.2082C115.128 16.1922 118.051 22.0632 118.051 28.6272C118.051 35.1912 115.128 41.0622 110.526 45.0462C115.128 49.0302 118.051 54.9002 118.051 61.4652C118.051 68.0292 115.128 73.8992 110.526 77.8842C115.128 81.8682 118.051 87.7382 118.051 94.3022C118.051 106.302 108.323 116.031 96.3233 116.031H20.4833L20.4863 115.94C9.32629 115.026 0.550293 105.697 0.550293 94.3022C0.550293 87.7382 3.47329 81.8682 8.07429 77.8842C3.47329 73.8992 0.550293 68.0292 0.550293 61.4652C0.550293 54.9002 3.47329 49.0302 8.07429 45.0462C3.47329 41.0622 0.550293 35.1912 0.550293 28.6272C0.550293 22.0632 3.47329 16.1922 8.07429 12.2082" fill="#9FD5DD"/></g><g id="Group 6"><path id="Fill 4" fill-rule="evenodd" clip-rule="evenodd" d="M0.549805 61.4646C0.549805 68.0286 3.4738 73.8996 8.0738 77.8836C7.9158 78.0206 7.7648 78.1656 7.6108 78.3066H110.99C110.836 78.1656 110.685 78.0206 110.527 77.8836C115.128 73.8996 118.051 68.0286 118.051 61.4646C118.051 54.9006 115.128 49.0296 110.527 45.0456H8.0738C3.4738 49.0296 0.549805 54.9006 0.549805 61.4646" fill="#5473B8"/></g><path id="Fill 7" fill-rule="evenodd" clip-rule="evenodd" d="M27.047 29.5642H23.143L24.849 27.8592C25.243 27.4652 25.243 26.8252 24.849 26.4302C24.454 26.0362 23.815 26.0362 23.42 26.4302L21.715 28.1362V24.2312C21.715 23.6742 21.262 23.2212 20.704 23.2212C20.147 23.2212 19.694 23.6742 19.694 24.2312V28.1352L17.989 26.4302C17.595 26.0362 16.955 26.0362 16.561 26.4302C16.166 26.8252 16.166 27.4652 16.561 27.8592L18.267 29.5642H14.362C13.805 29.5642 13.353 30.0172 13.353 30.5742C13.353 31.1322 13.805 31.5842 14.362 31.5842H18.267L16.561 33.2902C16.166 33.6842 16.166 34.3232 16.561 34.7182C16.758 34.9152 17.017 35.0142 17.276 35.0142C17.533 35.0142 17.792 34.9152 17.989 34.7182L19.694 33.0132V36.9172C19.694 37.4752 20.147 37.9272 20.704 37.9272C21.262 37.9272 21.715 37.4752 21.715 36.9172V33.0122L23.42 34.7182C23.617 34.9152 23.876 35.0142 24.134 35.0142C24.393 35.0142 24.651 34.9152 24.849 34.7182C25.243 34.3232 25.243 33.6842 24.849 33.2902L23.143 31.5842H27.047C27.605 31.5842 28.057 31.1322 28.057 30.5742C28.057 30.0172 27.605 29.5642 27.047 29.5642" fill="white"/><path id="Fill 9" fill-rule="evenodd" clip-rule="evenodd" d="M64.2785 29.5642H60.3745L62.0795 27.8592C62.4735 27.4652 62.4735 26.8252 62.0795 26.4302C61.6845 26.0362 61.0465 26.0362 60.6515 26.4302L58.9465 28.1352V24.2312C58.9465 23.6742 58.4945 23.2212 57.9355 23.2212C57.3785 23.2212 56.9255 23.6742 56.9255 24.2312V28.1362L55.2205 26.4302C54.8265 26.0362 54.1865 26.0362 53.7925 26.4302C53.3975 26.8252 53.3975 27.4652 53.7925 27.8592L55.4975 29.5642H51.5935C51.0355 29.5642 50.5835 30.0172 50.5835 30.5742C50.5835 31.1322 51.0355 31.5842 51.5935 31.5842H55.4975L53.7925 33.2902C53.3975 33.6842 53.3975 34.3232 53.7925 34.7182C53.9895 34.9152 54.2485 35.0142 54.5065 35.0142C54.7645 35.0142 55.0235 34.9152 55.2205 34.7182L56.9255 33.0122V36.9172C56.9255 37.4752 57.3785 37.9272 57.9355 37.9272C58.4945 37.9272 58.9465 37.4752 58.9465 36.9172V33.0132L60.6515 34.7182C60.8485 34.9152 61.1065 35.0142 61.3655 35.0142C61.6245 35.0142 61.8825 34.9152 62.0795 34.7182C62.4735 34.3232 62.4735 33.6842 62.0795 33.2902L60.3745 31.5842H64.2785C64.8375 31.5842 65.2895 31.1322 65.2895 30.5742C65.2895 30.0172 64.8375 29.5642 64.2785 29.5642" fill="white"/><path id="Fill 11" fill-rule="evenodd" clip-rule="evenodd" d="M101.51 29.5642H97.6059L99.3119 27.8592C99.7059 27.4652 99.7059 26.8252 99.3119 26.4302C98.9169 26.0362 98.2779 26.0362 97.8829 26.4302L96.1779 28.1362V24.2312C96.1779 23.6742 95.7249 23.2212 95.1669 23.2212C94.6099 23.2212 94.1569 23.6742 94.1569 24.2312V28.1352L92.4519 26.4302C92.0579 26.0362 91.4179 26.0362 91.0239 26.4302C90.6289 26.8252 90.6289 27.4652 91.0239 27.8592L92.7299 29.5642H88.8249C88.2679 29.5642 87.8159 30.0172 87.8159 30.5742C87.8159 31.1322 88.2679 31.5842 88.8249 31.5842H92.7299L91.0239 33.2902C90.6289 33.6842 90.6289 34.3232 91.0239 34.7182C91.2209 34.9152 91.4799 35.0142 91.7389 35.0142C91.9959 35.0142 92.2549 34.9152 92.4519 34.7182L94.1569 33.0132V36.9172C94.1569 37.4752 94.6099 37.9272 95.1669 37.9272C95.7249 37.9272 96.1779 37.4752 96.1779 36.9172V33.0122L97.8829 34.7182C98.0799 34.9152 98.3389 35.0142 98.5969 35.0142C98.8559 35.0142 99.1139 34.9152 99.3119 34.7182C99.7059 34.3232 99.7059 33.6842 99.3119 33.2902L97.6059 31.5842H101.51C102.068 31.5842 102.52 31.1322 102.52 30.5742C102.52 30.0172 102.068 29.5642 101.51 29.5642" fill="white"/><path id="Fill 13" fill-rule="evenodd" clip-rule="evenodd" d="M27.047 95.4885H23.143L24.849 93.7835C25.243 93.3895 25.243 92.7495 24.849 92.3555C24.454 91.9605 23.815 91.9605 23.42 92.3555L21.715 94.0605V90.1555C21.715 89.5985 21.262 89.1455 20.704 89.1455C20.147 89.1455 19.694 89.5985 19.694 90.1555V94.0605L17.989 92.3555C17.595 91.9605 16.955 91.9605 16.561 92.3555C16.166 92.7495 16.166 93.3895 16.561 93.7835L18.267 95.4885H14.362C13.805 95.4885 13.353 95.9415 13.353 96.4985C13.353 97.0565 13.805 97.5085 14.362 97.5085H18.267L16.561 99.2145C16.166 99.6085 16.166 100.247 16.561 100.642C16.758 100.839 17.017 100.939 17.276 100.939C17.533 100.939 17.792 100.839 17.989 100.642L19.694 98.9375V102.842C19.694 103.4 20.147 103.852 20.704 103.852C21.262 103.852 21.715 103.4 21.715 102.842V98.9365L23.42 100.642C23.617 100.839 23.876 100.939 24.134 100.939C24.393 100.939 24.651 100.839 24.849 100.642C25.243 100.247 25.243 99.6085 24.849 99.2145L23.143 97.5085H27.047C27.605 97.5085 28.057 97.0565 28.057 96.4985C28.057 95.9415 27.605 95.4885 27.047 95.4885" fill="white"/><path id="Fill 15" fill-rule="evenodd" clip-rule="evenodd" d="M64.2785 95.4885H60.3745L62.0795 93.7835C62.4735 93.3895 62.4735 92.7495 62.0795 92.3555C61.6845 91.9605 61.0465 91.9605 60.6515 92.3555L58.9465 94.0605V90.1555C58.9465 89.5985 58.4945 89.1455 57.9355 89.1455C57.3785 89.1455 56.9255 89.5985 56.9255 90.1555V94.0605L55.2205 92.3555C54.8265 91.9605 54.1865 91.9605 53.7925 92.3555C53.3975 92.7495 53.3975 93.3895 53.7925 93.7835L55.4975 95.4885H51.5935C51.0355 95.4885 50.5835 95.9415 50.5835 96.4985C50.5835 97.0565 51.0355 97.5085 51.5935 97.5085H55.4975L53.7925 99.2145C53.3975 99.6085 53.3975 100.247 53.7925 100.642C53.9895 100.839 54.2485 100.939 54.5065 100.939C54.7645 100.939 55.0235 100.839 55.2205 100.642L56.9255 98.9365V102.842C56.9255 103.4 57.3785 103.852 57.9355 103.852C58.4945 103.852 58.9465 103.4 58.9465 102.842V98.9375L60.6515 100.642C60.8485 100.839 61.1065 100.939 61.3655 100.939C61.6245 100.939 61.8825 100.839 62.0795 100.642C62.4735 100.247 62.4735 99.6085 62.0795 99.2145L60.3745 97.5085H64.2785C64.8375 97.5085 65.2895 97.0565 65.2895 96.4985C65.2895 95.9415 64.8375 95.4885 64.2785 95.4885" fill="white"/><path id="Fill 17" fill-rule="evenodd" clip-rule="evenodd" d="M101.51 95.4885H97.6059L99.3119 93.7835C99.7059 93.3895 99.7059 92.7495 99.3119 92.3555C98.9169 91.9605 98.2779 91.9605 97.8829 92.3555L96.1779 94.0605V90.1555C96.1779 89.5985 95.7249 89.1455 95.1669 89.1455C94.6099 89.1455 94.1569 89.5985 94.1569 90.1555V94.0605L92.4519 92.3555C92.0579 91.9605 91.4179 91.9605 91.0239 92.3555C90.6289 92.7495 90.6289 93.3895 91.0239 93.7835L92.7299 95.4885H88.8249C88.2679 95.4885 87.8159 95.9415 87.8159 96.4985C87.8159 97.0565 88.2679 97.5085 88.8249 97.5085H92.7299L91.0239 99.2145C90.6289 99.6085 90.6289 100.247 91.0239 100.642C91.2209 100.839 91.4799 100.939 91.7389 100.939C91.9959 100.939 92.2549 100.839 92.4519 100.642L94.1569 98.9375V102.842C94.1569 103.4 94.6099 103.852 95.1669 103.852C95.7249 103.852 96.1779 103.4 96.1779 102.842V98.9365L97.8829 100.642C98.0799 100.839 98.3389 100.939 98.5969 100.939C98.8559 100.939 99.1139 100.839 99.3119 100.642C99.7059 100.247 99.7059 99.6085 99.3119 99.2145L97.6059 97.5085H101.51C102.068 97.5085 102.52 97.0565 102.52 96.4985C102.52 95.9415 102.068 95.4885 101.51 95.4885" fill="white"/><path id="Fill 19" fill-rule="evenodd" clip-rule="evenodd" d="M44.4865 60.3659H40.5835L42.2875 58.6609C42.6825 58.2669 42.6825 57.6269 42.2875 57.2329C41.8925 56.8379 41.2545 56.8379 40.8595 57.2329L39.1545 58.9379V55.0329C39.1545 54.4759 38.7025 54.0239 38.1445 54.0239C37.5865 54.0239 37.1335 54.4759 37.1335 55.0329V58.9379L35.4285 57.2329C35.0345 56.8379 34.3945 56.8379 34.0005 57.2329C33.6055 57.6269 33.6055 58.2669 34.0005 58.6609L35.7055 60.3659H31.8015C31.2445 60.3659 30.7915 60.8189 30.7915 61.3759C30.7915 61.9339 31.2445 62.3869 31.8015 62.3869H35.7055L34.0005 64.0919C33.6055 64.4859 33.6055 65.1259 34.0005 65.5199C34.1975 65.7179 34.4565 65.8159 34.7155 65.8159C34.9725 65.8159 35.2315 65.7179 35.4285 65.5199L37.1335 63.8149V67.7189C37.1335 68.2769 37.5865 68.7289 38.1445 68.7289C38.7025 68.7289 39.1545 68.2769 39.1545 67.7189V63.8149L40.8595 65.5199C41.0565 65.7179 41.3155 65.8159 41.5735 65.8159C41.8325 65.8159 42.0905 65.7179 42.2875 65.5199C42.6825 65.1259 42.6825 64.4859 42.2875 64.0919L40.5825 62.3869H44.4865C45.0455 62.3869 45.4975 61.9339 45.4975 61.3759C45.4975 60.8189 45.0455 60.3659 44.4865 60.3659" fill="white"/><path id="Fill 21" fill-rule="evenodd" clip-rule="evenodd" d="M82.9191 60.3659H79.0161L80.7201 58.6609C81.1151 58.2669 81.1151 57.6269 80.7201 57.2329C80.3251 56.8379 79.6871 56.8379 79.2921 57.2329L77.5871 58.9379V55.0329C77.5871 54.4759 77.1351 54.0239 76.5771 54.0239C76.0191 54.0239 75.5661 54.4759 75.5661 55.0329V58.9379L73.8611 57.2329C73.4671 56.8379 72.8271 56.8379 72.4331 57.2329C72.0381 57.6269 72.0381 58.2669 72.4331 58.6609L74.1381 60.3659H70.2341C69.6771 60.3659 69.2241 60.8189 69.2241 61.3759C69.2241 61.9339 69.6771 62.3869 70.2341 62.3869H74.1381L72.4331 64.0919C72.0381 64.4859 72.0381 65.1259 72.4331 65.5199C72.6301 65.7179 72.8891 65.8159 73.1481 65.8159C73.4051 65.8159 73.6641 65.7179 73.8611 65.5199L75.5661 63.8149V67.7189C75.5661 68.2769 76.0191 68.7289 76.5771 68.7289C77.1351 68.7289 77.5871 68.2769 77.5871 67.7189V63.8149L79.2921 65.5199C79.4891 65.7179 79.7481 65.8159 80.0061 65.8159C80.2651 65.8159 80.5231 65.7179 80.7201 65.5199C81.1151 65.1259 81.1151 64.4859 80.7201 64.0919L79.0151 62.3869H82.9191C83.4781 62.3869 83.9301 61.9339 83.9301 61.3759C83.9301 60.8189 83.4781 60.3659 82.9191 60.3659" fill="white"/></g></g></g></g></g></g></svg>