<svg width="312" height="312" fill="none" xmlns="http://www.w3.org/2000/svg"><path fill-rule="evenodd" clip-rule="evenodd" d="M309.392 0v312H2V0h307.392ZM136.636 9.693c-20.387.172-41.087.752-61.334 2.74-1.96.193-3.944.361-5.943.527l-1 .082c-.835.069-1.671.137-2.509.208l-1.005.085-1.006.087C50.926 14.56 37.944 16.37 28.293 24.464c-11.042 9.262-13.2 22.078-14.197 34.695l-.068.88c-.077 1.026-.148 2.05-.216 3.07l-.058.874-.086 1.306c-1.22 18.478-.366 36.967-1.424 55.454-2.02 35.294-2.163 70.593-.287 105.875a384.201 384.201 0 0 0 2.077 24.516c.95 8.09 1.012 16.573 2.68 24.552 3.093 14.787 16.546 22.775 32.56 24.559 6.697.746 11.15.695 11.144.813l29.461.547c3.162.066 6.321-.158 9.472-.408l2.099-.167c3.147-.248 6.285-.463 9.409-.382 21.013.545 42.037 1.104 63.044 1.547 20.375.429 40.773-.008 61.116-.913 15.656-.696 36.315-2.551 47.115-13.981 11.381-12.043 12.716-31.277 15.076-46.035 2.215-13.851 2.585-27.991 3.017-42.035l.077-2.477c.105-3.301.22-6.596.369-9.879.952-20.972.038-42.383-.854-63.359-.895-21.06-1.497-42.102-2.485-63.153-.045-.958-.087-1.915-.129-2.87l-.083-1.912c-.346-7.959-.726-15.863-2.191-23.773-.246-1.334-3.645-15.11-10.078-18.56-7.462-4.004-18.085-3.055-26.421-2.957-2.781.033-5.557.113-8.337.164-37.782-1.168-75.677-1.08-113.459-.762Z" fill="#fff"/><path fill-rule="evenodd" clip-rule="evenodd" d="M135.892 6.213c38.801-.328 77.718-.419 116.519.785 2.855-.052 5.705-.135 8.562-.169 8.561-.1 19.47-1.079 27.134 3.047 6.605 3.556 10.096 17.754 10.349 19.129 1.805 9.783 2.007 19.557 2.468 29.43 1.015 21.696 1.633 43.382 2.552 65.087.916 21.618 1.855 43.685.877 65.299a849.676 849.676 0 0 0-.449 12.451l-.077 2.499c-.419 13.744-.872 27.56-3.031 41.107-2.423 15.21-3.794 35.033-15.481 47.446-11.093 11.779-32.308 12.258-48.386 12.975-20.892.933-41.84 1.383-62.765.941-21.573-.457-43.164-1.033-64.743-1.595-7.13-.186-14.33-.296-21.546-.446l-30.256.869c.007-.121.04-.239.078-.355a.983.983 0 0 0-.085.355c-.07-.002-4.56-.069-11.437-.838-16.446-1.839-30.262-8.638-33.438-23.878-.98-4.699-1.42-9.568-1.8-14.433l-.14-1.824c-.232-3.039-.464-6.069-.813-9.046a397.257 397.257 0 0 1-2.133-25.268c-1.926-36.362-.393-72.742 1.682-109.117.46-8.061.568-16.122.634-24.183l.034-4.397c.073-9.526.168-19.05.795-28.573l.059-.897c.962-14.666 2.037-30.3 14.96-41.178 9.912-8.343 22.42-10.208 35.304-11.38l1.004-.09c.67-.06 1.341-.117 2.013-.174l1.008-.085 1.512-.128 1.513-.128c.505-.044 1.009-.087 1.513-.132l1.008-.091c.672-.061 1.343-.125 2.014-.191 20.793-2.05 42.052-2.648 62.988-2.824Zm.745 3.48c-20.387.172-41.087.752-61.334 2.74-1.96.193-3.944.361-5.943.527l-1 .082c-.835.069-1.671.137-2.508.208l-1.006.085-1.006.087C50.927 14.56 37.946 16.37 28.294 24.464c-11.042 9.262-13.2 22.078-14.197 34.695l-.068.88c-.077 1.026-.147 2.05-.216 3.07l-.058.874-.086 1.306c-1.22 18.478-.366 36.967-1.424 55.454-2.02 35.294-2.162 70.593-.287 105.875a384.056 384.056 0 0 0 2.077 24.516c.95 8.09 1.012 16.573 2.68 24.552 3.093 14.787 16.546 22.775 32.56 24.559 6.697.746 11.151.695 11.144.813l29.462.547c3.162.066 6.32-.158 9.471-.408l2.099-.167c3.147-.248 6.285-.463 9.41-.382 21.012.545 42.036 1.104 63.043 1.547 20.375.429 40.773-.008 61.117-.913 15.655-.696 36.314-2.551 47.115-13.981 11.38-12.043 12.715-31.277 15.075-46.035 2.215-13.851 2.585-27.991 3.017-42.035l.077-2.477c.105-3.301.22-6.596.369-9.879.952-20.972.038-42.383-.854-63.359-.895-21.06-1.497-42.102-2.485-63.153-.045-.958-.087-1.915-.129-2.87l-.083-1.912c-.346-7.959-.726-15.863-2.191-23.773-.246-1.334-3.645-15.11-10.077-18.56-7.463-4.004-18.086-3.055-26.422-2.957-2.781.033-5.557.113-8.337.164-37.782-1.168-75.677-1.08-113.459-.762Z" fill="#000"/><path fill-rule="evenodd" clip-rule="evenodd" d="M14.941 282.361c4.994 12.027 17.24 17.671 31.471 19.355 6.737.797 11.167.876 11.347.879l.005.001c.007.392.016.787.006 0l30.028-.913c.056-.934.03-.468.002 0 2.415.053 4.829.101 7.238.15 4.734.095 9.454.19 14.143.319l6.696.185c19.186.53 38.38 1.06 57.56 1.49 20.766.464 41.557-.008 62.291-.988l1.836-.085c15.703-.724 35.594-1.641 46.185-13.543 4.333-4.87 7.238-10.827 9.301-17.211-2.268 3.541-5.222 6.8-9.118 9.612-10.704 11.624-30.807 12.519-46.676 13.225l-1.856.084c-20.954.956-41.966 1.418-62.954.964-19.385-.419-38.783-.937-58.175-1.455l-6.764-.18c-4.742-.127-9.514-.219-14.301-.312-2.434-.047-4.871-.094-7.31-.146l-30.348.891c.008-.124.04-.245.079-.364-.05.117-.08.238-.085.364h-.005c-.182-.003-4.658-.08-11.468-.859-10.916-1.248-21.973-4.724-29.128-11.463Zm42.907 19.862c-.039.122-.07.245-.078.373a.948.948 0 0 1 .078-.373Z" fill="#7631FF"/><path d="m14.941 282.361 1.029-1.092-2.414 1.667 1.385-.575Zm31.471 19.355.176-1.49-.176 1.49Zm11.347.879.027-1.499-.027 1.499Zm.005.001 1.5-.029-.028-1.445-1.445-.026-.027 1.5Zm30.034-.913.046 1.499 1.37-.041.081-1.369-1.497-.089Zm.002 0-1.497-.088-.09 1.553 1.554.035.033-1.5Zm7.238.15-.03 1.5.03-1.5Zm14.143.319-.041 1.499.041-1.499Zm6.696.185.041-1.5-.041 1.5Zm57.56 1.49-.034 1.499.034-1.499Zm62.291-.988-.071-1.498.071 1.498Zm1.836-.085-.069-1.499.069 1.499Zm46.185-13.543 1.121.997-1.121-.997ZM293.05 272l1.427.461-2.69-1.27 1.263.809Zm-9.118 9.612-.878-1.216-.123.089-.102.111 1.103 1.016Zm-46.676 13.225.066 1.499-.066-1.499Zm-1.856.084-.068-1.499.068 1.499Zm-62.954.964-.032 1.5.032-1.5Zm-58.175-1.455-.04 1.5.04-1.5Zm-6.764-.18-.04 1.499.04-1.499Zm-14.301-.312.029-1.5-.03 1.5Zm-7.31-.146.032-1.5-.038-.001-.038.001.044 1.5Zm-30.348.891-1.497-.09-.099 1.638 1.64-.049-.044-1.499Zm.079-.364 1.425.469-2.807-1.053 1.382.584Zm-.085.364-.026 1.5 1.471.025.054-1.47-1.5-.055Zm-.005 0 .026-1.5-.026 1.5Zm-11.468-.859.171-1.49-.17 1.49Zm13.779 8.399 1.43.454-2.819-1.022 1.389.568Zm-44.292-19.287c5.303 12.772 18.237 18.56 32.68 20.27l.352-2.98c-14.018-1.658-25.576-7.157-30.261-18.44l-2.77 1.15Zm32.68 20.27c6.8.805 11.281.885 11.496.889l.053-2.999c-.145-.003-4.522-.08-11.197-.87l-.352 2.98Zm11.496.889h.005l.053-2.999h-.004l-.054 2.999Zm-1.468-1.471a39.05 39.05 0 0 0 .014.533l.008.087c.002.012.011.085.034.174.007.027.041.169.128.333.056.097.242.336.383.466.274.175.99.332 1.398.262.29-.127.677-.445.79-.593.058-.092.137-.252.162-.316a1.507 1.507 0 0 0 .092-.466l.001-.03v-.101l-.004-.397-3 .039.004.379v.022l.001-.024a1.36 1.36 0 0 1 .025-.221c.006-.028.024-.124.067-.241.025-.064.104-.224.162-.316.113-.148.5-.466.79-.593.408-.07 1.124.087 1.398.262.14.13.327.369.383.466.087.164.121.306.128.332.023.09.032.162.033.174.006.044.008.079.009.084l.001.026a.75.75 0 0 1 0 .005v-.032l-.002-.098a89.876 89.876 0 0 1-.006-.273l-3 .057Zm1.551 1.471 30.029-.913-.091-2.998-30.029.912.091 2.999Zm31.48-2.323.028-.457.003-.045v-.016.006l-.002.023-.004.045a1.48 1.48 0 0 1-.037.19 2.79 2.79 0 0 1-.216.476c-.625.519-2.113.366-2.586-.197a2.769 2.769 0 0 1-.137-.459 1.472 1.472 0 0 1-.013-.159v-.065l.001-.034c-.002.052-.015.279-.03.515l2.996.175a120.721 120.721 0 0 0 .031-.553v-.012l.002-.031v-.066c0-.004-.002-.074-.013-.16a2.762 2.762 0 0 0-.137-.458c-.473-.564-1.961-.717-2.586-.197a2.784 2.784 0 0 0-.217.476l-.024.113c-.007.038-.01.068-.012.077a1.358 1.358 0 0 0-.005.046l-.003.039-.005.087-.028.463 2.994.178Zm-1.528 1.411c2.417.053 4.832.101 7.241.15l.06-3c-2.41-.048-4.822-.097-7.235-.15l-.066 3Zm7.241.15c4.735.095 9.449.189 14.132.318l.083-2.998c-4.696-.13-9.422-.225-14.155-.32l-.06 3Zm14.132.318 6.695.185.083-2.999-6.695-.184-.083 2.998Zm6.695.185c19.186.53 38.384 1.061 57.568 1.49l.067-2.999c-19.175-.429-38.364-.959-57.552-1.49l-.083 2.999Zm57.568 1.49c20.811.466 41.638-.008 62.396-.989l-.142-2.996c-20.71.978-41.464 1.45-62.187.986l-.067 2.999Zm62.396-.989 1.834-.085-.138-2.997-1.838.086.142 2.996Zm1.834-.085c7.828-.361 16.856-.773 25.261-2.612 8.404-1.84 16.38-5.143 21.976-11.432l-2.242-1.994c-4.995 5.613-12.26 8.719-20.375 10.495-8.114 1.776-16.884 2.183-24.758 2.546l.138 2.997Zm47.237-14.044c4.515-5.075 7.504-11.238 9.607-17.747l-2.854-.922c-2.024 6.26-4.843 12.009-8.995 16.675l2.242 1.994Zm-.06-7.38c4.056-2.927 7.138-6.327 9.503-10.019l-2.526-1.618c-2.171 3.389-4.996 6.508-8.733 9.205l1.756 2.432Zm-47.488 13.508c7.913-.352 17.031-.755 25.519-2.55 8.484-1.794 16.539-5.016 22.195-11.158l-2.207-2.032c-5.048 5.482-12.397 8.519-20.608 10.255-8.207 1.735-17.075 2.134-25.032 2.488l.133 2.997Zm-1.853.083 1.853-.083-.133-2.997-1.857.083.137 2.997Zm-63.055.966c21.03.454 42.077-.008 63.055-.966l-.137-2.997c-20.932.956-41.909 1.416-62.853.964l-.065 2.999Zm-58.183-1.455c19.391.518 38.793 1.036 58.183 1.455l.065-2.999c-19.381-.42-38.776-.937-58.168-1.455l-.08 2.999Zm-6.764-.181 6.764.181.08-2.999-6.764-.18-.08 2.998Zm-14.29-.311c4.788.093 9.555.185 14.29.311l.08-2.998c-4.748-.127-9.526-.22-14.312-.313l-.058 3Zm-7.313-.147c2.44.052 4.88.1 7.313.147l.058-3c-2.434-.047-4.87-.094-7.307-.146l-.064 2.999Zm-30.272.891 30.348-.891-.088-2.999-30.348.892.088 2.998Zm-1.39-2.331a2.913 2.913 0 0 0-.151.742l2.994.18a.374.374 0 0 1-.007.061l.003-.01a.789.789 0 0 1 .01-.036l-2.849-.937Zm2.839.887a.483.483 0 0 1-.033.166l-2.763-1.169c-.106.252-.19.552-.202.893l2.998.11Zm-1.53 1.445h.005l.052-3h-.005l-.052 3Zm-11.612-.869c6.87.786 11.397.865 11.612.869l.052-3c-.149-.002-4.575-.077-11.323-.849l-.34 2.98Zm-29.986-11.861c7.496 7.061 18.933 10.597 29.986 11.861l.34-2.98c-10.778-1.233-21.457-4.648-28.27-11.065l-2.056 2.184Zm42.505 18.316a2.994 2.994 0 0 0-.146.739l2.995.175c-.002.032-.006.05-.005.048 0 0 0-.005.003-.014l.012-.04-2.859-.908Zm2.852.807a.581.581 0 0 1-.034.215l-2.777-1.136c-.102.25-.194.577-.19.96l3-.039Z" fill="#000"/></svg>